<?xml version="1.0" encoding="UTF-8"?>
<svg width="201px" height="48px" viewBox="0 0 201 48" version="1.1" xmlns="http://www.w3.org/2000/svg" xmlns:xlink="http://www.w3.org/1999/xlink">
    <title>Xone_Scan_Logo_Light备份</title>
    <g id="Xone" stroke="none" stroke-width="1" fill="none" fill-rule="evenodd">
        <g id="画板" transform="translate(-383.000000, -1033.000000)" fill-rule="nonzero">
            <g id="Xone_Scan_Logo_Light备份" transform="translate(383.000000, 1033.000000)">
                <g id="编组-5备份">
                    <path d="M33.4335429,0 L14.5664229,0 C6.52160571,0 0,6.52161693 0,14.5664352 L0,33.4335408 C0,41.4783419 6.52160571,48 14.5664229,48 L33.4335429,48 C41.4783429,48 48,41.4783419 48,33.4335408 L48,14.5664352 C48,6.52161693 41.4783429,0 33.4335429,0 Z" id="路径" fill="#FF0420"></path>
                    <path d="M38.4615385,11.4177856 C38.4615385,11.0297442 38.24844,10.6855808 37.9207296,10.5400739 C37.8012627,10.4869414 37.6726061,10.4615385 37.5484576,10.4615385 C37.3400407,10.4615385 37.1340513,10.5331458 36.9655146,10.6717247 L26.4815565,19.2872715 C26.2731397,19.4581643 26.1538462,19.7099703 26.1538462,19.9778563 L26.1538462,28.3322741 C26.1538462,28.6001602 26.2731397,28.8519662 26.4815565,29.022859 L36.9630871,37.6383203 C37.2510907,37.8740463 37.6583879,37.9132199 37.9885258,37.7354846 C38.278957,37.5782769 38.4615385,37.2642036 38.4615385,36.9131805 L38.4615385,31.947025 C38.4615385,31.6791389 38.3420716,31.4273329 38.1336547,31.2542163 L32.3439312,26.4960744 C32.0933801,26.2880608 31.9482512,25.9856198 31.9482512,25.662138 L31.9482512,22.6479924 C31.9482512,22.3245107 32.0933801,22.0218986 32.3439312,21.814056 L38.1336547,17.0559142 C38.3420716,16.8850214 38.4615385,16.6332667 38.4615385,16.36302 L38.4615385,11.4177856 Z" id="路径" fill="#FFFFFF"></path>
                    <path d="M21.518443,29.0229558 C21.7268602,28.8518922 21.8461538,28.6002575 21.8461538,28.3322007 L21.8461538,19.9777933 C21.8461538,19.7099076 21.7268602,19.4581018 21.518443,19.2872092 L11.0345049,10.6717244 C10.8659332,10.5331457 10.6599089,10.4615385 10.4515437,10.4615385 C10.3251236,10.4615385 10.1986862,10.4869414 10.0792885,10.5400738 C9.75152561,10.6855805 9.53846154,11.0297435 9.53846154,11.4177844 L9.53846154,16.3630127 C9.53846154,16.6309497 9.6578766,16.8827383 9.86624174,17.0560258 L15.6560601,21.8141618 C15.9065768,22.0220041 16.0517233,22.3246157 16.0517233,22.6479261 L16.0517233,25.662239 C16.0517233,25.9855493 15.9065768,26.288161 15.6560601,26.4960033 L9.86624174,31.2541393 C9.6578766,31.4250319 9.53846154,31.6790614 9.53846154,31.9471182 L9.53846154,36.9130965 C9.53846154,37.2641191 9.71873718,37.5783631 10.0113882,37.7353996 C10.3391684,37.9133058 10.7512171,37.8739611 11.0368457,37.6384065 L21.5208705,29.0229558 L21.518443,29.0229558 Z" id="路径" fill="#FFFFFF"></path>
                </g>
                <g id="XONESCAN" transform="translate(57.000000, 15.000000)" fill="#FFFFFF">
                    <path d="M0,18.2083333 L7.02954258,8.24577381 L12.6893581,0 L17.6513882,0 L10.8027529,9.41630952 L5.01371787,18.2083333 L0,18.2083333 Z M12.7927337,18.2083333 L7.02954258,9.41630952 L0.155063439,0 L5.1170935,0 L10.8027529,8.24577381 L17.8064516,18.2083333 L12.7927337,18.2083333 Z" id="形状"></path>
                    <path d="M27.9217345,19 C26.0941301,19 24.4780539,18.5926694 23.0735061,17.7780083 C21.6689582,16.9633472 20.5690111,15.8420931 19.7736647,14.4142462 C18.9783184,12.9863993 18.5806452,11.3526971 18.5806452,9.5131397 C18.5806452,7.6560627 18.9783184,6.01360074 19.7736647,4.5857538 C20.5690111,3.15790687 21.6647277,2.03665284 23.0608144,1.2219917 C24.4569011,0.407330567 26.0602856,0 27.8709677,0 C29.6816499,0 31.2850344,0.407330567 32.6811211,1.2219917 C34.0772078,2.03665284 35.1729244,3.15790687 35.9682708,4.5857538 C36.7636171,6.01360074 37.1612903,7.6560627 37.1612903,9.5131397 C37.1612903,11.3526971 36.7678477,12.9863993 35.9809625,14.4142462 C35.1940772,15.8420931 34.1068218,16.9633472 32.7191962,17.7780083 C31.3315706,18.5926694 29.7324167,19 27.9217345,19 Z M27.9217345,15.1106501 C28.9201481,15.1106501 29.8001058,14.8741355 30.5616076,14.4011065 C31.3231095,13.9280775 31.9153887,13.2667128 32.3384453,12.4170124 C32.7615019,11.5673121 32.9730301,10.5993545 32.9730301,9.5131397 C32.9730301,8.40940526 32.7530407,7.43268787 32.3130619,6.58298755 C31.873083,5.73328723 31.2723427,5.06754265 30.5108408,4.5857538 C29.749339,4.10396496 28.8693813,3.86307054 27.8709677,3.86307054 C26.8725542,3.86307054 25.9925965,4.10396496 25.2310947,4.5857538 C24.4695928,5.06754265 23.8688525,5.73328723 23.4288736,6.58298755 C22.9888948,7.43268787 22.7689053,8.40940526 22.7689053,9.5131397 C22.7689053,10.5993545 22.9888948,11.5673121 23.4288736,12.4170124 C23.8688525,13.2667128 24.4780539,13.9280775 25.2564781,14.4011065 C26.0349022,14.8741355 26.923321,15.1106501 27.9217345,15.1106501 Z" id="形状"></path>
                    <polygon id="路径" points="40.2580645 18.2083333 40.2580645 0 44.5714286 0 52.4069479 11.1070833 52.4069479 0 56.516129 0 56.516129 18.2083333 52.4069479 18.2083333 44.3672457 6.78910714 44.3672457 18.2083333"></polygon>
                    <polygon id="路径" points="59.6129032 18.2083333 59.6129032 0 71.0998531 0 71.0998531 3.8497619 63.6686026 3.8497619 63.6686026 7.17928571 69.8907004 7.17928571 69.8907004 10.8989881 63.6686026 10.8989881 63.6686026 14.3585714 71.2258065 14.3585714 71.2258065 18.2083333"></polygon>
                    <path d="M80.6994907,19 C79.808877,19 78.9575552,18.8819061 78.1455251,18.6457182 C77.333495,18.4095304 76.6000485,18.0858656 75.9451855,17.6747238 C75.2903226,17.263582 74.753335,16.799954 74.3342227,16.2838398 C73.9151104,15.7677256 73.6531652,15.2122468 73.5483871,14.6174033 L77.7133155,13.4364641 C77.9054087,13.9438306 78.2415717,14.3855893 78.7218045,14.7617403 C79.2020374,15.1378913 79.808877,15.3347145 80.5423236,15.3522099 C81.2583071,15.3697053 81.8564152,15.2034991 82.3366481,14.8535912 C82.8168809,14.5036832 83.0569973,14.0488029 83.0569973,13.4889503 C83.0569973,13.0515654 82.886733,12.6666667 82.5462042,12.3342541 C82.2056755,12.0018416 81.7210769,11.7481584 81.0924084,11.5732044 L78.4991511,10.9171271 C77.5910745,10.6896869 76.8008732,10.3310313 76.1285472,9.84116022 C75.4562212,9.35128913 74.9323308,8.75207182 74.5568761,8.04350829 C74.1814213,7.33494475 73.9936939,6.52578269 73.9936939,5.6160221 C73.9936939,3.84898711 74.5787048,2.47122468 75.7487267,1.48273481 C76.9187485,0.494244936 78.5690032,0 80.6994907,0 C81.8695125,0 82.8910987,0.161832413 83.7642493,0.485497238 C84.6374,0.809162063 85.3839437,1.2859116 86.0038807,1.91574586 C86.6238176,2.54558011 87.1171477,3.33287293 87.483871,4.27762431 L83.345137,5.51104972 C83.2054329,5.03867403 82.904196,4.61003683 82.4414261,4.22513812 C81.9786563,3.84023941 81.3805481,3.64779006 80.6471016,3.64779006 C79.9136551,3.64779006 79.3417415,3.81399632 78.9313607,4.14640884 C78.5209799,4.47882136 78.3157895,4.95994475 78.3157895,5.58977901 C78.3157895,6.0271639 78.4816881,6.39019337 78.8134853,6.6788674 C79.1452826,6.96754144 79.5993209,7.18186004 80.1756003,7.3218232 L82.7688576,7.97790055 C84.2532137,8.34530387 85.4101382,9.03199816 86.2396313,10.0379834 C87.0691244,11.0439687 87.483871,12.1855433 87.483871,13.4627072 C87.483871,14.6174033 87.21756,15.6058932 86.6849382,16.4281768 C86.1523163,17.2504604 85.379578,17.8846685 84.3667233,18.3308011 C83.3538685,18.7769337 82.1314577,19 80.6994907,19 Z" id="路径"></path>
                    <path d="M98.7125363,19 C96.9682184,19 95.429361,18.593232 94.0959642,17.7796961 C92.7625673,16.9661602 91.7142993,15.8464549 90.9511602,14.4205801 C90.1880212,12.9947053 89.8064516,11.354512 89.8064516,9.5 C89.8064516,7.64548803 90.1880212,6.00529466 90.9511602,4.57941989 C91.7142993,3.15354512 92.7625673,2.03383978 94.0959642,1.22030387 C95.429361,0.406767956 96.9682184,0 98.7125363,0 C99.9872302,0 101.157097,0.231813996 102.222138,0.695441989 C103.287178,1.15906998 104.209654,1.81077348 104.989565,2.65055249 C105.769476,3.49033149 106.369086,4.46132597 106.788393,5.56353591 L102.98947,6.9019337 C102.737885,6.28959484 102.398247,5.75598527 101.970553,5.30110497 C101.54286,4.84622468 101.056464,4.49631676 100.511364,4.25138122 C99.9662648,4.00644567 99.3666555,3.8839779 98.7125363,3.8839779 C97.7900605,3.8839779 96.9682184,4.12016575 96.2470101,4.59254144 C95.5258017,5.06491713 94.9639301,5.72536832 94.5613951,6.57389503 C94.1588602,7.42242173 93.9575928,8.39779006 93.9575928,9.5 C93.9575928,10.6022099 94.1630533,11.5775783 94.5739744,12.426105 C94.9848954,13.2746317 95.5551532,13.9394567 96.2847477,14.4205801 C97.0143422,14.9017035 97.8487635,15.1422652 98.7880116,15.1422652 C99.4756754,15.1422652 100.087864,15.0110497 100.624577,14.7486188 C101.16129,14.4861878 101.626721,14.1187845 102.02087,13.6464088 C102.415019,13.1740331 102.754658,12.6316759 103.039787,12.019337 L106.83871,13.3577348 C106.436175,14.4774401 105.840759,15.4615562 105.052461,16.3100829 C104.264164,17.1586096 103.333302,17.8190608 102.259875,18.2914365 C101.186449,18.7638122 100.004002,19 98.7125363,19 Z" id="路径"></path>
                    <path d="M121.781943,18.2083333 L114.98288,0 L119.134979,0 L126.193548,18.2083333 L121.781943,18.2083333 Z M107.612903,18.2083333 L114.671472,0 L118.823572,0 L112.024509,18.2083333 L107.612903,18.2083333 Z M110.934583,14.74875 L110.934583,11.0550595 L122.897819,11.0550595 L122.897819,14.74875 L110.934583,14.74875 Z" id="形状"></path>
                    <polygon id="路径" points="127.741935 18.2083333 127.741935 0 132.0553 0 139.890819 11.1070833 139.890819 0 144 0 144 18.2083333 139.890819 18.2083333 131.851117 6.78910714 131.851117 18.2083333"></polygon>
                </g>
            </g>
        </g>
    </g>
</svg>