<?xml version="1.0" encoding="UTF-8"?>
<svg width="196px" height="48px" viewBox="0 0 196 48" version="1.1" xmlns="http://www.w3.org/2000/svg" xmlns:xlink="http://www.w3.org/1999/xlink">
    <title>Xone_Scan_Logo_Light</title>
    <g id="Xone" stroke="none" stroke-width="1" fill="none" fill-rule="evenodd">
        <g id="画板" transform="translate(-2960.000000, -1619.000000)" fill-rule="nonzero">
            <g id="Xone_Scan_Logo_Light" transform="translate(2961.000000, 1620.000000)">
                <path d="M0.43935,3.2677625 L3.26775,0.4393425 C3.85355,-0.1464475 4.80325,-0.1464475 5.38905,0.4393425 L18.70275,13.7530725 C18.98405,14.0343725 19.14215,14.4158725 19.14215,14.8136725 L19.14215,31.4411725 C19.14215,31.8389725 18.98405,32.2204725 18.70275,32.5017725 L5.38905,45.8154725 C4.80325,46.4012725 3.85355,46.4012725 3.26775,45.8154725 L0.43935,42.9870725 C-0.14645,42.4012725 -0.14645,41.4515725 0.43935,40.8657725 L11.40985,29.8951725 C11.87875,29.4263725 12.14215,28.7904725 12.14215,28.1273725 L12.14215,18.1273725 C12.14215,17.4643725 11.87875,16.8284725 11.40985,16.3596725 L0.43935,5.3890825 C-0.14645,4.8033025 -0.14645,3.8535525 0.43935,3.2677625 Z" id="路径" stroke="#ED0000" fill="#ED0000"></path>
                <path d="M45.91235,3.2677625 L43.08385,0.4393425 C42.49815,-0.1464475 41.54835,-0.1464475 40.96255,0.4393425 L27.64885,13.7530725 C27.36755,14.0343725 27.20955,14.4158725 27.20955,14.8136725 L27.20955,31.4411725 C27.20955,31.8389725 27.36755,32.2204725 27.64885,32.5017725 L40.96255,45.8154725 C41.54835,46.4012725 42.49815,46.4012725 43.08385,45.8154725 L45.91235,42.9870725 C46.49815,42.4012725 46.49815,41.4515725 45.91235,40.8657725 L34.94175,29.8951725 C34.47295,29.4263725 34.20955,28.7904725 34.20955,28.1273725 L34.20955,18.1273725 C34.20955,17.4643725 34.47295,16.8284725 34.94175,16.3596725 L45.91235,5.3890825 C46.49815,4.8033025 46.49815,3.8535525 45.91235,3.2677625 Z" id="路径" stroke="#ED0000" fill="#ED0000"></path>
                <polygon id="路径" fill="#000000" points="194.75335 15.1969725 194.75335 31.1912725 191.94035 31.1912725 183.71635 20.2966725 183.57135 20.2966725 183.57135 31.1912725 180.40935 31.1912725 180.40935 15.1969725 183.23935 15.1969725 191.45535 26.0993725 191.60835 26.0993725 191.60835 15.1969725"></polygon>
                <path d="M165.28435,31.1912725 L161.90935,31.1912725 L168.05435,15.1969725 L171.95735,15.1969725 L178.11135,31.1912725 L174.73635,31.1912725 L170.07435,18.4770725 L169.93835,18.4770725 L165.28435,31.1912725 Z M165.39535,24.9200725 L174.59935,24.9200725 L174.59935,27.2473725 L165.39535,27.2473725 L165.39535,24.9200725 Z" id="形状" fill="#000000"></path>
                <path d="M160.35835,20.5933725 L157.17135,20.5933725 C157.08035,20.1143725 156.91235,19.6900725 156.66835,19.3203725 C156.42335,18.9455725 156.11935,18.6279725 155.75635,18.3676725 C155.39235,18.1072725 154.97735,17.9120725 154.51135,17.7818725 C154.05135,17.6465725 153.55435,17.5788725 153.02035,17.5788725 C152.07135,17.5788725 151.23035,17.7974725 150.49735,18.2348725 C149.76435,18.6669725 149.19035,19.3021725 148.77635,20.1404725 C148.36135,20.9734725 148.15435,21.9913725 148.15435,23.1940725 C148.15435,24.4175725 148.36135,25.4484725 148.77635,26.2866725 C149.19635,27.1197725 149.77035,27.7496725 150.49735,28.1766725 C151.23035,28.5983725 152.06835,28.8092725 153.01135,28.8092725 C153.53435,28.8092725 154.02335,28.7467725 154.47735,28.6217725 C154.93835,28.4916725 155.35035,28.3015725 155.71335,28.0516725 C156.08235,27.8017725 156.39235,27.4945725 156.64235,27.1301725 C156.89835,26.7656725 157.07435,26.3491725 157.17135,25.8805725 L160.35835,25.8961725 C160.23935,26.6563725 159.98035,27.3696725 159.58235,28.0360725 C159.19035,28.7024725 158.67635,29.2908725 158.04035,29.8010725 C157.40435,30.3060725 156.65935,30.7017725 155.80735,30.9881725 C154.95535,31.2692725 154.00935,31.4098725 152.96935,31.4098725 C151.43535,31.4098725 150.06535,31.0844725 148.86135,30.4336725 C147.65635,29.7828725 146.70735,28.8430725 146.01435,27.6143725 C145.32135,26.3855725 144.97535,24.9121725 144.97535,23.1940725 C144.97535,21.4706725 145.32435,19.9972725 146.02335,18.7737725 C146.72235,17.5449725 147.67335,16.6052725 148.87835,15.9544725 C150.08235,15.3035725 151.44635,14.9781725 152.96935,14.9781725 C153.94035,14.9781725 154.84435,15.1031725 155.67935,15.3530725 C156.51435,15.6029725 157.25935,15.9700725 157.91235,16.4542725 C158.56535,16.9332725 159.10235,17.5215725 159.52335,18.2192725 C159.94935,18.9116725 160.22735,19.7030725 160.35835,20.5933725 Z" id="路径" fill="#000000"></path>
                <path d="M139.31835,19.5937725 C139.23835,18.9116725 138.90335,18.3806725 138.31235,18.0005725 C137.72735,17.6204725 136.96535,17.4304725 136.02835,17.4304725 C135.36935,17.4304725 134.80335,17.5215725 134.33235,17.7037725 C133.86035,17.8860725 133.49935,18.1333725 133.24935,18.4457725 C132.99935,18.7580725 132.87235,19.1147725 132.86635,19.5156725 C132.86635,19.8488725 132.94835,20.1378725 133.11335,20.3825725 C133.28335,20.6272725 133.51435,20.8354725 133.80335,21.0072725 C134.09335,21.1739725 134.41435,21.3144725 134.76635,21.4290725 C135.11935,21.5435725 135.47435,21.6398725 135.83235,21.7179725 L137.46835,22.0928725 C138.12735,22.2334725 138.76135,22.4234725 139.36935,22.6629725 C139.98235,22.9024725 140.53135,23.2044725 141.01435,23.5688725 C141.50235,23.9333725 141.88935,24.3732725 142.17335,24.8887725 C142.45735,25.4041725 142.59935,26.0081725 142.59935,26.7005725 C142.59935,27.6377725 142.33735,28.4629725 141.81535,29.1762725 C141.29235,29.8843725 140.53635,30.4388725 139.54835,30.8397725 C138.56535,31.2354725 137.37435,31.4332725 135.97735,31.4332725 C134.61935,31.4332725 133.44035,31.2406725 132.44035,30.8553725 C131.44535,30.4700725 130.66735,29.9077725 130.10535,29.1684725 C129.54835,28.4291725 129.24735,27.5284725 129.20135,26.4662725 L132.31235,26.4662725 C132.35735,27.0233725 132.54535,27.4867725 132.87435,27.8564725 C133.20435,28.2260725 133.63335,28.5020725 134.16135,28.6842725 C134.69535,28.8664725 135.29235,28.9575725 135.95135,28.9575725 C136.63935,28.9575725 137.24135,28.8638725 137.75835,28.6764725 C138.28135,28.4837725 138.69035,28.2182725 138.98535,27.8798725 C139.28135,27.5362725 139.43135,27.1353725 139.43735,26.6771725 C139.43135,26.2606725 139.29835,25.9170725 139.03635,25.6462725 C138.77535,25.3703725 138.40835,25.1412725 137.93735,24.9590725 C137.47135,24.7715725 136.92635,24.6049725 136.30135,24.4591725 L134.31535,23.9906725 C132.87735,23.6521725 131.74135,23.1393725 130.90635,22.4520725 C130.07635,21.7596725 129.66135,20.8406725 129.66135,19.6952725 C129.66135,18.7528725 129.94035,17.9276725 130.49735,17.2195725 C131.05935,16.5114725 131.82335,15.9622725 132.78935,15.5717725 C133.75535,15.1760725 134.84935,14.9781725 136.07035,14.9781725 C137.30935,14.9781725 138.39435,15.1760725 139.32635,15.5717725 C140.26435,15.9622725 140.99935,16.5062725 141.53335,17.2039725 C142.06835,17.8964725 142.34335,18.6930725 142.36035,19.5937725 L139.31835,19.5937725 Z" id="路径" fill="#000000"></path>
                <polygon id="路径" fill="#000000" points="115.30035 31.1912725 115.30035 15.1969725 126.65235 15.1969725 126.65235 17.6257725 118.46235 17.6257725 118.46235 21.9679725 126.06435 21.9679725 126.06435 24.3967725 118.46235 24.3967725 118.46235 28.7624725 126.72035 28.7624725 126.72035 31.1912725"></polygon>
                <polygon id="路径" fill="#000000" points="111.85435 15.1969725 111.85435 31.1912725 109.04235 31.1912725 100.81735 20.2966725 100.67335 20.2966725 100.67335 31.1912725 97.51135 31.1912725 97.51135 15.1969725 100.34035 15.1969725 108.55635 26.0993725 108.71035 26.0993725 108.71035 15.1969725"></polygon>
                <path d="M94.52235,23.1940725 C94.52235,24.9173725 94.17035,26.3933725 93.46535,27.6221725 C92.76635,28.8456725 91.81235,29.7828725 90.60235,30.4336725 C89.39735,31.0844725 88.03135,31.4098725 86.50235,31.4098725 C84.97435,31.4098725 83.60535,31.0844725 82.39435,30.4336725 C81.19035,29.7776725 80.23535,28.8378725 79.53095,27.6143725 C78.83215,26.3855725 78.48275,24.9121725 78.48275,23.1940725 C78.48275,21.4706725 78.83215,19.9972725 79.53095,18.7737725 C80.23535,17.5449725 81.19035,16.6052725 82.39435,15.9544725 C83.60535,15.3035725 84.97435,14.9781725 86.50235,14.9781725 C88.03135,14.9781725 89.39735,15.3035725 90.60235,15.9544725 C91.81235,16.6052725 92.76635,17.5449725 93.46535,18.7737725 C94.17035,19.9972725 94.52235,21.4706725 94.52235,23.1940725 Z M91.34335,23.1940725 C91.34335,21.9809725 91.13635,20.9578725 90.72135,20.1247725 C90.31235,19.2865725 89.74435,18.6539725 89.01635,18.2270725 C88.28935,17.7948725 87.45135,17.5788725 86.50235,17.5788725 C85.55335,17.5788725 84.71535,17.7948725 83.98835,18.2270725 C83.26135,18.6539725 82.69035,19.2865725 82.27535,20.1247725 C81.86635,20.9578725 81.66135,21.9809725 81.66135,23.1940725 C81.66135,24.4071725 81.86635,25.4328725 82.27535,26.2710725 C82.69035,27.1040725 83.26135,27.7366725 83.98835,28.1688725 C84.71535,28.5957725 85.55335,28.8092725 86.50235,28.8092725 C87.45135,28.8092725 88.28935,28.5957725 89.01635,28.1688725 C89.74435,27.7366725 90.31235,27.1040725 90.72135,26.2710725 C91.13635,25.4328725 91.34335,24.4071725 91.34335,23.1940725 Z" id="形状" fill="#000000"></path>
                <polygon id="路径" fill="#000000" points="65.63005 15.1969725 69.47385 21.0542725 69.61015 21.0542725 73.47095 15.1969725 77.07605 15.1969725 71.69825 23.1940725 77.16135 31.1912725 73.49655 31.1912725 69.61015 25.3730725 69.47385 25.3730725 65.58745 31.1912725 61.93975 31.1912725 67.45395 23.1940725 62.00795 15.1969725"></polygon>
            </g>
        </g>
    </g>
</svg>