<?xml version="1.0" encoding="UTF-8"?>
<svg width="260px" height="260px" viewBox="0 0 260 260" version="1.1" xmlns="http://www.w3.org/2000/svg" xmlns:xlink="http://www.w3.org/1999/xlink">
    <title>编组 3</title>
    <g id="Xone" stroke="none" stroke-width="1" fill="none" fill-rule="evenodd">
        <g id="画板" transform="translate(-456.000000, -73.000000)">
            <g id="编组-3" transform="translate(456.000000, 73.000000)">
                <rect id="矩形" x="0" y="0" width="260" height="260"></rect>
                <g id="huionecrypto-黑-01" transform="translate(27.000000, 27.000000)">
                    <path d="M87.6595745,205.861652 C38.0771277,198.390866 0,155.226326 0,102.930826 C0,50.6353257 38.0771277,7.47078576 87.6595745,0 L87.6595745,28.6380121 C77.5239362,30.7132304 68.0731383,35.0020148 59.8550532,40.8126259 C44.6515957,51.6037609 33.5571809,67.9288113 29.5851064,87.0208193 C28.4893617,92.1396911 27.9414894,97.5352586 27.9414894,102.930826 C27.9414894,105.97448 28.0784574,109.156481 28.4893617,112.061786 C29.4481383,120.36266 31.7765957,128.110141 35.2007979,135.304231 C38.8989362,143.19006 43.8297872,150.245803 49.856383,156.333109 C53.0066489,159.515111 56.293883,162.282069 59.9920213,164.910678 L59.9920213,103.484218 L118.477394,87.7125588 L118.477394,0 C168.05984,7.47078576 206,50.7736736 206,102.930826 C206,155.087979 167.922872,198.252518 118.477394,205.861652 L118.477394,177.22364 C128.613032,175.148422 138.06383,170.859637 146.281915,165.049026 C160.526596,154.949631 171.210106,139.869711 175.730053,122.437878 C177.37367,116.212223 178.195479,109.709872 178.195479,102.930826 C178.195479,100.855608 178.195479,98.7803895 177.921543,96.8435191 C177.236702,88.5426461 175.319149,80.6568167 172.168883,73.3243788 C168.881649,65.4385494 164.361702,58.3828073 158.746011,52.1571525 C155.047872,48.0067159 150.801862,44.1329752 146.144947,40.9509738 L146.144947,105.559436 L87.7965426,121.331095 L87.7965426,206 L87.7965426,206 L87.6595745,205.861652 Z" id="路径" fill="#333333"></path>
                    <path d="M60,40.7141364 C67.9802956,34.843518 77.1576355,30.5104425 87,28.4137931 L87,71.4649948 L60,79.1527094 L60,40.8539131 L60,40.7141364 Z" id="路径" fill="#C80F0F"></path>
                    <path d="M145,165.432885 C137.019704,171.233334 127.975369,175.376512 118,177.586207 L118,138.364124 L145,130.906404 L145,165.432885 L145,165.432885 L145,165.432885 Z" id="路径" fill="#C80F0F"></path>
                </g>
            </g>
        </g>
    </g>
</svg>