<?xml version="1.0" encoding="UTF-8"?>
<svg width="260px" height="260px" viewBox="0 0 260 260" version="1.1" xmlns="http://www.w3.org/2000/svg" xmlns:xlink="http://www.w3.org/1999/xlink">
    <title>编组 2</title>
    <defs>
        <linearGradient x1="50.2152624%" y1="0%" x2="50.2152624%" y2="100.045192%" id="linearGradient-1">
            <stop stop-color="#FF4800" offset="0%"></stop>
            <stop stop-color="#FFA602" offset="100%"></stop>
        </linearGradient>
        <linearGradient x1="35.2341469%" y1="69.5033175%" x2="68.4696084%" y2="43.9779358%" id="linearGradient-2">
            <stop stop-color="#FFC816" offset="0%"></stop>
            <stop stop-color="#F77D30" offset="33.5%"></stop>
            <stop stop-color="#ED284E" offset="71.6115%"></stop>
        </linearGradient>
        <linearGradient x1="38.4601184%" y1="52.4703867%" x2="101.9138%" y2="-0.164966608%" id="linearGradient-3">
            <stop stop-color="#FFC816" offset="0%"></stop>
            <stop stop-color="#F77D30" offset="33.5%"></stop>
            <stop stop-color="#ED284E" offset="71.6115%"></stop>
        </linearGradient>
        <path d="M0,0 C66.0938316,0.357232811 119.933296,54.7218409 123,123 L0,123 L0,0 Z" id="path-4"></path>
    </defs>
    <g id="Xone" stroke="none" stroke-width="1" fill="none" fill-rule="evenodd">
        <g id="画板" transform="translate(-391.000000, -163.000000)">
            <g id="编组-2" transform="translate(391.000000, 163.000000)">
                <rect id="矩形" x="0" y="0" width="260" height="260"></rect>
                <g id="Rainlink" transform="translate(0.000000, 41.000000)">
                    <path d="M0,96 C66.0938316,96.3572328 119.933296,150.721841 123,219 L0,219 L0,96 Z" id="路径" fill="url(#linearGradient-1)" fill-rule="nonzero"></path>
                    <path d="M0,219 C3.41785605,219 6.75048525,219 10.4325581,219 C33.7523648,219 56.8082622,212.767101 76.1507833,199.265359 C99.9865021,182.627481 116.23606,157.229589 121.332082,128.645117 C126.381486,100.052034 119.860753,70.6244109 103.201482,46.8189462 C86.5401191,23.0131125 61.0983866,6.77023548 32.4572955,1.65576451 C22.9683213,-0.00870151117 13.3889419,-0.406728186 3.95400167,0.409649876 C1.84491706,0.592142403 0.264224132,2.38482663 0.264224132,4.50236348 C0.264224132,7.02838525 2.48469035,8.97186601 5.00139766,8.7632743 C13.6052993,8.05015738 22.3362232,8.43162406 30.98486,9.95386127 C57.4216643,14.6738732 80.9059715,29.6672792 96.2851798,51.6426142 C111.664388,73.6180723 117.680205,100.781379 113.016529,127.173632 C108.315215,153.558256 93.3192757,177.00237 71.315276,192.361925 C65.5890012,196.359298 59.5100848,199.724275 53.183569,202.432252 C56.0414789,200.86603 58.8258347,199.139864 61.5229833,197.257445 C81.2695601,183.471494 94.7327941,162.432693 98.9518243,138.753584 C103.137768,115.065617 97.7343683,90.6831235 83.9334986,70.9614008 C70.128693,51.2389399 49.0517459,37.783827 25.3243903,33.5455545 C17.9620897,32.2545595 10.5342915,31.8833662 3.20061308,32.3967867 C1.53038092,32.513669 0.264224132,33.9235147 0.264224132,35.5983755 C0.264224132,37.54428 1.95490385,39.0532911 3.89598247,38.9227521 C10.62065,38.4704794 17.4291298,38.8198957 24.1786434,40.0026208 C46.1917451,43.9331856 65.7476715,56.4165765 78.5548224,74.7145506 C91.3619734,93.0124017 96.3743549,115.631573 92.4938213,137.609369 C88.5763876,159.577076 76.0767372,179.092717 57.7556098,191.882093 C47.6337995,198.946701 36.1887529,203.639215 24.2582245,205.772623 C32.2789452,203.62076 39.9416124,200.083534 46.8771022,195.24338 C62.537858,184.313046 73.2113243,167.628416 76.554593,148.848518 C79.8722777,130.064929 75.5875654,110.7347 64.6436216,95.0942587 C53.6993089,79.4559089 36.9835803,68.7856689 18.1693451,65.4256124 C12.9319961,64.5070412 7.6530608,64.1757108 2.42371915,64.4113208 C1.20476615,64.4661939 0.264224132,65.4845457 0.264224132,66.7050422 C0.264224132,68.0670277 1.42595374,69.1357004 2.78632377,69.0772593 C7.62550875,68.869578 12.5092444,69.1808538 17.3545917,70.0295418 C34.9462048,73.17109 50.5736276,83.1465575 60.8078601,97.7712308 C71.0404936,112.393443 75.0446424,130.46971 71.9392561,148.031573 C68.8129598,165.588513 58.8329687,181.190445 44.1922536,191.409643 C31.3263086,200.391119 15.5215196,204.828953 0,203.617069 L0,219 Z" id="路径" fill="url(#linearGradient-2)" fill-rule="nonzero"></path>
                    <path d="M0,202.980598 C11.3470039,203.282682 22.8339718,200.054318 32.2453723,193.498123 C43.8240255,185.438879 51.7158271,173.134501 54.1899277,159.282867 C56.6426204,145.430005 53.4746052,131.171908 45.380658,119.636493 C37.2905248,108.103657 24.9362622,100.236346 11.0270157,97.7606119 C7.44834832,97.1345868 4.2969551,97.0641006 0,97 L0,99.8048332 C3.4148716,99.7018055 7.12033836,99.9243158 10.5359113,100.521975 C23.7103465,102.865823 35.4101886,110.318567 43.0749915,121.242816 C50.7372107,132.169029 53.7412209,145.673145 51.4186988,158.79413 C49.0747686,171.912659 41.5969782,183.566206 30.6341126,191.200569 C21.6967639,197.423981 10.773454,200.479199 0,200.175888 L0,202.980598 Z" id="路径" fill="url(#linearGradient-3)" fill-rule="nonzero"></path>
                    <g id="Clipped" transform="translate(0.000000, 96.000000)">
                        <mask id="mask-5" fill="white">
                            <use xlink:href="#path-4"></use>
                        </mask>
                        <g id="路径"></g>
                        <g id="编组" mask="url(#mask-5)" fill="#FFFFFF" fill-rule="nonzero">
                            <g transform="translate(0.000000, -96.873199)" id="路径">
                                <path d="M0,219.873199 C3.42520755,219.873199 6.76500493,219.873199 10.4549975,219.873199 C33.824963,219.873199 56.9304516,213.615448 76.3145767,200.059872 C100.201564,183.355655 116.486073,157.856496 121.593056,129.158052 C126.653321,100.450962 120.118563,70.9060052 103.423459,47.0056232 C86.726259,23.1048706 61.2298036,6.79722982 32.5271082,1.66236639 C23.0177241,-0.00873620592 13.4177403,-0.408349897 3.96250636,0.411283236 C1.84888531,0.594503398 0.264792454,2.39433544 0.264792454,4.52031535 C0.264792454,7.0564089 2.49003469,9.00763872 5.01215521,8.79821531 C13.634563,8.08225504 22.3842664,8.46524271 31.0515056,9.9935494 C57.545173,14.732381 81.0799928,29.7855688 96.4922804,51.8485241 C111.904568,73.911603 117.933325,101.183215 113.259618,127.6807 C108.548192,154.170525 93.519997,177.708116 71.4686687,193.128913 C65.7300772,197.142223 59.6380856,200.520618 53.297962,203.239392 C56.162019,201.666925 58.9523637,199.933877 61.6553136,198.043952 C81.4443635,184.203033 94.9365557,163.080346 99.1646607,139.306824 C103.359607,115.524408 97.944586,91.0446961 84.1140319,71.2443387 C70.2795334,51.4432403 49.1572518,37.9344791 25.3788608,33.6793076 C18.0007246,32.3831652 10.5569498,32.0104918 3.2074973,32.5259595 C1.53367263,32.6433078 0.264792454,34.0587748 0.264792454,35.7403137 C0.264792454,37.6939769 1.95910867,39.2090047 3.90436237,39.0779452 C10.643494,38.6238692 17.4666183,38.9746788 24.2306494,40.1621196 C46.2910993,44.1083564 65.8890888,56.6415212 78.7237867,75.0124532 C91.5584846,93.3832616 96.5816474,116.092621 92.6927671,138.158046 C88.7669073,160.213343 76.2403713,179.806797 57.8798369,192.647167 C47.7362555,199.739943 36.2665916,204.451167 24.3104017,206.593082 C32.3483743,204.432638 40.0275231,200.881309 46.9779306,196.021856 C62.6723713,185.047941 73.3687952,168.296785 76.719255,149.442008 C80.0440757,130.583525 75.7501473,111.176223 64.7826642,95.4734194 C53.8148112,79.7727162 37.0631286,69.0599318 18.2084257,65.6864781 C12.9598117,64.7642443 7.66952183,64.4315928 2.42893235,64.6681422 C1.20735749,64.7232341 0.264792454,65.7456463 0.264792454,66.9710092 C0.264792454,68.3384252 1.42902084,69.4113589 2.7923169,69.3526848 C7.64191052,69.1441755 12.5361507,69.4566924 17.3919198,70.3087643 C35.0213709,73.4628385 50.6824068,83.4780802 60.9386522,98.1610652 C71.1932952,112.84158 75.2060566,130.98992 72.0939909,148.621805 C68.9609702,166.248749 58.959513,181.912889 44.2873071,192.172833 C31.3936886,201.190121 15.5549049,205.645649 0,204.428933 L0,219.873199 Z"></path>
                                <path d="M0,203.479029 C11.3682416,203.782899 22.8767092,200.535441 32.3057247,193.940469 C43.9060492,185.833557 51.8126215,173.456403 54.2913528,159.522841 C56.7486361,145.588044 53.5746914,131.245616 45.4655951,119.641973 C37.36032,108.040924 24.9829343,100.127081 11.0476546,97.6367037 C7.4622891,97.0069759 4.30499753,96.9360729 0,96.8715931 L0,99.6930158 C3.42126307,99.5893788 7.13366521,99.8132052 10.5556309,100.414399 C23.7547241,102.772111 35.4764644,110.268935 43.1556133,121.257797 C50.8321735,132.248635 53.8418062,145.832623 51.5149371,159.031214 C49.1666199,172.227335 41.6748335,183.949808 30.6914492,191.629325 C21.7373729,197.889546 10.7936182,200.962835 0,200.65773 L0,203.479029 Z"></path>
                            </g>
                        </g>
                    </g>
                </g>
            </g>
        </g>
    </g>
</svg>