<svg width="200" height="200" viewBox="0 0 200 200" fill="none" xmlns="http://www.w3.org/2000/svg">
<path d="M160 162.673C160 164.882 158.205 166.683 155.999 166.575C125.603 165.089 99.9916 146.797 90.3848 122.425L46.8091 165.41C44.2814 167.904 40 166.113 40 162.563V131.942C40 130.791 40.4954 129.696 41.3596 128.937L54.9098 117.03L74.9609 99.0464L84.7294 90.3116C80.1496 74.1712 63.8169 61.871 43.9966 60.4003C41.7936 60.2368 40 58.4618 40 56.2526V36.5066C40 34.2975 41.7933 32.4963 43.9998 32.6042C82.771 34.5001 113.778 63.7871 113.778 99.5596C113.778 119.998 132.41 137.033 156.001 138.78C158.204 138.943 160 140.718 160 142.927V162.673Z" fill="#FF1818"/>
<path d="M120.448 100.06C120.448 89.5272 117.878 79.2508 113.764 70.0021L153.292 33.6715C155.856 31.3146 159.999 33.1336 159.999 36.6165V67.5775C159.999 68.7938 159.445 69.944 158.495 70.7031L120.448 101.088V100.06Z" fill="#FF1818"/>
</svg>
