<svg width="512" height="512" viewBox="0 0 512 512" fill="none" xmlns="http://www.w3.org/2000/svg">
<rect width="512" height="512" rx="132" fill="url(#paint0_linear_107_18892)"/>
<path fill-rule="evenodd" clip-rule="evenodd" d="M265.413 223.655C260.878 225.403 256 222.056 256 217.195V190.698C256 185.827 251.104 182.479 246.566 184.246L145.434 223.611C140.896 225.378 136 222.03 136 217.159V185.426C136 182.563 137.762 179.995 140.434 178.966L276.588 126.507C281.123 124.76 286 128.107 286 132.968V159.045C286 163.906 290.879 167.254 295.415 165.504L366.585 138.051C371.121 136.302 376 139.649 376 144.51V176.278C376 179.141 374.238 181.708 371.567 182.738L265.413 223.655ZM182.155 379.038C182.155 382.862 185.254 385.961 189.078 385.961H221.386C225.209 385.961 228.309 382.862 228.309 379.038V229.898C228.309 225.036 223.43 221.689 218.894 223.438L142.74 252.813C140.07 253.843 138.309 256.411 138.309 259.273V291.042C138.309 295.903 143.187 299.251 147.723 297.501L172.74 287.853C177.276 286.103 182.155 289.451 182.155 294.312V379.038ZM306.583 286.231C303.911 287.261 302.149 289.829 302.149 292.692V379.036C302.149 382.86 299.049 385.959 295.226 385.959H262.918C259.095 385.959 255.995 382.86 255.995 379.036V263.887C255.995 261.024 257.757 258.457 260.428 257.427L366.582 216.51C371.117 214.762 375.995 218.109 375.995 222.97V254.739C375.995 257.602 374.233 260.17 371.561 261.199L306.583 286.231Z" fill="white"/>
<defs>
<linearGradient id="paint0_linear_107_18892" x1="256" y1="-129.25" x2="256" y2="512" gradientUnits="userSpaceOnUse">
<stop stop-color="#FF9626"/>
<stop offset="1" stop-color="#E00505"/>
</linearGradient>
</defs>
</svg>
