<svg xmlns="http://www.w3.org/2000/svg" width="17" height="16" viewBox="0 0 17 16" fill="none">
  <path fill-rule="evenodd" clip-rule="evenodd"
    d="M6.59128 2.0926L6.59129 2.0926C6.78348 1.98704 6.97262 1.88315 7.15735 1.78368L8.66659 0.960442C8.88714 0.840139 9.08132 0.737416 9.25684 0.644566L9.25688 0.644541C9.4817 0.525611 9.6759 0.422879 9.85568 0.320147C10.2673 0.0914707 10.6789 0 10.999 0C11.3192 0 11.6393 0.0914707 11.868 0.182941C12.1424 0.320147 12.3711 0.503089 12.554 0.731766L13.5602 2.78986H5.28225C5.72358 2.56918 6.16492 2.32678 6.59128 2.0926ZM16.0303 13.9978C16.0303 14.2265 15.9846 14.4551 15.8931 14.6381C15.8016 14.821 15.7102 15.004 15.573 15.1869C15.4358 15.3241 15.2528 15.4613 15.0699 15.5528C14.8869 15.6443 14.6583 15.69 14.4296 15.69H2.49295C2.26428 15.69 2.03561 15.6443 1.85267 15.5528C1.624 15.4613 1.44106 15.3699 1.30386 15.1869C1.16666 15.0497 1.02945 14.8668 0.937984 14.6381C0.846516 14.4551 0.800781 14.2265 0.800781 13.9978V4.89646C0.800781 4.4391 0.983718 4.02748 1.30386 3.70734C1.624 3.38719 2.03561 3.20425 2.49295 3.20425H14.4753C14.9327 3.20425 15.3443 3.38719 15.6644 3.70734C15.9846 4.02748 16.1675 4.4391 16.1675 4.89646V7.36616H11.9142C11.4569 7.36616 11.0453 7.50337 10.7251 7.82352C10.405 8.14367 10.222 8.50955 10.222 9.01264C10.222 9.33278 10.3135 9.6072 10.405 9.83587C10.4965 10.0646 10.6794 10.2475 10.9081 10.3847C11.1367 10.5676 11.4569 10.6591 11.8685 10.6591H16.0303V13.9978ZM11.3197 8.41812C11.1825 8.60106 11.0911 8.784 11.0911 9.01268C11.0911 9.28709 11.1825 9.47003 11.3197 9.60724C11.5027 9.74445 11.6856 9.83592 11.9143 9.83592C12.1429 9.83592 12.3716 9.79018 12.5088 9.60724C12.646 9.4243 12.7375 9.24136 12.7375 9.01268C12.7375 8.784 12.646 8.55533 12.5088 8.41812C12.3259 8.28092 12.1429 8.18944 11.9143 8.18944C11.6856 8.18944 11.4569 8.28092 11.3197 8.41812Z"
    fill="black" />
</svg>