<svg width="30" height="30" viewBox="0 0 30 30" fill="none" xmlns="http://www.w3.org/2000/svg">
<path d="M3.87085 16.25C3.87085 19.2337 5.05611 22.0952 7.1659 24.205C9.27568 26.3147 12.1372 27.5 15.1208 27.5C15.1208 21.25 10.0833 16.25 3.87085 16.25ZM15.1208 6.875C15.9497 6.875 16.7445 7.20424 17.3306 7.79029C17.9166 8.37634 18.2458 9.1712 18.2458 10C18.2458 10.8288 17.9166 11.6237 17.3306 12.2097C16.7445 12.7958 15.9497 13.125 15.1208 13.125C14.292 13.125 13.4972 12.7958 12.9111 12.2097C12.3251 11.6237 11.9958 10.8288 11.9958 10C11.9958 9.1712 12.3251 8.37634 12.9111 7.79029C13.4972 7.20424 14.292 6.875 15.1208 6.875ZM7.12085 12.8125C7.12085 13.6413 7.45009 14.4362 8.03614 15.0222C8.62219 15.6083 9.41705 15.9375 10.2459 15.9375C10.9083 15.9375 11.5208 15.725 11.9958 15.3875V15.625C11.9958 16.4538 12.3251 17.2487 12.9111 17.8347C13.4972 18.4208 14.292 18.75 15.1208 18.75C15.9497 18.75 16.7445 18.4208 17.3306 17.8347C17.9166 17.2487 18.2458 16.4538 18.2458 15.625V15.3875C18.7208 15.725 19.3333 15.9375 19.9958 15.9375C20.8246 15.9375 21.6195 15.6083 22.2056 15.0222C22.7916 14.4362 23.1208 13.6413 23.1208 12.8125C23.1208 11.5625 22.3833 10.5 21.3333 10C22.3833 9.5 23.1208 8.425 23.1208 7.1875C23.1208 6.3587 22.7916 5.56384 22.2056 4.97779C21.6195 4.39174 20.8246 4.0625 19.9958 4.0625C19.3333 4.0625 18.7208 4.2625 18.2458 4.6125V4.375C18.2458 3.5462 17.9166 2.75134 17.3306 2.16529C16.7445 1.57924 15.9497 1.25 15.1208 1.25C14.292 1.25 13.4972 1.57924 12.9111 2.16529C12.3251 2.75134 11.9958 3.5462 11.9958 4.375V4.6125C11.5208 4.2625 10.9083 4.0625 10.2459 4.0625C9.41705 4.0625 8.62219 4.39174 8.03614 4.97779C7.45009 5.56384 7.12085 6.3587 7.12085 7.1875C7.12085 8.425 7.85835 9.5 8.90835 10C7.85835 10.5 7.12085 11.5625 7.12085 12.8125ZM15.1208 27.5C18.1045 27.5 20.966 26.3147 23.0758 24.205C25.1856 22.0952 26.3708 19.2337 26.3708 16.25C20.1208 16.25 15.1208 21.25 15.1208 27.5Z" fill="currentColor"/>
</svg>
