<svg width="52" height="52" viewBox="0 0 52 52" fill="none" xmlns="http://www.w3.org/2000/svg">
<path d="M6.5 28.1667C6.5 33.3384 8.55446 38.2983 12.2114 41.9553C15.8684 45.6122 20.8283 47.6667 26 47.6667C26 36.8334 17.2683 28.1667 6.5 28.1667ZM26 11.9167C27.4366 11.9167 28.8143 12.4874 29.8302 13.5032C30.846 14.519 31.4167 15.8968 31.4167 17.3334C31.4167 18.7699 30.846 20.1477 29.8302 21.1635C28.8143 22.1793 27.4366 22.75 26 22.75C24.5634 22.75 23.1857 22.1793 22.1698 21.1635C21.154 20.1477 20.5833 18.7699 20.5833 17.3334C20.5833 15.8968 21.154 14.519 22.1698 13.5032C23.1857 12.4874 24.5634 11.9167 26 11.9167ZM12.1333 22.2084C12.1333 23.6449 12.704 25.0227 13.7198 26.0385C14.7357 27.0543 16.1134 27.625 17.55 27.625C18.6983 27.625 19.76 27.2567 20.5833 26.6717V27.0834C20.5833 28.5199 21.154 29.8977 22.1698 30.9135C23.1857 31.9293 24.5634 32.5 26 32.5C27.4366 32.5 28.8143 31.9293 29.8302 30.9135C30.846 29.8977 31.4167 28.5199 31.4167 27.0834V26.6717C32.24 27.2567 33.3017 27.625 34.45 27.625C35.8866 27.625 37.2643 27.0543 38.2802 26.0385C39.296 25.0227 39.8667 23.6449 39.8667 22.2084C39.8667 20.0417 38.5883 18.2 36.7683 17.3334C38.5883 16.4667 39.8667 14.6034 39.8667 12.4584C39.8667 11.0218 39.296 9.64401 38.2802 8.62819C37.2643 7.61237 35.8866 7.04169 34.45 7.04169C33.3017 7.04169 32.24 7.38835 31.4167 7.99502V7.58335C31.4167 6.14676 30.846 4.76901 29.8302 3.75319C28.8143 2.73737 27.4366 2.16669 26 2.16669C24.5634 2.16669 23.1857 2.73737 22.1698 3.75319C21.154 4.76901 20.5833 6.14676 20.5833 7.58335V7.99502C19.76 7.38835 18.6983 7.04169 17.55 7.04169C16.1134 7.04169 14.7357 7.61237 13.7198 8.62819C12.704 9.64401 12.1333 11.0218 12.1333 12.4584C12.1333 14.6034 13.4117 16.4667 15.2317 17.3334C13.4117 18.2 12.1333 20.0417 12.1333 22.2084ZM26 47.6667C31.1717 47.6667 36.1316 45.6122 39.7886 41.9553C43.4455 38.2983 45.5 33.3384 45.5 28.1667C34.6667 28.1667 26 36.8334 26 47.6667Z" fill="black"/>
</svg>
