<svg width="52" height="52" viewBox="0 0 52 52" fill="none" xmlns="http://www.w3.org/2000/svg">
<path d="M40.3223 11.3933C37.8706 7.19062 34.515 4.875 30.875 4.875H21.125C17.485 4.875 14.1294 7.19062 11.6777 11.3933C9.38641 15.3197 8.125 20.5156 8.125 26C8.125 31.4844 9.38641 36.6803 11.6777 40.6067C14.1294 44.8094 17.485 47.125 21.125 47.125H30.875C34.515 47.125 37.8706 44.8094 40.3223 40.6067C42.6136 36.6803 43.875 31.4844 43.875 26C43.875 20.5156 42.6136 15.3197 40.3223 11.3933ZM40.5823 24.375H34.0823C33.9553 21.0404 33.2914 17.7482 32.1161 14.625H38.3297C39.5728 17.3428 40.3934 20.7188 40.5823 24.375ZM36.398 11.375H30.5622C29.8837 10.1974 29.0652 9.10612 28.1247 8.125H30.875C32.9062 8.125 34.8156 9.34375 36.398 11.375ZM30.875 43.875H28.1308C29.0713 42.8939 29.8898 41.8026 30.5683 40.625H36.4041C34.8156 42.6562 32.9062 43.875 30.875 43.875ZM38.3297 37.375H32.1181C33.2934 34.2518 33.9574 30.9596 34.0844 27.625H40.5844C40.3934 31.2812 39.5728 34.6572 38.3297 37.375Z" fill="black"/>
</svg>
