<svg width="52" height="52" viewBox="0 0 52 52" fill="none" xmlns="http://www.w3.org/2000/svg">
<path fill-rule="evenodd" clip-rule="evenodd" d="M26.0001 9.75004C26.7184 9.75004 27.4072 9.4647 27.9152 8.95679C28.4231 8.44888 28.7084 7.76 28.7084 7.04171C28.7084 6.32341 28.4231 5.63454 27.9152 5.12663C27.4072 4.61872 26.7184 4.33337 26.0001 4.33337C25.2818 4.33337 24.5929 4.61872 24.085 5.12663C23.5771 5.63454 23.2917 6.32341 23.2917 7.04171C23.2917 7.76 23.5771 8.44888 24.085 8.95679C24.5929 9.4647 25.2818 9.75004 26.0001 9.75004ZM26.0001 47.6667C26.7187 47.6667 27.4078 47.3813 27.9159 46.8731C28.424 46.365 28.7095 45.6759 28.7095 44.9573C28.7095 44.2387 28.424 43.5496 27.9159 43.0414C27.4078 42.5333 26.7187 42.2479 26.0001 42.2479C25.2815 42.2479 24.5923 42.5333 24.0842 43.0414C23.5761 43.5496 23.2907 44.2387 23.2907 44.9573C23.2907 45.6759 23.5761 46.365 24.0842 46.8731C24.5923 47.3813 25.2815 47.6667 26.0001 47.6667ZM28.7084 16.5209C28.7084 17.2392 28.4231 17.928 27.9152 18.436C27.4072 18.9439 26.7184 19.2292 26.0001 19.2292C25.2818 19.2292 24.5929 18.9439 24.085 18.436C23.5771 17.928 23.2917 17.2392 23.2917 16.5209C23.2917 15.8026 23.5771 15.1137 24.085 14.6058C24.5929 14.0979 25.2818 13.8125 26.0001 13.8125C26.7184 13.8125 27.4072 14.0979 27.9152 14.6058C28.4231 15.1137 28.7084 15.8026 28.7084 16.5209ZM17.1969 13.8125C17.7356 13.8125 18.2523 13.5985 18.6332 13.2176C19.0142 12.8367 19.2282 12.32 19.2282 11.7813C19.2282 11.2426 19.0142 10.7259 18.6332 10.345C18.2523 9.96405 17.7356 9.75004 17.1969 9.75004C16.6582 9.75004 16.1415 9.96405 15.7606 10.345C15.3797 10.7259 15.1657 11.2426 15.1657 11.7813C15.1657 12.32 15.3797 12.8367 15.7606 13.2176C16.1415 13.5985 16.6582 13.8125 17.1969 13.8125ZM19.2292 40.2177C19.2292 40.7567 19.0151 41.2736 18.634 41.6548C18.2529 42.0359 17.7359 42.25 17.1969 42.25C16.6579 42.25 16.141 42.0359 15.7598 41.6548C15.3787 41.2736 15.1646 40.7567 15.1646 40.2177C15.1646 39.6787 15.3787 39.1618 15.7598 38.7806C16.141 38.3995 16.6579 38.1854 17.1969 38.1854C17.7359 38.1854 18.2529 38.3995 18.634 38.7806C19.0151 39.1618 19.2292 39.6787 19.2292 40.2177ZM34.1251 24.6459C34.8434 24.6459 35.5323 24.3605 36.0402 23.8526C36.5481 23.3447 36.8334 22.6558 36.8334 21.9375C36.8334 21.2192 36.5481 20.5304 36.0402 20.0225C35.5323 19.5145 34.8434 19.2292 34.1251 19.2292C33.4068 19.2292 32.7179 19.5145 32.21 20.0225C31.7021 20.5304 31.4167 21.2192 31.4167 21.9375C31.4167 22.6558 31.7021 23.3447 32.21 23.8526C32.7179 24.3605 33.4068 24.6459 34.1251 24.6459ZM36.8334 30.0625C36.8437 30.4245 36.7812 30.7849 36.6498 31.1223C36.5183 31.4597 36.3205 31.7673 36.0681 32.0269C35.8157 32.2866 35.5138 32.493 35.1803 32.6339C34.8467 32.7749 34.4883 32.8475 34.1262 32.8475C33.7641 32.8475 33.4056 32.7749 33.0721 32.6339C32.7385 32.493 32.4366 32.2866 32.1842 32.0269C31.9318 31.7673 31.734 31.4597 31.6026 31.1223C31.4711 30.7849 31.4087 30.4245 31.4189 30.0625C31.4389 29.3578 31.7328 28.6886 32.2384 28.1972C32.7439 27.7057 33.4211 27.4308 34.1262 27.4308C34.8312 27.4308 35.5084 27.7057 36.014 28.1972C36.5195 28.6886 36.8135 29.3578 36.8334 30.0625ZM26.0001 38.1875C26.7187 38.1875 27.4078 37.9021 27.9159 37.394C28.424 36.8859 28.7095 36.1967 28.7095 35.4781C28.7095 34.7595 28.424 34.0704 27.9159 33.5623C27.4078 33.0542 26.7187 32.7687 26.0001 32.7687C25.2815 32.7687 24.5923 33.0542 24.0842 33.5623C23.5761 34.0704 23.2907 34.7595 23.2907 35.4781C23.2907 36.1967 23.5761 36.8859 24.0842 37.394C24.5923 37.9021 25.2815 38.1875 26.0001 38.1875ZM28.0021 26C28.0027 26.5326 27.7924 27.0437 27.4173 27.4217C27.0421 27.7997 26.5326 28.0138 26.0001 28.0172C25.7361 28.0164 25.4749 27.9635 25.2315 27.8616C24.988 27.7598 24.7669 27.6109 24.581 27.4236C24.3951 27.2362 24.2479 27.0141 24.1479 26.7698C24.0478 26.5256 23.9969 26.264 23.9981 26C23.9981 24.8864 24.8951 23.9829 26.0001 23.9829C27.1051 23.9829 28.0021 24.8864 28.0021 25.9979M17.1969 32.7275C17.7353 32.7275 18.2517 32.5136 18.6325 32.1329C19.0132 31.7522 19.2271 31.2358 19.2271 30.6974C19.2271 30.1589 19.0132 29.6426 18.6325 29.2618C18.2517 28.8811 17.7353 28.6672 17.1969 28.6672C16.6585 28.6672 16.1421 28.8811 15.7614 29.2618C15.3806 29.6426 15.1667 30.1589 15.1667 30.6974C15.1667 31.2358 15.3806 31.7522 15.7614 32.1329C16.1421 32.5136 16.6585 32.7275 17.1969 32.7275ZM19.2292 21.1792C19.2381 21.4515 19.1922 21.7229 19.0941 21.9771C18.996 22.2313 18.8478 22.4632 18.6583 22.659C18.4688 22.8548 18.2419 23.0105 17.991 23.1168C17.7402 23.2231 17.4705 23.2779 17.198 23.2779C16.9255 23.2779 16.6558 23.2231 16.405 23.1168C16.1541 23.0105 15.9271 22.8548 15.7377 22.659C15.5482 22.4632 15.4 22.2313 15.3019 21.9771C15.2038 21.7229 15.1579 21.4515 15.1667 21.1792C15.184 20.652 15.4055 20.1521 15.7846 19.7852C16.1636 19.4183 16.6705 19.2132 17.198 19.2132C17.7255 19.2132 18.2324 19.4183 18.6114 19.7852C18.9905 20.1521 19.212 20.652 19.2292 21.1792ZM8.39591 17.8729C8.75506 17.8729 9.0995 17.7302 9.35346 17.4762C9.60741 17.2223 9.75008 16.8779 9.75008 16.5187C9.75008 16.1596 9.60741 15.8151 9.35346 15.5612C9.0995 15.3072 8.75506 15.1645 8.39591 15.1645C8.03677 15.1645 7.69233 15.3072 7.43837 15.5612C7.18442 15.8151 7.04175 16.1596 7.04175 16.5187C7.04175 16.8779 7.18442 17.2223 7.43837 17.4762C7.69233 17.7302 8.03677 17.8729 8.39591 17.8729ZM9.75008 26C9.75008 26.3592 9.60741 26.7036 9.35346 26.9576C9.0995 27.2115 8.75506 27.3542 8.39591 27.3542C8.03677 27.3542 7.69233 27.2115 7.43837 26.9576C7.18442 26.7036 7.04175 26.3592 7.04175 26C7.04175 25.6409 7.18442 25.2965 7.43837 25.0425C7.69233 24.7885 8.03677 24.6459 8.39591 24.6459C8.75506 24.6459 9.0995 24.7885 9.35346 25.0425C9.60741 25.2965 9.75008 25.6409 9.75008 26ZM8.39591 36.8334C8.75506 36.8334 9.0995 36.6907 9.35346 36.4367C9.60741 36.1828 9.75008 35.8384 9.75008 35.4792C9.75008 35.1201 9.60741 34.7756 9.35346 34.5217C9.0995 34.2677 8.75506 34.125 8.39591 34.125C8.03677 34.125 7.69233 34.2677 7.43837 34.5217C7.18442 34.7756 7.04175 35.1201 7.04175 35.4792C7.04175 35.8384 7.18442 36.1828 7.43837 36.4367C7.69233 36.6907 8.03677 36.8334 8.39591 36.8334ZM36.8334 12.4584C36.8334 13.1767 36.5481 13.8655 36.0402 14.3735C35.5323 14.8814 34.8434 15.1667 34.1251 15.1667C33.4068 15.1667 32.7179 14.8814 32.21 14.3735C31.7021 13.8655 31.4167 13.1767 31.4167 12.4584C31.4167 11.7401 31.7021 11.0512 32.21 10.5433C32.7179 10.0354 33.4068 9.75004 34.1251 9.75004C34.8434 9.75004 35.5323 10.0354 36.0402 10.5433C36.5481 11.0512 36.8334 11.7401 36.8334 12.4584ZM34.1251 42.25C34.487 42.2603 34.8474 42.1978 35.1848 42.0664C35.5222 41.9349 35.8298 41.7372 36.0895 41.4848C36.3491 41.2324 36.5555 40.9305 36.6965 40.5969C36.8374 40.2633 36.91 39.9049 36.91 39.5428C36.91 39.1807 36.8374 38.8223 36.6965 38.4887C36.5555 38.1551 36.3491 37.8532 36.0895 37.6008C35.8298 37.3484 35.5222 37.1506 35.1848 37.0192C34.8474 36.8878 34.487 36.8253 34.1251 36.8355C33.4203 36.8555 32.7511 37.1495 32.2597 37.655C31.7683 38.1605 31.4933 38.8378 31.4933 39.5428C31.4933 40.2478 31.7683 40.9251 32.2597 41.4306C32.7511 41.9361 33.4203 42.2301 34.1251 42.25ZM44.9584 17.1969C44.9698 17.6487 44.8907 18.0982 44.7257 18.5189C44.5607 18.9396 44.3132 19.3231 43.9977 19.6467C43.6822 19.9702 43.3051 20.2274 42.8887 20.403C42.4723 20.5786 42.0249 20.669 41.573 20.669C41.1211 20.669 40.6737 20.5786 40.2573 20.403C39.8409 20.2274 39.4638 19.9702 39.1483 19.6467C38.8328 19.3231 38.5853 18.9396 38.4203 18.5189C38.2553 18.0982 38.1761 17.6487 38.1876 17.1969C38.2099 16.3138 38.5764 15.4745 39.2089 14.8578C39.8413 14.2412 40.6897 13.896 41.573 13.896C42.4563 13.896 43.3047 14.2412 43.9371 14.8578C44.5696 15.4745 44.9361 16.3138 44.9584 17.1969ZM41.5741 38.1875C42.4717 38.1875 43.3325 37.831 43.9672 37.1963C44.6019 36.5616 44.9584 35.7008 44.9584 34.8032C44.9584 33.9056 44.6019 33.0448 43.9672 32.4101C43.3325 31.7754 42.4717 31.4189 41.5741 31.4189C40.6765 31.4189 39.8157 31.7754 39.181 32.4101C38.5463 33.0448 38.1897 33.9056 38.1897 34.8032C38.1897 35.7008 38.5463 36.5616 39.181 37.1963C39.8157 37.831 40.6765 38.1875 41.5741 38.1875ZM44.9584 26C44.9584 26.8979 44.6017 27.759 43.9668 28.3939C43.332 29.0288 42.4709 29.3855 41.573 29.3855C40.6751 29.3855 39.814 29.0288 39.1791 28.3939C38.5443 27.759 38.1876 26.8979 38.1876 26C38.1876 25.1022 38.5443 24.2411 39.1791 23.6062C39.814 22.9713 40.6751 22.6146 41.573 22.6146C42.4709 22.6146 43.332 22.9713 43.9668 23.6062C44.6017 24.2411 44.9584 25.1022 44.9584 26Z" fill="black"/>
</svg>
