<svg width="52" height="52" viewBox="0 0 52 52" fill="none" xmlns="http://www.w3.org/2000/svg">
<path d="M41.0642 3.35402C41.5518 2.86659 42.213 2.59277 42.9024 2.59277C43.5918 2.59277 44.253 2.86659 44.7406 3.35402L48.6484 7.26182C49.1358 7.74939 49.4096 8.41059 49.4096 9.10002C49.4096 9.78945 49.1358 10.4506 48.6484 10.9382L44.7406 14.846C44.253 15.3334 43.5918 15.6073 42.9024 15.6073C42.213 15.6073 41.5518 15.3334 41.0642 14.846L37.1538 10.9382C36.6664 10.4506 36.3926 9.78945 36.3926 9.10002C36.3926 8.41059 36.6664 7.74939 37.1538 7.26182L41.0642 3.35402ZM14.2998 44.2H18.1998V33.8H7.7998V37.7C7.7998 39.4239 8.48462 41.0772 9.70361 42.2962C10.9226 43.5152 12.5759 44.2 14.2998 44.2ZM18.1998 20.8V31.2H7.7998V20.8H18.1998ZM31.1998 31.2H20.7998V20.8H31.1998V31.2ZM20.7998 33.8H31.1998V44.2H20.7998V33.8ZM33.7998 20.8V31.2H44.1998V20.8H33.7998ZM33.7998 33.8H44.1998V37.7C44.1998 39.4239 43.515 41.0772 42.296 42.2962C41.077 43.5152 39.4237 44.2 37.6998 44.2H33.7998V33.8ZM7.7998 18.2H18.1998V7.80002H14.2998C12.5759 7.80002 10.9226 8.48484 9.70361 9.70382C8.48462 10.9228 7.7998 12.5761 7.7998 14.3V18.2ZM20.7998 18.2V7.80002H31.1998V18.2H20.7998Z" fill="black"/>
</svg>
