<svg width="98" height="99" viewBox="0 0 98 99" fill="none" xmlns="http://www.w3.org/2000/svg">
<path d="M50.0616 66.9902C46.7143 70.3376 46.7143 75.0714 46.7143 75.0714C46.7143 76.3338 47.7376 77.3571 49 77.3571C50.2624 77.3571 51.2857 76.3338 51.2857 75.0714C51.2857 72.2311 53.2941 70.2227 53.2941 70.2227C55.3025 68.2143 58.1429 68.2143 58.1429 68.2143H76.4286C78.3221 68.2143 79.6611 66.8754 79.6611 66.8754C81 65.5364 81 63.6429 81 63.6429V27.0714C81 25.1779 79.6611 23.8389 79.6611 23.8389C78.3221 22.5 76.4286 22.5 76.4286 22.5H58.1429C53.409 22.5 50.0616 25.8474 50.0616 25.8474C46.7143 29.1947 46.7143 33.9286 46.7143 33.9286C46.7143 35.1909 47.7376 36.2143 49 36.2143C49.6062 36.2143 50.1876 35.9735 50.6162 35.5448C51.0449 35.1162 51.2857 34.5348 51.2857 33.9286C51.2857 31.0883 53.2941 29.0798 53.2941 29.0798C55.3025 27.0714 58.1429 27.0714 58.1429 27.0714H76.4286V63.6429H58.1429C53.409 63.6429 50.0616 66.9902 50.0616 66.9902Z" fill="white"/>
<path fill-rule="evenodd" clip-rule="evenodd" d="M17 27.0714C17 27.0714 17 25.1779 18.3389 23.8389C18.3389 23.8389 19.6779 22.5 21.5714 22.5H39.8571C39.8571 22.5 44.591 22.5 47.9384 25.8474C47.9384 25.8474 51.2857 29.1947 51.2857 33.9286V75.0714C51.2857 76.3338 50.2624 77.3571 49 77.3571C47.7376 77.3571 46.7143 76.3338 46.7143 75.0714C46.7143 75.0714 46.7143 72.2311 44.7059 70.2227C44.7059 70.2227 42.6975 68.2143 39.8571 68.2143H21.5714C21.5714 68.2143 19.6779 68.2143 18.3389 66.8754C18.3389 66.8754 17 65.5364 17 63.6429V27.0714ZM46.7143 33.9286V65.9134C46.7143 65.9134 43.756 63.6429 39.8571 63.6429H21.5714V27.0714H39.8571C39.8571 27.0714 42.6975 27.0714 44.7059 29.0798C44.7059 29.0798 46.7143 31.0882 46.7143 33.9286Z" fill="white"/>
</svg>
