<svg width="99" height="98" viewBox="0 0 99 98" fill="none" xmlns="http://www.w3.org/2000/svg">
<path d="M50.5077 74.2276L74.5077 60.2276C74.9659 59.9603 75.2992 59.522 75.4341 59.009C75.4779 58.8429 75.5 58.6718 75.5 58.5C75.5 58.476 75.4996 58.452 75.4987 58.428C75.4868 58.0985 75.3937 57.7771 75.2276 57.4923C74.8691 56.8778 74.2113 56.5 73.5 56.5C73.1457 56.5 72.7981 56.5941 72.4923 56.7724L49.5 70.1846L26.508 56.7726C26.2019 56.594 25.8541 56.5 25.5 56.5C25.466 56.5 25.4321 56.5009 25.3981 56.5026C24.7239 56.537 24.1126 56.9091 23.7724 57.4923C23.594 57.7981 23.5 58.1459 23.5 58.5C23.5 58.534 23.5009 58.5679 23.5026 58.6019C23.537 59.2761 23.9091 59.8874 24.4923 60.2276L48.4923 74.2276C49.115 74.5908 49.885 74.5908 50.5077 74.2276Z" fill="white"/>
<path d="M50.5077 62.2276L74.5077 48.2276C74.9659 47.9603 75.2992 47.522 75.4341 47.009C75.4779 46.8429 75.5 46.6718 75.5 46.5C75.5 46.476 75.4996 46.452 75.4987 46.428C75.4868 46.0985 75.3937 45.7771 75.2276 45.4923C74.8691 44.8778 74.2113 44.5 73.5 44.5C73.1457 44.5 72.7981 44.5941 72.4923 44.7724L49.5 58.1846L26.508 44.7726C26.2019 44.594 25.8541 44.5 25.5 44.5C25.466 44.5 25.4321 44.5009 25.3981 44.5026C24.7239 44.537 24.1126 44.9091 23.7724 45.4923C23.594 45.7981 23.5 46.1459 23.5 46.5C23.5 46.534 23.5009 46.5679 23.5026 46.6019C23.537 47.2761 23.9091 47.8874 24.4923 48.2276L48.4923 62.2276C49.115 62.5908 49.885 62.5908 50.5077 62.2276Z" fill="white"/>
<path fill-rule="evenodd" clip-rule="evenodd" d="M48.4922 18.7724C49.1149 18.4092 49.885 18.4092 50.5077 18.7724L74.5077 32.7724C74.8057 32.9463 75.0537 33.1943 75.2275 33.4923C75.7841 34.4464 75.4618 35.671 74.5077 36.2276L50.5077 50.2276C49.885 50.5908 49.1149 50.5908 48.4922 50.2276L24.4922 36.2276C24.1942 36.0537 23.9462 35.8057 23.7724 35.5077C23.2158 34.5536 23.5381 33.329 24.4922 32.7724L48.4922 18.7724ZM29.4692 34.5L49.5 22.8154L69.5307 34.5L49.5 46.1846L29.4692 34.5Z" fill="white"/>
</svg>
