<svg width="99" height="98" viewBox="0 0 99 98" fill="none" xmlns="http://www.w3.org/2000/svg">
<path fill-rule="evenodd" clip-rule="evenodd" d="M25.7732 50.0093C25.7732 50.0093 24.3888 49.7253 23.5046 48.6702C23.5046 48.6702 22.7 47.7101 22.5835 46.4426C22.5835 46.4426 22.4664 45.17 23.0881 44.0809C23.0881 44.0809 23.7729 42.8812 25.0939 42.3635L71.2521 24.2353C71.2521 24.2353 72.2843 23.8352 73.3754 24.0226C73.3754 24.0226 74.4664 24.2101 75.3058 24.9319C75.3058 24.9319 76.1452 25.6536 76.4941 26.7042C76.4941 26.7042 76.843 27.7548 76.5996 28.8465L67.1994 69.8976C67.1994 69.8976 66.9625 70.9294 66.2463 71.7089C66.2463 71.7089 65.53 72.4884 64.522 72.8116C64.522 72.8116 63.5139 73.1348 62.4779 72.9171C62.4779 72.9171 61.442 72.6993 60.6539 72.0016L38.5811 52.5805L25.7814 50.011L25.7732 50.0093ZM26.5687 46.0892L39.8937 48.7642C40.2378 48.8333 40.5577 48.9917 40.8212 49.2236L63.2962 68.9986L63.3008 69.0026L72.698 27.9649L26.5562 46.0867L26.5687 46.0892Z" fill="white"/>
<path d="M74.6954 27.7717C75.216 27.3957 75.525 26.7921 75.525 26.1499C75.525 26.1189 75.5243 26.0879 75.5228 26.057C75.5048 25.6686 75.3739 25.294 75.1463 24.9789C74.8358 24.5489 74.3671 24.2599 73.8434 24.1754C73.7381 24.1584 73.6317 24.1499 73.525 24.1499C73.502 24.1499 73.4789 24.1503 73.4559 24.1511C73.0593 24.1648 72.6757 24.2962 72.354 24.5286L38.3301 49.1027C37.9001 49.4133 37.61 49.8828 37.5255 50.4065C37.5085 50.5118 37.5 50.6183 37.5 50.7249C37.5 50.7479 37.5004 50.771 37.5012 50.794C37.5149 51.1906 37.6463 51.5742 37.8787 51.8959C38.2547 52.4165 38.8578 52.7249 39.5 52.7249C39.531 52.7249 39.562 52.7242 39.5929 52.7227C39.9813 52.7047 40.3559 52.5738 40.671 52.3462L74.6954 27.7717Z" fill="white"/>
<path d="M41.5 66.9967V50.7251C41.5 49.6205 40.6046 48.7251 39.5 48.7251C38.3954 48.7251 37.5 49.6203 37.5 50.7249V67.0001C37.502 68.2201 38.1812 69.2296 38.1812 69.2296C38.8603 70.239 39.9865 70.6994 39.9865 70.6994C41.1127 71.1597 42.3045 70.915 42.3045 70.915C43.4963 70.6703 44.35 69.8034 44.35 69.8034L52.1392 62.0143C52.5143 61.6392 52.725 61.1305 52.725 60.6001C52.725 60.0697 52.5143 59.561 52.1392 59.1859C51.7641 58.8108 51.2554 58.6001 50.725 58.6001C50.1946 58.6001 49.6859 58.8108 49.3108 59.1859L41.5 66.9967Z" fill="white"/>
</svg>
