<svg width="26" height="24" viewBox="0 0 26 24" fill="none" xmlns="http://www.w3.org/2000/svg">
<path d="M21.1081 11.9875L21.9688 10.9771L21.5946 10.7027L22.1933 10.1539L21.7318 9.80459L22.3305 9.35552L21.9438 9.05615L22.5675 6.01249L21.6195 3.19336M21.6195 3.19336L15.5322 5.45116H10.4553L4.36795 3.19336L3.41992 6.01249L4.0561 9.05615L3.65693 9.35552L4.26815 9.80459L3.80662 10.1539L4.40537 10.7027L4.03115 10.9771L4.89186 11.9875L3.58208 16.0291L4.79206 20.158L9.0457 18.9855L9.86899 19.6591L11.553 20.8067H14.4345L16.1185 19.6591L16.9418 18.9855L21.2079 20.158L22.4303 16.0291L21.1081 11.9875" fill="#F5841F"/>
<path d="M21.6194 3.19336L14.1475 8.6944L15.5321 5.45116L21.6194 3.19336Z" fill="#E27625"/>
<path d="M4.36792 3.19336L11.7775 8.7443L10.4552 5.45116L4.36792 3.19336Z" fill="#E27625"/>
<path d="M18.9375 15.9543L16.9417 18.9731L21.2078 20.1456L22.4302 16.0167L18.9375 15.9543Z" fill="#E27625"/>
<path d="M3.58203 16.0167L4.79201 20.1456L9.04565 18.9731L7.06228 15.9543L3.58203 16.0167Z" fill="#E27625"/>
<path d="M8.82126 10.8399L7.63623 12.6236L11.8524 12.8108L11.7152 8.29517L8.82126 10.8399Z" fill="#E27625"/>
<path d="M17.1786 10.84L14.2348 8.24536L14.1475 12.8108L18.3637 12.6237L17.1786 10.84Z" fill="#E27625"/>
<path d="M9.04565 18.9729L11.6028 17.7504L9.39493 16.054L9.04565 18.9729Z" fill="#E27625"/>
<path d="M14.397 17.7504L16.9417 18.9729L16.5924 16.054L14.397 17.7504Z" fill="#E27625"/>
<path d="M16.9417 18.9729L14.397 17.7505L14.609 19.3971L14.5841 20.0956L16.9417 18.9729Z" fill="#D7C1B3"/>
<path d="M9.04565 18.9729L11.4157 20.0956L11.4032 19.3971L11.6028 17.7505L9.04565 18.9729Z" fill="#D7C1B3"/>
<path d="M11.4531 14.9562L9.34497 14.345L10.8419 13.6589L11.4531 14.9562Z" fill="#2F343B"/>
<path d="M14.5342 14.9562L15.1579 13.6589L16.6548 14.345L14.5342 14.9562Z" fill="#2F343B"/>
<path d="M9.04562 18.9731L9.41984 15.9543L7.06226 16.0167L9.04562 18.9731Z" fill="#CC6228"/>
<path d="M16.5801 15.9543L16.9418 18.9731L18.9377 16.0167L16.5801 15.9543Z" fill="#CC6228"/>
<path d="M18.3637 12.6238L14.1475 12.8109L14.5342 14.9564L15.1579 13.6591L16.6547 14.3452L18.3637 12.6238Z" fill="#CC6228"/>
<path d="M9.34517 14.3452L10.8421 13.6591L11.4533 14.9564L11.8524 12.8109L7.63623 12.6238L9.34517 14.3452Z" fill="#CC6228"/>
<path d="M7.63623 12.6238L9.39507 16.0541L9.34517 14.3452L7.63623 12.6238Z" fill="#E27625"/>
<path d="M16.6549 14.3452L16.5925 16.0541L18.3638 12.6238L16.6549 14.3452Z" fill="#E27625"/>
<path d="M11.8523 12.8108L11.4531 14.9563L11.9521 17.501L12.0644 14.158L11.8523 12.8108Z" fill="#E27625"/>
<path d="M14.1476 12.8108L13.9355 14.1455L14.0353 17.501L14.5343 14.9563L14.1476 12.8108Z" fill="#E27625"/>
<path d="M14.5344 14.9564L14.0354 17.5011L14.3971 17.7506L16.5926 16.0542L16.6549 14.3452L14.5344 14.9564Z" fill="#F5841F"/>
<path d="M9.34497 14.3452L9.39487 16.0542L11.6028 17.7506L11.952 17.5011L11.4531 14.9564L9.34497 14.3452Z" fill="#F5841F"/>
<path d="M14.5841 20.0956L14.6091 19.397L14.4095 19.2349H11.5779L11.4032 19.397L11.4157 20.0956L9.04565 18.9729L9.86894 19.6465L11.5529 20.8066H14.4344L16.1184 19.6465L16.9417 18.9729L14.5841 20.0956Z" fill="#C0AD9E"/>
<path d="M14.3971 17.7505L14.0353 17.501H11.9522L11.6029 17.7505L11.4033 19.397L11.578 19.2349H14.4096L14.6091 19.397L14.3971 17.7505Z" fill="#2F343B"/>
<path d="M21.9438 9.05615L22.5675 6.01249L21.6194 3.19336L14.397 8.50729L17.1787 10.8399L21.108 11.9875L21.9687 10.9771L21.5945 10.7027L22.1932 10.1663L21.7317 9.80459L22.3304 9.35552L21.9438 9.05615Z" fill="#763E1A"/>
<path d="M3.41992 6.01249L4.0561 9.05615L3.65693 9.35552L4.25568 9.81706L3.79414 10.1663L4.3929 10.7027L4.01867 10.9771L4.89186 11.9875L8.82117 10.8399L11.6029 8.50729L4.36795 3.19336L3.41992 6.01249Z" fill="#763E1A"/>
<path d="M21.1081 11.9875L17.1788 10.8398L18.3638 12.6236L16.5925 16.054L18.9376 16.0166H22.4304L21.1081 11.9875Z" fill="#F5841F"/>
<path d="M8.82112 10.8398L4.8918 11.9875L3.58203 16.0166H7.06228L9.39492 16.054L7.63609 12.6236L8.82112 10.8398Z" fill="#F5841F"/>
<path d="M14.1476 12.8108L14.3971 8.5073L15.5322 5.45117H10.4553L11.6029 8.5073L11.8524 12.8108L11.9522 14.158V17.5011H14.0354L14.0478 14.158L14.1476 12.8108Z" fill="#F5841F"/>
</svg>
