<svg width="113" height="32" viewBox="0 0 113 32" fill="none" xmlns="http://www.w3.org/2000/svg">
<path d="M19.8019 3.88076C20.4244 3.46179 21.0589 3.0907 21.8489 3.0907C22.9383 3.07873 23.7882 3.50967 24.3987 4.38353C24.6142 4.69477 24.7938 4.73068 25.1409 4.63492C26.0148 4.3955 26.9126 4.22791 27.8224 4.28777C29.594 4.3955 30.5876 5.38907 30.6714 7.17271C30.7432 8.56131 30.2883 9.84218 29.7736 11.0871C29.4743 11.8293 29.0913 12.5356 28.7441 13.2538C28.3251 13.9242 27.8942 14.5826 27.4752 15.2529C26.0028 17.2161 24.4825 19.1314 22.6749 20.8193C20.173 23.1416 17.4437 25.0929 14.2714 26.3857C12.3681 27.1638 10.4049 27.7264 8.29801 27.3793C7.91494 27.3194 7.55582 27.1159 7.14881 27.1638C6.13129 26.5174 5.19757 25.7872 4.77859 24.5901C4.74268 24.5183 4.82648 24.3746 4.65888 24.3866C4.76662 23.9078 4.57509 23.4529 4.611 22.9621C4.74268 21.5376 5.24545 20.2687 5.9637 19.0596C7.61567 16.2824 9.86618 14.0319 12.3441 11.9969C14.3552 10.3449 16.498 8.87255 18.7246 7.51986C18.8682 7.43606 19.1555 7.41212 19.0478 7.12483C18.8203 6.5622 18.9041 5.96367 18.9041 5.3771C19.1555 4.85039 19.4428 4.34762 19.8019 3.88076ZM9.2437 23.7761C9.75844 23.7641 10.2732 23.7043 10.776 23.5606C12.9906 22.9381 15.0136 21.9086 16.9649 20.7116C20.6758 18.4491 24.1713 15.9113 27.0323 12.5835C28.2533 11.159 29.3067 9.61473 29.8574 7.79518C30.2285 6.52629 29.9292 4.87433 27.8942 4.56309C27.0084 4.43142 26.1584 4.57506 25.2965 4.71871C24.8895 4.79054 24.7219 4.92221 24.8536 5.41301C25.2247 6.83753 24.5065 8.26204 23.1897 8.87255C21.8729 9.47108 20.3047 9.07605 19.4907 7.87898C19.2393 7.50789 19.0957 7.53183 18.7724 7.75927C14.7981 10.5245 11.6498 14.0439 9.27961 18.2456C8.56136 19.5145 7.95085 20.8552 7.86706 22.3516C7.79523 23.6923 8.14239 23.7761 9.08808 23.7641C9.13596 23.7761 9.18384 23.7761 9.2437 23.7761Z" fill="#3DB0D6"/>
<path d="M19.8022 3.88072C19.4431 4.34758 19.1558 4.85035 18.9283 5.38903C17.1447 4.80246 15.3131 4.63487 13.4457 4.88626C5.48511 5.95165 0.505258 14.1037 3.22263 21.6452C3.56978 22.6149 3.95285 23.5965 4.68307 24.3746C4.65912 24.4823 4.68307 24.5541 4.80277 24.5781C5.22175 25.7751 6.1435 26.5054 7.17299 27.1518C9.31576 28.9953 11.8416 29.905 14.6308 30.0008C20.3049 30.2163 25.3447 26.6969 27.1163 21.322C27.7747 19.3349 27.9902 17.2999 27.4994 15.2289C27.9184 14.5586 28.3493 13.9002 28.7683 13.2298C29.4028 14.9895 29.5943 16.8211 29.3788 18.6526C28.6845 24.5302 25.596 28.696 20.0655 30.7909C11.6381 33.987 2.44453 28.5643 0.98409 19.6821C-0.284814 11.9729 5.01825 4.53911 12.7035 3.28218C15.1216 2.89912 17.4798 3.06671 19.8022 3.88072Z" fill="#373738"/>
<path d="M72.7608 13.7805C70.235 13.7805 67.6971 13.7925 65.1713 13.7685C64.7404 13.7685 64.6685 13.9002 64.7045 14.2953C65.0037 17.5393 67.745 20.2567 71.025 20.544C73.2636 20.7475 75.3585 20.4003 77.178 18.9878C77.8005 18.497 78.3272 17.9224 78.7462 17.252C78.9258 16.9647 79.0933 16.9408 79.3328 17.1563C79.3806 17.2041 79.4405 17.24 79.5003 17.2879C80.4221 17.9224 80.4221 17.9224 79.7158 18.8322C77.3815 21.8248 74.2332 22.7226 70.63 22.2558C66.8592 21.765 64.3214 19.6102 63.1842 16.0071C61.6878 11.2667 63.9623 6.31079 68.3675 4.59898C72.9044 2.83929 78.2195 4.43139 80.3742 9.36332C80.9488 10.6921 81.0446 12.0807 80.9488 13.5052C80.9249 13.8882 80.6735 13.8045 80.458 13.8045C78.7342 13.8045 76.9985 13.8045 75.2747 13.8045C74.4367 13.7805 73.5987 13.7805 72.7608 13.7805ZM71.875 12.1166C72.0545 12.1166 72.2341 12.1166 72.4136 12.1166C74.4966 12.1166 76.5795 12.1046 78.6624 12.1286C79.0455 12.1286 79.1412 12.0448 79.0814 11.6497C78.9377 10.7998 78.7222 9.97383 78.2913 9.23164C76.8309 6.68188 74.0058 5.22146 70.7976 5.72423C67.5774 6.21503 65.303 8.48946 64.7284 11.5899C64.6446 12.0088 64.7523 12.1405 65.1953 12.1405C67.4218 12.1046 69.6484 12.1166 71.875 12.1166Z" fill="#3DB0D6"/>
<path d="M110.48 18.6407C109.858 19.4427 109.271 20.0772 108.565 20.58C105.692 22.615 102.568 22.9262 99.3954 21.6214C96.2112 20.3046 94.3437 17.8267 93.9008 14.3672C93.2783 9.4472 96.2351 5.11381 100.916 4.13221C106.267 3.00696 110.66 6.05949 111.917 10.5006C112.18 11.4583 112.252 12.4279 112.264 13.4095C112.288 16.1149 112.264 18.8322 112.276 21.5376C112.276 21.9686 112.18 22.1242 111.713 22.1242C110.48 22.1002 110.48 22.1242 110.48 20.9032C110.48 20.1849 110.48 19.4906 110.48 18.6407ZM103.058 5.62855C98.7849 5.61657 95.6126 8.80078 95.6007 13.0983C95.5887 17.3718 98.761 20.6278 102.951 20.6398C107.248 20.6518 110.468 17.4556 110.468 13.1581C110.48 8.86064 107.296 5.64052 103.058 5.62855Z" fill="#3DB0D6"/>
<path d="M51.022 18.6766C49.5496 20.58 47.7659 21.7172 45.5394 22.1721C40.5356 23.2016 35.6634 20.149 34.61 15.241C33.401 9.62677 36.8845 5.08987 41.5052 4.12024C46.9998 2.97106 51.4769 6.23906 52.5662 10.8238C52.7458 11.6019 52.8296 12.404 52.8296 13.206C52.8296 16.0072 52.8176 18.7963 52.8415 21.5975C52.8415 22.0045 52.7338 22.1122 52.3388 22.1002C51.0339 22.0883 51.0339 22.1002 51.0339 20.7835C51.022 20.137 51.022 19.4787 51.022 18.6766ZM43.636 5.62855C39.4103 5.61658 36.1782 8.82473 36.1662 13.0384C36.1543 17.3838 39.3145 20.6398 43.5522 20.6398C47.8018 20.6518 51.022 17.4676 51.0339 13.2539C51.0339 8.8367 47.9335 5.62855 43.636 5.62855Z" fill="#3DB0D6"/>
<path d="M86.8261 11.7336C86.8261 13.3496 86.8261 14.9776 86.8261 16.5937C86.8261 19.0836 88.0472 20.3405 90.5371 20.4004C91.8778 20.4363 91.8898 20.4602 91.7461 21.789C91.7222 21.9805 91.6743 22.0763 91.4708 22.0882C89.9026 22.1481 88.3823 22.0284 87.0296 21.0827C85.5692 20.0532 85.0784 18.5808 85.0664 16.9049C85.0425 11.4343 85.0545 5.96371 85.0425 0.493092C85.0425 0.122 85.1622 0.0142639 85.5333 0.00229317C86.8142 -0.00967753 86.8142 -0.0216483 86.8142 1.27119C86.8142 2.03731 86.8381 2.80344 86.8022 3.56956C86.7782 4.02445 86.886 4.18007 87.3768 4.1681C88.6816 4.13219 89.9745 4.1681 91.2793 4.14416C91.6384 4.14416 91.7701 4.22795 91.7701 4.61102C91.7701 5.7602 91.782 5.7602 90.6328 5.7602C89.5315 5.7602 88.4182 5.77217 87.3169 5.74823C86.9219 5.73626 86.8022 5.844 86.8022 6.251C86.8381 8.09449 86.8261 9.91404 86.8261 11.7336Z" fill="#3DB0D6"/>
<path d="M58.6948 11.0631C58.6948 14.5346 58.6828 18.0062 58.7068 21.4777C58.7068 21.9445 58.623 22.1241 58.1082 22.1121C56.8992 22.0762 56.8992 22.1001 56.8992 20.8791C56.8992 14.1516 56.8992 7.41208 56.8872 0.68454C56.8872 0.193741 56.971 0.00220948 57.5097 0.0261509C58.6948 0.0740337 58.6948 0.0381216 58.6948 1.23519C58.6948 4.5032 58.6948 7.78317 58.6948 11.0631Z" fill="#3DB0D6"/>
<path d="M94.775 31.9761C93.8173 31.9761 92.8477 31.9641 91.89 31.988C91.5309 32 91.4471 31.8683 91.4591 31.5331C91.4711 30.1565 91.4711 28.7919 91.4591 27.4152C91.4591 27.092 91.5429 26.9843 91.8781 26.9962C93.8173 27.0082 95.7686 27.0082 97.7078 26.9962C98.067 26.9962 98.1029 27.1279 98.1148 27.4272C98.1388 27.7983 97.9712 27.8222 97.6839 27.8222C96.0678 27.8103 94.4398 27.8342 92.8238 27.8103C92.4287 27.8103 92.2252 27.8821 92.297 28.325C92.321 28.4447 92.321 28.5764 92.297 28.6961C92.2372 29.0672 92.4168 29.127 92.7519 29.127C94.368 29.1151 95.996 29.127 97.6121 29.1151C97.9233 29.1151 98.1268 29.1031 98.1268 29.546C98.1268 30.0129 97.8635 29.941 97.5881 29.941C95.9841 29.941 94.38 29.953 92.7759 29.9291C92.4287 29.9291 92.2731 29.977 92.2851 30.384C92.309 31.174 92.2851 31.186 93.0632 31.186C94.5954 31.186 96.1277 31.198 97.66 31.174C98.0071 31.174 98.1148 31.2578 98.1148 31.6169C98.1268 32 97.9473 32 97.6719 32C96.7023 31.9641 95.7327 31.9761 94.775 31.9761Z" fill="#373738"/>
<path d="M63.1841 29.4861C63.1841 28.7679 63.1961 28.0616 63.1841 27.3434C63.1721 27.0561 63.2679 26.9843 63.5432 26.9843C65.5184 26.9962 67.4936 26.9962 69.4688 26.9843C69.792 26.9843 69.8399 27.1159 69.8399 27.3913C69.8279 28.8038 69.8279 30.2044 69.8399 31.6169C69.8399 31.9521 69.7082 31.988 69.4329 31.976C69.1575 31.9641 68.9181 31.976 68.9899 31.593C69.0019 31.5451 68.9899 31.4852 68.9899 31.4374C68.954 30.9466 69.2054 30.2762 68.8942 30.0128C68.5949 29.7615 67.9485 29.929 67.4457 29.929C66.4641 29.929 65.4825 29.941 64.5129 29.9171C64.1298 29.9051 63.9622 29.9769 63.9981 30.4079C64.034 30.7909 63.9861 31.1979 64.0101 31.581C64.034 31.9282 63.8904 31.988 63.5791 31.988C63.244 32 63.1482 31.9042 63.1602 31.569C63.208 30.8747 63.1841 30.1804 63.1841 29.4861ZM66.5599 27.7983C65.8656 27.7983 65.1712 27.8222 64.4769 27.7863C64.0939 27.7743 63.9622 27.8821 64.0101 28.2531C64.034 28.3729 64.034 28.5045 64.0101 28.6242C63.9502 29.0073 64.1058 29.1031 64.4769 29.0911C65.686 29.0672 66.895 29.0791 68.1161 29.0791C69.0139 29.0791 69.0019 29.0791 69.0139 28.1813C69.0139 27.8461 68.9181 27.7623 68.5949 27.7743C67.9126 27.8222 67.2302 27.7983 66.5599 27.7983Z" fill="#373738"/>
<path d="M39.4702 26.9962C40.3799 26.9962 41.2897 27.0201 42.1875 26.9842C42.6305 26.9723 42.822 27.0441 42.7861 27.5469C42.7382 28.289 42.7502 29.0432 42.7861 29.7854C42.798 30.1924 42.7023 30.336 42.2713 30.3241C40.6672 30.3001 39.0632 30.3241 37.471 30.3001C37.0401 30.2881 36.8964 30.4318 36.9563 30.8388C36.9802 31.0543 36.9443 31.2697 36.9683 31.4732C37.0042 31.8204 36.9324 31.964 36.5254 31.976C36.0705 31.988 36.1662 31.7127 36.1543 31.4613C36.1543 30.1325 36.1782 28.7918 36.1423 27.4631C36.1303 27.0441 36.274 26.9603 36.657 26.9723C37.5788 27.0082 38.5245 26.9962 39.4702 26.9962ZM39.4821 29.5101C39.8891 29.5101 40.2961 29.5101 40.7151 29.5101C42.008 29.5101 41.996 29.5101 41.984 28.1933C41.984 27.8461 41.8643 27.7863 41.5531 27.7982C40.4518 27.8102 39.3505 27.8102 38.2491 27.8102C36.9084 27.8102 36.9204 27.8102 36.9563 29.1509C36.9683 29.4741 37.076 29.534 37.3633 29.522C38.0576 29.4981 38.7639 29.5101 39.4821 29.5101Z" fill="#373738"/>
<path d="M80.6616 26.9963C81.6193 26.9963 82.5889 27.0082 83.5466 26.9843C83.8818 26.9723 83.9656 27.0801 83.9656 27.4033C83.9536 28.7919 83.9416 30.1805 83.9656 31.5691C83.9656 31.9043 83.8698 31.9761 83.5466 31.9761C83.1994 31.9761 83.1396 31.8564 83.1396 31.5451C83.1516 30.4199 83.1396 29.3066 83.1516 28.1814C83.1516 27.8941 83.0797 27.7863 82.7685 27.7863C81.344 27.7983 79.9195 27.7983 78.4949 27.7863C78.1837 27.7863 78.1119 27.8941 78.1119 28.1814C78.1238 29.3066 78.1119 30.4199 78.1238 31.5451C78.1238 31.8564 78.064 31.9761 77.7168 31.9761C77.3936 31.9761 77.2979 31.9043 77.2979 31.5571C77.3218 30.1685 77.3218 28.7799 77.2979 27.3913C77.2979 27.0681 77.3816 26.9604 77.7168 26.9723C78.7104 27.0082 79.692 26.9963 80.6616 26.9963Z" fill="#373738"/>
<path d="M108.901 26.9962C109.882 26.9962 110.864 27.0082 111.845 26.9962C112.133 26.9962 112.264 27.0561 112.264 27.3793C112.264 27.7025 112.181 27.8102 111.845 27.7982C111.139 27.7743 110.421 27.8222 109.703 27.7982C109.391 27.7863 109.32 27.882 109.32 28.1813C109.332 29.3066 109.32 30.4318 109.332 31.5451C109.332 31.8443 109.308 31.988 108.937 31.976C108.601 31.9641 108.482 31.8922 108.482 31.5331C108.506 30.4318 108.47 29.3185 108.494 28.2172C108.506 27.8581 108.386 27.7743 108.039 27.7863C107.332 27.8102 106.614 27.7743 105.896 27.7982C105.597 27.8102 105.537 27.6905 105.549 27.4272C105.561 27.1877 105.525 26.9723 105.896 26.9842C106.913 27.0082 107.907 26.9962 108.901 26.9962Z" fill="#373738"/>
<path d="M53.5595 31.976C52.6139 31.976 51.6682 31.9521 50.7344 31.988C50.3514 32 50.2676 31.8683 50.2676 31.5092C50.2915 30.1565 50.2915 28.8038 50.2676 27.4511C50.2676 27.1159 50.3394 26.9843 50.6985 26.9843C51.0577 26.9843 51.1055 27.1279 51.0936 27.4272C51.0816 28.5165 51.1055 29.5939 51.0816 30.6832C51.0696 31.1022 51.2133 31.174 51.5963 31.174C53.2124 31.1501 54.8404 31.174 56.4565 31.162C56.7677 31.162 56.9233 31.1979 56.9233 31.581C56.9353 32 56.7198 31.976 56.4325 31.976C55.4868 31.9641 54.5292 31.976 53.5595 31.976Z" fill="#373738"/>
<path d="M4.81457 24.5901C4.69487 24.5661 4.67092 24.4943 4.69487 24.3866C4.86246 24.3746 4.77866 24.5182 4.81457 24.5901Z" fill="#FEFEFE"/>
</svg>
