<?xml version="1.0" encoding="UTF-8"?>
<svg width="386px" height="60px" viewBox="0 0 386 60" version="1.1" xmlns="http://www.w3.org/2000/svg"
  xmlns:xlink="http://www.w3.org/1999/xlink">
  <title>color-black</title>
  <g id="页面-1" stroke="none" stroke-width="1" fill="none" fill-rule="evenodd">
    <g id="画板" transform="translate(-1165.000000, -662.000000)">
      <g id="color-black" transform="translate(1165.000000, 662.000000)">
        <path
          d="M73.3761177,46 C72.4927464,46 71.8682482,45.8115754 71.5026232,45.4353369 C71.1675411,45.058793 71,44.4626749 71,43.6469825 L71,16.4000168 C71,15.5843244 71.1826642,14.9882368 71.5482892,14.6117846 C71.9139142,14.2039384 72.5229927,14 73.3761177,14 L84.5711223,14 C88.8358577,14 91.9734717,14.92551 93.9842609,16.7764691 C95.9947536,18.6274586 97,21.3882307 97,25.0588159 C97,28.6980071 95.9947536,31.4430517 93.9842609,33.2940108 C92.0040146,35.1138202 88.8664005,36.0235722 84.5711223,36.0235722 L80.2301779,36.0235722 L80.2301779,43.6469825 C80.2301779,44.4626749 80.0475137,45.058793 79.6818887,45.4353369 C79.3162637,45.8115754 78.6917655,46 77.8083942,46 L73.3761177,46 Z M83.8401688,29.199974 C85.0891651,29.199974 86.0487454,28.8548852 86.7189097,28.1646769 C87.4193203,27.4744991 87.7698221,26.4392019 87.7698221,25.0588159 C87.7698221,23.6470359 87.4193203,22.5960723 86.7189097,21.905864 C86.0487454,21.2156863 85.0891651,20.8705669 83.8401688,20.8705669 L80.2301779,20.8705669 L80.2301779,29.199974 L83.8401688,29.199974 Z"
          id="形状" fill="#08060B" fill-rule="nonzero"></path>
        <path
          d="M108.749847,47 C105.798331,47 103.427581,46.0587888 101.637597,44.1766718 C99.8790971,42.2627942 99,39.5805561 99,36.1293466 C99,33.4941384 99.5966612,31.1881404 100.789678,29.2117802 C102.014484,27.2353282 103.725911,25.7137544 105.92396,24.6470891 C108.153492,23.5490297 110.712532,23 113.601387,23 C115.988032,23 118.091935,23.2666663 119.913097,23.799999 C121.765742,24.3019681 123.461274,25.03924 125,26.0117842 L125,44.8353975 C125,45.4315183 124.890266,45.8236387 124.670186,46.0117588 C124.450411,46.2001843 124.010863,46.2942443 123.35154,46.2942443 L118.547073,46.2942443 C118.201669,46.2942443 117.934822,46.2472143 117.746532,46.1528488 C117.557936,46.027639 117.401129,45.8392136 117.2755,45.5881832 L116.662944,44.1766718 C115.752363,45.1490327 114.653492,45.8550938 113.366024,46.2942443 C112.11004,46.7648499 110.571314,47 108.749847,47 Z M112.282742,40.5999471 C113.507242,40.5999471 114.464895,40.3018867 115.155702,39.7060713 C115.846508,39.1099505 116.191912,38.2627993 116.191912,37.1646178 L116.191912,29.8235674 C115.595556,29.5412041 114.841782,29.4000224 113.931202,29.4000224 C112.266847,29.4000224 110.932307,29.9804156 109.927581,31.1411104 C108.954032,32.3018969 108.467411,33.9332889 108.467411,36.0352865 C108.467411,39.0784953 109.738984,40.5999471 112.282742,40.5999471 Z"
          id="形状" fill="#08060B" fill-rule="nonzero"></path>
        <path
          d="M131.427494,46 C130.541743,46 129.915772,45.8139546 129.549582,45.442467 C129.183095,45.0706778 129,44.482087 129,43.6766946 L129,25.1373807 C129,24.5798175 129.091547,24.2080887 129.274642,24.0222242 C129.488352,23.8053924 129.915772,23.6969916 130.557199,23.6969916 L135.274865,23.6969916 C135.641055,23.6969916 135.915995,23.7589263 136.09909,23.8828259 C136.3128,23.9757581 136.434962,24.1616226 136.465577,24.4404192 L136.694445,25.8343422 C137.549582,24.967015 138.664202,24.2855221 140.038009,23.7898937 C141.442727,23.2632979 142.999926,23 144.709902,23 C147.183169,23 149.183244,23.7124602 150.709827,25.1373807 C152.236708,26.5313036 153,28.6067194 153,31.3636281 L153,43.6766946 C153,44.482087 152.816905,45.0706778 152.450418,45.442467 C152.114546,45.8139546 151.503734,46 150.61828,46 L146.175553,46 C145.290098,46 144.648969,45.8139546 144.251867,45.442467 C143.88538,45.0706778 143.702285,44.482087 143.702285,43.6766946 L143.702285,31.9675971 C143.702285,31.0382749 143.503734,30.3724919 143.106929,29.969675 C142.709827,29.5669788 142.083857,29.3656458 141.229017,29.3656458 C140.312948,29.3656458 139.579974,29.6134449 139.030392,30.1089528 C138.511425,30.6046717 138.251941,31.2861344 138.251941,32.1536424 L138.251941,43.6766946 C138.251941,44.482087 138.068549,45.0706778 137.702359,45.442467 C137.366487,45.8139546 136.755675,46 135.870221,46 L131.427494,46 Z"
          id="路径" fill="#08060B" fill-rule="nonzero"></path>
        <path
          d="M169.634291,47 C165.276384,47 161.914475,45.9803036 159.548564,43.9412163 C157.182956,41.9021289 156,38.9374053 156,35.0470453 C156,32.6628675 156.544814,30.5608699 157.634139,28.7412051 C158.723767,26.9216014 160.295789,25.5098151 162.350205,24.5059074 C164.435831,23.5019691 166.89507,23 169.727618,23 C171.875361,23 173.681005,23.2039393 175.143943,23.6117873 C176.638091,24.0196047 177.961038,24.6470585 179.112783,25.4941486 C179.455186,25.7137544 179.626387,25.9960872 179.626387,26.3412081 C179.626387,26.5921774 179.50185,26.9216014 179.252774,27.3294188 L177.33835,30.6705048 C177.120485,31.1099607 176.855956,31.3295359 176.544764,31.3295359 C176.357806,31.3295359 176.062067,31.2040207 175.657547,30.9529903 C174.816994,30.4197798 174.023408,30.0274762 173.276182,29.7765069 C172.560167,29.525507 171.657496,29.4000224 170.568171,29.4000224 C169.011603,29.4000224 167.751076,29.9019915 166.785986,30.9059603 C165.852105,31.9097764 165.385165,33.2901381 165.385165,35.0470453 C165.385165,36.8354077 165.867559,38.2157693 166.832649,39.1881303 C167.79774,40.1293415 169.120687,40.5999471 170.80149,40.5999471 C171.797488,40.5999471 172.700461,40.458857 173.509804,40.1763715 C174.319147,39.8941914 175.143943,39.5020709 175.984496,39.0000102 C176.420226,38.7489798 176.731418,38.6234646 176.918376,38.6234646 C177.198359,38.6234646 177.447434,38.8430398 177.665299,39.2824957 L179.766378,42.905945 C179.922126,43.2195803 180,43.4706107 180,43.6587308 C180,43.9412163 179.813042,44.2078215 179.439732,44.4588519 C178.132239,45.3060031 176.700208,45.9332736 175.143943,46.3412743 C173.618585,46.7804248 171.782034,47 169.634291,47 Z"
          id="路径" fill="#08060B" fill-rule="nonzero"></path>
        <path
          d="M191.750038,47 C188.798251,47 186.427528,46.0587888 184.637872,44.1766718 C182.879392,42.2627942 182,39.5805561 182,36.1293466 C182,33.4941384 182.596654,31.1881404 183.789962,29.2117802 C185.014448,27.2353282 186.725856,25.7137544 188.923878,24.6470891 C191.153384,23.5490297 193.7127,23 196.601521,23 C198.987832,23 201.091711,23.2666663 202.912851,23.799999 C204.765474,24.3019681 206.461292,25.03924 208,26.0117842 L208,44.8353975 C208,45.4315183 207.889961,45.8236387 207.67019,46.0117588 C207.450418,46.2001843 207.010875,46.2942443 206.351254,46.2942443 L201.547149,46.2942443 C201.201749,46.2942443 200.9346,46.2472143 200.746311,46.1528488 C200.558023,46.027639 200.400912,45.8392136 200.275285,45.5881832 L199.663042,44.1766718 C198.752472,45.1490327 197.653308,45.8550938 196.365855,46.2942443 C195.109886,46.7648499 193.571178,47 191.750038,47 Z M195.282585,40.5999471 C196.507377,40.5999471 197.465019,40.3018867 198.155818,39.7060713 C198.846616,39.1099505 199.192015,38.2627993 199.192015,37.1646178 L199.192015,29.8235674 C198.595361,29.5412041 197.841902,29.4000224 196.931026,29.4000224 C195.266997,29.4000224 193.932472,29.9804156 192.927452,31.1411104 C191.954221,32.3018969 191.4673,33.9332889 191.4673,36.0352865 C191.4673,39.0784953 192.739164,40.5999471 195.282585,40.5999471 Z"
          id="形状" fill="#08060B" fill-rule="nonzero"></path>
        <path
          d="M237.668385,44.2116456 C237.889359,44.4626749 238,44.7451591 238,45.058793 C238,45.3409719 237.905341,45.5764263 237.715714,45.7645456 C237.526395,45.9215152 237.273765,46 236.958131,46 L229.617414,46 C229.175465,46 228.84385,45.968545 228.622875,45.9059404 C228.433556,45.8115754 228.228256,45.6390309 228.007281,45.3883071 L221.566444,36.6822949 L221.566444,43.6469825 C221.566444,44.4626749 221.377125,45.058793 220.99818,45.4353369 C220.619234,45.8115754 219.971985,46 219.056432,46 L214.462682,46 C213.547129,46 212.899879,45.8115754 212.520934,45.4353369 C212.173645,45.058793 212,44.4626749 212,43.6469825 L212,16.4000168 C212,15.5843244 212.189319,14.9882368 212.568264,14.6117846 C212.947209,14.2039384 213.578784,14 214.462682,14 L219.056432,14 C219.971985,14 220.619234,14.2039384 220.99818,14.6117846 C221.377125,14.9882368 221.566444,15.5843244 221.566444,16.4000168 L221.566444,32.1646845 L227.817963,24.0705791 C228.007281,23.8195804 228.212582,23.6470359 228.433556,23.5529152 C228.654531,23.4588251 228.986146,23.4117647 229.428095,23.4117647 L236.768813,23.4117647 C237.084446,23.4117647 237.321095,23.5058549 237.479066,23.6940963 C237.668385,23.8509743 237.763351,24.0705791 237.763351,24.3529412 C237.763351,24.6666667 237.65271,24.9489982 237.431736,25.1999969 L229.333436,34.4236424 L237.668385,44.2116456 Z"
          id="路径" fill="#08060B" fill-rule="nonzero"></path>
        <path
          d="M251.806381,47 C249.149543,47 246.777201,46.5608495 244.689664,45.6825486 C242.63384,44.8039423 241.004761,43.4861856 239.802733,41.7295837 C238.601014,39.9726765 238,37.8236489 238,35.2825008 C238,31.2980808 239.138601,28.254933 241.41611,26.1529659 C243.693312,24.0509988 246.967174,23 251.23708,23 C255.412463,23 258.575482,24.0353018 260.726138,26.1059053 C262.908815,28.1451148 264,30.9844455 264,34.6234697 C264,36.1922568 263.304154,36.9764977 261.912463,36.9764977 L247.01459,36.9764977 C247.01459,38.3254042 247.520463,39.3609809 248.532826,40.0823114 C249.576595,40.8039474 251.142248,41.1646127 253.229785,41.1646127 C254.526645,41.1646127 255.602127,41.0549778 256.456231,40.8354026 C257.341741,40.5843722 258.227559,40.2237069 259.113069,39.7531013 C259.492705,39.596131 259.745796,39.5176458 259.872034,39.5176458 C260.156838,39.5176458 260.393918,39.7060713 260.58389,40.0823114 L262.196959,43.0940651 C262.355218,43.4080058 262.434347,43.6431559 262.434347,43.8001262 C262.434347,44.0823064 262.244375,44.349217 261.864739,44.599942 C260.568187,45.4470931 259.097366,46.0587888 257.452584,46.4353344 C255.807802,46.8118799 253.925631,47 251.806381,47 Z M255.459879,32.3177771 C255.459879,31.1255355 255.111956,30.1998992 254.41611,29.5412041 C253.720264,28.8823868 252.676188,28.5529629 251.284496,28.5529629 C249.892805,28.5529629 248.833333,28.8980533 248.105774,29.5882646 C247.378215,30.2472346 247.01459,31.1569907 247.01459,32.3177771 L255.459879,32.3177771 Z"
          id="形状" fill="#08060B" fill-rule="nonzero"></path>
        <path
          d="M279.814066,47 C277.209176,47 274.744039,46.7366805 272.418654,46.2100414 C270.092967,45.6520332 268.217024,44.8774576 266.790522,43.8860128 C266.263507,43.5451754 266,43.1886534 266,42.8170501 C266,42.5691135 266.092967,42.305794 266.278901,42.0267899 L268.558104,38.4015465 C268.806218,38.0296416 269.05403,37.84384 269.302143,37.84384 C269.457289,37.84384 269.720797,37.9521237 270.092967,38.1689928 C271.240266,38.8199018 272.542409,39.3465409 274,39.7492117 C275.457289,40.152184 276.899185,40.3536702 278.325687,40.3536702 C279.782976,40.3536702 280.852701,40.1368011 281.534863,39.7027612 C282.248113,39.269023 282.604588,38.5719652 282.604588,37.6112863 C282.604588,36.6816748 282.217024,35.9535496 281.441896,35.4269105 C280.697555,34.8999698 279.286749,34.2339795 277.209176,33.4283364 C274.077573,32.2507883 271.62783,30.9338891 269.860248,29.4774877 C268.123755,27.9901697 267.25566,25.976092 267.25566,23.4352244 C267.25566,20.3676273 268.356474,18.0281856 270.558104,16.4168993 C272.759734,14.8056431 275.689707,14 279.348928,14 C281.891337,14 284.062179,14.2324029 285.860549,14.6971784 C287.690009,15.130977 289.240266,15.812682 290.511621,16.7422633 C291.038938,17.1450849 291.302445,17.5168993 291.302445,17.8577669 C291.302445,18.0746662 291.209478,18.3225424 291.023242,18.6014259 L288.74434,22.2267899 C288.465137,22.5986043 288.217024,22.7845266 288,22.7845266 C287.845155,22.7845266 287.581346,22.6760619 287.209478,22.4591626 C285.410806,21.281705 283.271355,20.6929611 280.790824,20.6929611 C279.457289,20.6929611 278.434048,20.9098604 277.720797,21.3436892 C277.007848,21.7774877 276.651072,22.4901697 276.651072,23.481705 C276.651072,24.16341 276.837308,24.7211467 277.209176,25.1549453 C277.581346,25.5887439 278.077573,25.976092 278.697555,26.3169294 C279.348928,26.6267899 280.341081,27.0296115 281.674313,27.525364 L282.558104,27.850728 C284.852701,28.7493323 286.651373,29.6169294 287.953516,30.4537004 C289.287051,31.2590419 290.294597,32.2661713 290.976758,33.4747868 C291.658919,34.6520332 292,36.1393512 292,37.9367408 C292,40.6945077 290.961364,42.894568 288.883791,44.5366201 C286.837308,46.1789739 283.814066,47 279.814066,47 Z"
          id="路径" fill="#08060B" fill-rule="nonzero"></path>
        <path
          d="M301.784819,46 C301.316148,46 300.957035,45.9235591 300.706266,45.7706772 C300.456105,45.6180927 300.268332,45.312329 300.143251,44.8539808 L294.093734,25.0541414 C294.031346,24.8708318 294,24.7333274 294,24.6416577 C294,24.2138859 294.312549,24 294.937952,24 L301.127462,24 C301.535267,24 301.830469,24.0763815 302.019155,24.2291444 C302.207841,24.3513606 302.332617,24.5652465 302.393484,24.8708021 L304.925528,35.2750684 L308.11493,26.8874747 C308.273183,26.5208259 308.428392,26.2763636 308.583602,26.1541473 C308.772288,26.0013547 309.08575,25.9249732 309.523989,25.9249732 L312.476011,25.9249732 C312.91425,25.9249732 313.212496,26.0013547 313.367705,26.1541473 C313.556391,26.2763636 313.726817,26.5208259 313.88507,26.8874747 L317.025779,35.2750684 L319.606516,24.8708021 C319.697816,24.5652465 319.822592,24.3513606 319.980845,24.2291444 C320.136054,24.0763815 320.419083,24 320.823845,24 L327.062657,24 C327.686538,24 328,24.2138859 328,24.6416577 C328,24.7333274 327.969567,24.8708318 327.905657,25.0541414 L321.809882,44.8539808 C321.685106,45.312329 321.49642,45.6180927 321.246867,45.7706772 C321.027748,45.9235591 320.683852,46 320.215181,46 L315.619764,46 C315.181525,46 314.852846,45.9235591 314.633727,45.7706772 C314.414608,45.5874569 314.228965,45.2819905 314.070712,44.8539808 L310.975653,36.5582054 L307.880594,44.8539808 C307.755818,45.2819905 307.567132,45.5874569 307.31758,45.7706772 C307.09846,45.9235591 306.772825,46 306.334586,46 L301.784819,46 Z"
          id="路径" fill="#08060B" fill-rule="nonzero"></path>
        <path
          d="M340.750764,47 C337.798025,47 335.429109,46.0587888 333.637903,44.1766718 C331.88032,42.2627942 331,39.5805561 331,36.1293466 C331,33.4941384 331.59605,31.1881404 332.791206,29.2117802 C334.013873,27.2353282 335.725605,25.7137544 337.923348,24.6470891 C340.154714,23.5490297 342.713144,23 345.601693,23 C347.988949,23 350.091935,23.2666663 351.913708,23.799999 C353.766047,24.3019681 355.462497,25.03924 357,26.0117842 L357,44.8353975 C357,45.4315183 356.88996,45.8236387 356.66988,46.0117588 C356.4498,46.2001843 356.012697,46.2942443 355.352457,46.2942443 L350.547378,46.2942443 C350.201975,46.2942443 349.936045,46.2472143 349.746532,46.1528488 C349.557019,46.027639 349.401129,45.8392136 349.275805,45.5881832 L348.664472,44.1766718 C347.753586,45.1490327 346.653186,45.8550938 345.36633,46.2942443 C344.11004,46.7648499 342.572537,47 340.750764,47 Z M344.28427,40.5999471 C345.506936,40.5999471 346.466729,40.3018867 347.157536,39.7060713 C347.848342,39.1099505 348.193746,38.2627993 348.193746,37.1646178 L348.193746,29.8235674 C347.594639,29.5412041 346.842699,29.4000224 345.931813,29.4000224 C344.26593,29.4000224 342.933224,29.9804156 341.927581,31.1411104 C340.955561,32.3018969 340.466494,33.9332889 340.466494,36.0352865 C340.466494,39.0784953 341.741124,40.5999471 344.28427,40.5999471 Z"
          id="形状" fill="#08060B" fill-rule="nonzero"></path>
        <path
          d="M362.426424,55 C361.52371,55 360.887568,54.8164688 360.511942,54.4491086 C360.169638,54.0817483 360,53.500169 360,52.7043707 L360,26.3974122 C361.399511,25.4179934 363.159501,24.6068809 365.273914,23.9641345 C367.391355,23.3213881 369.599674,23 371.901899,23 C381.301643,23 386,26.917735 386,34.7531752 C386,38.3037286 385.003379,41.1347565 383.013166,43.2468546 C381.019923,45.3586548 378.205756,46.4145549 374.564604,46.4145549 C373.537691,46.4145549 372.54107,46.2921015 371.574741,46.0471947 C370.641734,45.8025857 369.863218,45.4659133 369.242223,45.0371774 L369.242223,52.7043707 C369.242223,53.500169 369.05441,54.0817483 368.681813,54.4491086 C368.309216,54.8164688 367.670045,55 366.767331,55 L362.426424,55 Z M372.556216,40.2165048 C373.895142,40.2165048 374.891763,39.726989 375.54305,38.7473616 C376.227659,37.7373443 376.569964,36.3906545 376.569964,34.7072924 C376.569964,32.7179456 376.167074,31.3250751 375.358266,30.5292768 C374.579751,29.703029 373.365024,29.2898158 371.717115,29.2898158 C370.65688,29.2898158 369.817779,29.4275535 369.196784,29.703029 L369.196784,37.0029217 C369.196784,38.0436268 369.490621,38.8394251 370.081324,39.3903166 C370.675055,39.941208 371.49901,40.2165048 372.556216,40.2165048 Z"
          id="形状" fill="#08060B" fill-rule="nonzero"></path>
        <path
          d="M28.4780619,60 C19.6887316,59.9933537 12.6087756,57.8771141 7.66193209,54.0760396 C2.65574598,50.2293474 0,44.7703253 0,38.5932016 C0,32.6414477 2.64993516,28.3497863 5.64831773,25.4488009 C7.99811657,23.1753765 10.5911569,21.7193553 12.3967259,20.881832 C11.9884029,19.6245047 11.4790079,17.97846 11.0232349,16.2783386 C10.4134,14.0033433 9.81512653,11.3341624 9.81512653,9.37818909 C9.81512653,7.0630441 10.3181688,4.7379901 11.6745284,2.93133475 C13.1075727,1.02255006 15.2649521,0 17.8603107,0 C19.8887081,0 21.6107879,0.754967348 22.9589882,2.05736253 C24.2476954,3.30227031 25.1054084,4.9555353 25.6976001,6.67897909 C26.7382485,9.70736177 27.1434101,13.5120313 27.2570372,17.3089065 L29.7430441,17.3089065 C29.8568518,13.5120313 30.2618027,9.70736177 31.3026317,6.67897909 C31.8948535,4.9555353 32.7523257,3.30227031 34.0412436,2.05736253 C35.389474,0.754967348 37.1113431,0 39.1397103,0 C41.7353098,0 43.8925387,1.02255006 45.3256733,2.93133475 C46.6820329,4.7379901 47.1851354,7.0630441 47.1851354,9.37818909 C47.1851354,11.3341624 46.5865909,14.0033433 45.9769066,16.2783386 C45.5210734,17.97846 45.0116483,19.6245047 44.6033855,20.881832 C46.4089545,21.7193553 49.0021454,23.1753765 51.3517636,25.4488009 C54.3502063,28.3497863 57,32.6414477 57,38.5932016 C57,44.7703253 54.3444859,50.2293474 49.3381492,54.0760396 C44.3914261,57.8771141 37.3112594,59.9933537 28.5220495,60 L28.4780619,60 Z"
          id="路径" fill="#633001"></path>
        <path
          d="M17.3627655,2 C13.5623115,2 11.8128752,4.87755289 11.8128752,8.85713091 C11.8128752,12.0203201 13.8455614,18.3553474 14.679568,20.8214489 C14.867157,21.3761313 14.5724087,21.9838565 14.034836,22.1989614 C10.9888922,23.4178896 2,27.8808414 2,38.102032 C2,48.8687721 11.1347613,56.9869963 27.9799678,57 C27.9866803,57 27.9933627,57 28.0000753,57 C28.0067878,57 28.0134702,57 28.0201827,57 C44.8652688,56.9869963 54,48.8687721 54,38.102032 C54,27.8808414 45.0112583,23.4178896 41.9653446,22.1989614 C41.4277418,21.9838565 41.1330537,21.3761313 41.3205825,20.8214489 C42.1546795,18.3553474 44.1873957,12.0203201 44.1873957,8.85713091 C44.1873957,4.87755289 42.4379293,2 38.637385,2 C33.1668408,2 31.8029674,9.8648552 31.7057413,18.305752 C31.6994202,18.8692647 31.2503142,19.32648 30.6952529,19.32648 L25.3049879,19.32648 C24.7497159,19.32648 24.3008508,18.8692647 24.2943791,18.305752 C24.1970928,9.8648552 22.8334301,2 17.3627655,2 Z"
          id="路径" fill="#D1884F" fill-rule="nonzero"></path>
        <path
          d="M28.000015,53.478515 C15.6325847,53.478515 2.02138518,46.7325669 2,38 C2,38.0133493 2,38.027002 2,38.0406547 C2,48.8511617 11.1422087,57 28.000015,57 C44.8579117,57 54,48.8511617 54,38.0406547 C54,38.027002 54,38.0133493 54,38 C53.9786449,46.7325669 40.3673251,53.478515 28.000015,53.478515 Z"
          id="路径" fill="#FEDC90" fill-rule="nonzero"></path>
        <path
          d="M21,35.5 C21,38.4589959 19.6568611,40 18.0000148,40 C16.3431389,40 15,38.4589959 15,35.5 C15,32.5410041 16.3431389,31 18.0000148,31 C19.6568611,31 21,32.5410041 21,35.5 Z"
          id="路径" fill="#633001" fill-rule="nonzero"></path>
        <path
          d="M41,35.5 C41,38.4589959 39.656884,40 38,40 C36.343116,40 35,38.4589959 35,35.5 C35,32.5410041 36.343116,31 38,31 C39.656884,31 41,32.5410041 41,35.5 Z"
          id="路径" fill="#633001" fill-rule="nonzero"></path>
      </g>
    </g>
  </g>
</svg>