<svg width="106" height="16" viewBox="0 0 106 16" fill="none" xmlns="http://www.w3.org/2000/svg">
<g clip-path="url(#clip0_1112_6944)">
<path fill-rule="evenodd" clip-rule="evenodd" d="M0.700195 0.406888H12.4998V3.86949H4.41552V7.00674H11.0764V10.388H4.41552V15.5906H0.700195V0.406888ZM14.4257 15.5935H26.3269V12.1309H18.1439V9.58045H24.7031V6.19919H18.1439V3.86949H26.3269V0.406888H14.4257V15.5935ZM39.5266 9.63855L32.4591 0.406888H28.7641V15.5935H32.3778V6.29796L39.608 15.5906H43.1403V0.406888H39.5266V9.63855ZM67.7735 15.5935H71.4889V0.406888H67.7735V15.5935ZM81.8883 3.60515C83.2884 3.60515 84.5288 4.2326 85.5426 5.52817L88.4068 3.25947C86.9834 1.33645 84.6886 0.081543 81.8883 0.081543C77.4003 0.081543 73.8273 3.64581 73.8273 7.9973C73.8273 12.3517 77.4003 15.9131 81.8883 15.9131C84.6915 15.9131 86.9863 14.6582 88.4068 12.7322L85.5426 10.4664C84.5259 11.7417 83.2884 12.3691 81.8883 12.3691C79.4308 12.3691 77.5833 10.3851 77.5833 7.9973C77.5833 5.61241 79.4308 3.60515 81.8883 3.60515ZM98.844 6.5013L104.837 0.406888H100.349L94.1759 6.8034V0.406888H90.4605V15.5935H94.1759V11.2391L96.308 9.0721L100.735 15.5906H105.203L98.844 6.5013ZM52.555 15.5935L55.4482 6.52163L58.3589 15.5935H62.2746L65.9871 0.406888H62.2921L60.0786 9.80122L57.072 0.406888H53.9057L50.9195 9.76056L48.706 0.406888H44.9297L48.6624 15.5935H52.555Z" fill="#2E96FF"/>
</g>
<defs>
<clipPath id="clip0_1112_6944">
<rect width="104.575" height="16" fill="white" transform="translate(0.662598)"/>
</clipPath>
</defs>
</svg>
