<svg width="80" height="24" viewBox="0 0 80 24" fill="none" xmlns="http://www.w3.org/2000/svg">
<g clip-path="url(#clip0_1112_6895)">
<path d="M29.6973 5.98215V12.7541H22.9695V6.8566C22.9695 6.37192 22.5763 5.97876 22.0916 5.97876H19.814V22.19C19.814 22.6747 20.2071 23.0679 20.6918 23.0679H22.9695V15.5062H29.7007V22.1866C29.6939 22.6713 30.0803 23.0713 30.565 23.078H30.5785H32.8562V6.8566C32.8562 6.37192 32.463 5.97876 31.9783 5.97876H29.6973V5.98215ZM43.0581 10.2188V18.3431C43.0649 19.082 42.6785 19.77 42.0413 20.1496C40.2585 21.18 38.4113 19.8887 38.4113 18.194V11.0967C38.4113 10.612 38.0182 10.2188 37.5335 10.2188H35.2559V18.4855C35.2626 21.1495 37.4183 23.3051 40.0823 23.3187H41.377C44.0444 23.3119 46.2068 21.1495 46.2136 18.4821V11.0967C46.2136 10.612 45.8205 10.2188 45.3358 10.2188H43.0581Z" fill="#1B2143"/>
<path d="M77.518 23.0781H79.7956V11.5679C79.7956 11.0832 79.4025 10.6901 78.9178 10.6901H76.6402V22.1935C76.6368 22.6782 77.0265 23.0748 77.5112 23.0781H77.518Z" fill="#2CA6E0"/>
<path d="M79.8435 8.38782C80.2153 7.49024 79.7891 6.4612 78.8915 6.08941C77.9939 5.71761 76.9649 6.14384 76.5931 7.04142C76.2213 7.939 76.6476 8.96803 77.5451 9.33982C78.4427 9.71162 79.4717 9.28539 79.8435 8.38782Z" fill="#2CA6E0"/>
<path d="M54.355 10.2122C51.0504 10.2122 48.3457 12.5745 48.3457 15.8792V17.6653C48.3457 20.97 51.0504 23.3188 54.355 23.3188C57.6596 23.3188 60.3643 20.97 60.3643 17.6653V15.8792C60.3677 12.5745 57.663 10.2122 54.355 10.2122ZM57.1953 17.8789C57.1953 19.4414 55.9175 20.4819 54.3516 20.4819C52.7858 20.4819 51.5114 19.4414 51.5114 17.8789V15.6487C51.5114 14.0862 52.7891 13.0457 54.3516 13.0457C55.9141 13.0457 57.1953 14.0862 57.1953 15.6487V17.8789Z" fill="#1B2143"/>
<path d="M68.5054 10.2121C67.5157 10.2053 66.5396 10.429 65.6482 10.8594V6.87357C65.6482 6.38889 65.255 5.99573 64.7703 5.99573H62.4927V17.6653C62.4927 20.9699 65.1974 23.3187 68.502 23.3187C71.8066 23.3187 74.5113 20.9699 74.5113 17.6653V15.8791C74.5147 12.5745 71.8168 10.2121 68.5054 10.2121ZM71.3491 17.8788C71.3491 19.4413 70.0713 20.4818 68.5054 20.4818C66.9429 20.4818 65.6651 19.4413 65.6651 17.8788V15.6486C65.6651 14.0861 66.9429 13.0456 68.5054 13.0456C70.0679 13.0456 71.3491 14.0861 71.3491 15.6486V17.8788Z" fill="#2CA6E0"/>
<path d="M10.2765 7.38202C10.2765 3.93844 8.59873 0.972752 7.32095 0.0101764C7.32095 0.0101764 7.22266 -0.0440532 7.23282 0.0949102C7.12775 6.74821 3.72823 8.55134 1.8607 10.9781C-2.45055 16.5841 1.55566 22.729 5.64322 23.8644C7.92086 24.5016 5.11448 22.7392 4.75182 19.0211C4.30781 14.5335 10.2765 11.1035 10.2765 7.38202Z" fill="#1B2143"/>
<path d="M12.2355 9.64952C12.2083 9.63258 12.1711 9.61902 12.1473 9.66308C12.0762 10.5002 11.222 12.2898 10.1375 13.9371C6.46001 19.5159 8.55463 22.2071 9.73412 23.6543C10.4188 24.4915 9.73412 23.6543 11.4424 22.7968C13.5539 21.5156 14.9232 19.299 15.1266 16.8383C15.4621 12.8728 13.0828 10.3748 12.2355 9.64952Z" fill="#2CA6E0"/>
</g>
<defs>
<clipPath id="clip0_1112_6895">
<rect width="79.9752" height="24" fill="white"/>
</clipPath>
</defs>
</svg>
