<?xml version="1.0" encoding="UTF-8"?>
<svg width="160px" height="38px" viewBox="0 0 160 38" version="1.1" xmlns="http://www.w3.org/2000/svg"
  xmlns:xlink="http://www.w3.org/1999/xlink">
  <title>rainlink</title>
  <defs>
    <linearGradient x1="50.2153233%" y1="0%" x2="50.2153233%" y2="100.043396%" id="linearGradient-1">
      <stop stop-color="#FF4800" offset="0%"></stop>
      <stop stop-color="#FFA602" offset="100%"></stop>
    </linearGradient>
    <linearGradient x1="35.2261881%" y1="69.5035311%" x2="68.479386%" y2="43.9775065%" id="linearGradient-2">
      <stop stop-color="#FFC816" offset="0%"></stop>
      <stop stop-color="#F77D30" offset="33.5%"></stop>
      <stop stop-color="#ED284E" offset="71.6115%"></stop>
    </linearGradient>
    <linearGradient x1="38.5050465%" y1="52.4705144%" x2="101.711487%" y2="-0.165194017%" id="linearGradient-3">
      <stop stop-color="#FFC816" offset="0%"></stop>
      <stop stop-color="#F77D30" offset="33.5%"></stop>
      <stop stop-color="#ED284E" offset="71.6115%"></stop>
    </linearGradient>
    <path d="M0,0 C11.1675,0.0602 20.2646,9.2263 20.7827,20.7393 L0,20.7393 L0,0 Z" id="path-4"></path>
  </defs>
  <g id="页面-1" stroke="none" stroke-width="1" fill="none" fill-rule="evenodd">
    <g id="画板" transform="translate(-1216.000000, -816.000000)">
      <g id="rainlink" transform="translate(1216.000000, 816.000000)">
        <path
          d="M-7.10542736e-15,16.3338445 C11.1675,16.3940445 20.2646,25.5601445 20.7827,37.0731445 L-7.10542736e-15,37.0731445 L-7.10542736e-15,16.3338445 Z"
          id="路径" fill="url(#linearGradient-1)" fill-rule="nonzero"></path>
        <path
          d="M-7.10542736e-15,37.0731445 C0.5787,37.0731445 1.143,37.0731445 1.7665,37.0731445 C5.7152,37.0731445 9.6192,36.0181445 12.8945,33.7321445 C16.9306,30.9151445 19.6821,26.6161445 20.545,21.7771445 C21.4001,16.9370445 20.2959,11.9554445 17.475,7.92564454 C14.6537,3.89574454 10.3457,1.14604454 5.4959,0.280244544 C3.8892,-0.00145545564 2.2671,-0.0688554556 0.6695,0.0693445444 C0.3124,0.100244544 0.0447,0.403744544 0.0447,0.762144544 L0.0447,0.762144544 C0.0447,1.18974454 0.4207,1.51874454 0.8468,1.48344454 C2.3037,1.36274454 3.7821,1.42734454 5.2466,1.68504454 C9.7231,2.48404454 13.6997,5.02214454 16.3038,8.74214454 C18.908,12.4622445 19.9266,17.0605445 19.1369,21.5281445 C18.3409,25.9951445 15.8016,29.9631445 12.0757,32.5631445 C11.1061,33.2401445 10.0767,33.8101445 9.0055,34.2681445 C9.4894,34.0031445 9.9609,33.7111445 10.4176,33.3921445 C13.7612,31.0581445 16.041,27.4971445 16.7554,23.4881445 C17.4642,19.4781445 16.5492,15.3510445 14.2123,12.0125445 C11.8748,8.67384454 8.3059,6.39614454 4.2881,5.67864454 C3.0415,5.46014454 1.7837,5.39724454 0.5419,5.48414454 C0.2591,5.50394454 0.0447,5.74264454 0.0447,6.02614454 L0.0447,6.02614454 C0.0447,6.35554454 0.331,6.61104454 0.6597,6.58894454 C1.7983,6.51234454 2.9512,6.57154454 4.0941,6.77174454 C7.8216,7.43714454 11.133,9.55034454 13.3016,12.6478445 C15.4702,15.7453445 16.3189,19.5741445 15.6618,23.2951445 C14.9985,27.0141445 12.882,30.3171445 9.7797,32.4821445 C8.0658,33.6781445 6.1278,34.4721445 4.1076,34.8341445 C5.4657,34.4691445 6.7632,33.8711445 7.9376,33.0511445 C10.5894,31.2011445 12.3968,28.3761445 12.9629,25.1971445 C13.5247,22.0181445 12.7991,18.7451445 10.946,16.0977445 C9.0928,13.4504445 6.2623,11.6442445 3.0766,11.0754445 C2.1897,10.9199445 1.2959,10.8638445 0.4104,10.9036445 C0.204,10.9129445 0.0447,11.0853445 0.0447,11.2919445 L0.0447,11.2919445 C0.0447,11.5225445 0.2414,11.7034445 0.4718,11.6935445 C1.2912,11.6584445 2.1181,11.7111445 2.9386,11.8547445 C5.9174,12.3865445 8.5635,14.0752445 10.2965,16.5509445 C12.0292,19.0261445 12.7072,22.0861445 12.1814,25.0591445 C11.652,28.0311445 9.9621,30.6721445 7.483,32.4021445 C5.3044,33.9231445 2.6282,34.6741445 -7.10542736e-15,34.4691445 L-7.10542736e-15,37.0731445 Z"
          id="路径" fill="url(#linearGradient-2)" fill-rule="nonzero"></path>
        <path
          d="M-7.10542736e-15,34.3091445 C1.9208,34.3601445 3.8653,33.8121445 5.4585,32.7001445 C7.4186,31.3331445 8.7545,29.2461445 9.1733,26.8971445 C9.5885,24.5481445 9.0522,22.1291445 7.6821,20.1731445 C6.3126,18.2168445 4.2212,16.8824445 1.8666,16.4625445 C1.2608,16.3563445 0.7274,16.3444445 -7.10542736e-15,16.3335445 L-7.10542736e-15,16.8092445 C0.578,16.7917445 1.2053,16.8295445 1.7835,16.9308445 C4.0137,17.3284445 5.9943,18.5921445 7.2918,20.4451445 C8.5889,22.2981445 9.0974,24.5891445 8.7042,26.8141445 C8.3074,29.0391445 7.0416,31.0161445 5.1858,32.3111445 C3.6728,33.3661445 1.8237,33.8841445 -7.10542736e-15,33.8331445 L-7.10542736e-15,34.3091445 Z"
          id="路径" fill="url(#linearGradient-3)" fill-rule="nonzero"></path>
        <g id="Clipped" transform="translate(-0.000000, 16.333845)">
          <mask id="mask-5" fill="white">
            <use xlink:href="#path-4"></use>
          </mask>
          <g id="路径"></g>
          <g id="编组" mask="url(#mask-5)" fill="#FFFFFF" fill-rule="nonzero">
            <g transform="translate(0.000000, -16.333845)" id="路径">
              <path
                d="M0,37.0731445 C0.5787,37.0731445 1.143,37.0731445 1.7665,37.0731445 C5.7152,37.0731445 9.6192,36.0181445 12.8945,33.7321445 C16.9306,30.9151445 19.6821,26.6161445 20.545,21.7771445 C21.4001,16.9370445 20.2959,11.9554445 17.475,7.92564454 C14.6537,3.89574454 10.3457,1.14604454 5.4959,0.280244544 C3.8892,-0.00145545564 2.2671,-0.0688554556 0.6695,0.0693445444 C0.3124,0.100244544 0.0447,0.403744544 0.0447,0.762144544 L0.0447,0.762144544 C0.0447,1.18974454 0.4207,1.51874454 0.8468,1.48344454 C2.3037,1.36274454 3.7821,1.42734454 5.2466,1.68504454 C9.7231,2.48404454 13.6997,5.02214454 16.3038,8.74214454 C18.908,12.4622445 19.9266,17.0605445 19.1369,21.5281445 C18.3409,25.9951445 15.8016,29.9631445 12.0757,32.5631445 C11.1061,33.2401445 10.0767,33.8101445 9.0055,34.2681445 C9.4894,34.0031445 9.9609,33.7111445 10.4176,33.3921445 C13.7612,31.0581445 16.041,27.4971445 16.7554,23.4881445 C17.4642,19.4781445 16.5492,15.3510445 14.2123,12.0125445 C11.8748,8.67384454 8.3059,6.39614454 4.2881,5.67864454 C3.0415,5.46014454 1.7837,5.39724454 0.5419,5.48414454 C0.2591,5.50394454 0.0447,5.74264454 0.0447,6.02614454 L0.0447,6.02614454 C0.0447,6.35554454 0.331,6.61104454 0.6597,6.58894454 C1.7983,6.51234454 2.9512,6.57154454 4.0941,6.77174454 C7.8216,7.43714454 11.133,9.55034454 13.3016,12.6478445 C15.4702,15.7453445 16.3189,19.5741445 15.6618,23.2951445 C14.9985,27.0141445 12.882,30.3171445 9.7797,32.4821445 C8.0658,33.6781445 6.1278,34.4721445 4.1076,34.8341445 C5.4657,34.4691445 6.7632,33.8711445 7.9376,33.0511445 C10.5894,31.2011445 12.3968,28.3761445 12.9629,25.1971445 C13.5247,22.0181445 12.7991,18.7451445 10.946,16.0977445 C9.0928,13.4504445 6.2623,11.6442445 3.0766,11.0754445 C2.1897,10.9199445 1.2959,10.8638445 0.4104,10.9036445 C0.204,10.9129445 0.0447,11.0853445 0.0447,11.2919445 L0.0447,11.2919445 C0.0447,11.5225445 0.2414,11.7034445 0.4718,11.6935445 C1.2912,11.6584445 2.1181,11.7111445 2.9386,11.8547445 C5.9174,12.3865445 8.5635,14.0752445 10.2965,16.5509445 C12.0292,19.0261445 12.7072,22.0861445 12.1814,25.0591445 C11.652,28.0311445 9.9621,30.6721445 7.483,32.4021445 C5.3044,33.9231445 2.6282,34.6741445 0,34.4691445 L0,37.0731445 Z">
              </path>
              <path
                d="M0,34.3091445 C1.9208,34.3601445 3.8653,33.8121445 5.4585,32.7001445 C7.4186,31.3331445 8.7545,29.2461445 9.1733,26.8971445 C9.5885,24.5481445 9.0522,22.1291445 7.6821,20.1731445 C6.3126,18.2168445 4.2212,16.8824445 1.8666,16.4625445 C1.2608,16.3563445 0.7274,16.3444445 0,16.3335445 L0,16.8092445 C0.578,16.7917445 1.2053,16.8295445 1.7835,16.9308445 C4.0137,17.3284445 5.9943,18.5921445 7.2918,20.4451445 C8.5889,22.2981445 9.0974,24.5891445 8.7042,26.8141445 C8.3074,29.0391445 7.0416,31.0161445 5.1858,32.3111445 C3.6728,33.3661445 1.8237,33.8841445 0,33.8331445 L0,34.3091445 Z">
              </path>
            </g>
          </g>
        </g>
        <polygon id="路径" fill="#000000" fill-rule="nonzero"
          points="152.8933 20.4821445 160.0003 31.2731445 153.3403 31.2731445 149.1523 24.6751445 146.6113 27.4581445 146.6113 31.2731445 141.0163 31.2731445 141.0163 5.12144454 146.6113 5.12144454 146.6113 20.7231445 152.7563 13.5063445 159.1763 13.5063445">
        </polygon>
        <path
          d="M130.7783,13.0252445 C132.7923,13.0252445 134.3603,13.6781445 135.4813,14.9840445 C136.6253,16.2898445 137.1983,18.2142445 137.1983,20.7571445 L137.1983,31.2731445 L131.6023,31.2731445 L131.6023,22.6471445 C131.6023,21.1581445 131.3733,20.0011445 130.9153,19.1761445 C130.4813,18.3517445 129.7483,17.9393445 128.7183,17.9393445 C127.6883,17.9393445 126.8883,18.3746445 126.3153,19.2451445 C125.7433,20.1161445 125.4573,21.3301445 125.4573,22.8881445 L125.4573,31.2731445 L119.8613,31.2731445 L119.8613,13.5063445 L124.8393,13.5063445 C124.8853,14.6518445 124.9883,15.5682445 125.1483,16.2555445 C126.2933,14.1020445 128.1693,13.0252445 130.7783,13.0252445 Z"
          id="路径" fill="#000000" fill-rule="nonzero"></path>
        <path
          d="M113.0213,11.6163445 C112.1283,11.6163445 111.3623,11.2956445 110.7213,10.6541445 C110.0803,9.98974454 109.7593,9.21084454 109.7593,8.31734454 C109.7593,7.40094454 110.0683,6.62204454 110.6863,5.98054454 C111.3273,5.31614454 112.1053,4.98394454 113.0213,4.98394454 C113.8903,4.98394454 114.6463,5.31614454 115.2873,5.98054454 C115.9503,6.64494454 116.2823,7.42384454 116.2823,8.31734454 C116.2823,9.21084454 115.9623,9.98974454 115.3213,10.6541445 C114.6803,11.2956445 113.9133,11.6163445 113.0213,11.6163445 Z M115.8363,31.2731445 L110.2403,31.2731445 L110.2403,13.5063445 L115.8363,13.5063445 L115.8363,31.2731445 Z"
          id="形状" fill="#000000" fill-rule="nonzero"></path>
        <polygon id="路径" fill="#000000" fill-rule="nonzero"
          points="106.1473 31.2731445 100.5513 31.2731445 100.5513 5.12144454 106.1473 5.12144454"></polygon>
        <path
          d="M90.3143,13.0252445 C92.3283,13.0252445 93.8953,13.6781445 95.0173,14.9840445 C96.1613,16.2898445 96.7333,18.2142445 96.7333,20.7571445 L96.7333,31.2731445 L91.1383,31.2731445 L91.1383,22.6471445 C91.1383,21.1581445 90.9093,20.0011445 90.4513,19.1761445 C90.0163,18.3517445 89.2843,17.9393445 88.2543,17.9393445 C87.2243,17.9393445 86.4233,18.3746445 85.8513,19.2451445 C85.2793,20.1161445 84.9933,21.3301445 84.9933,22.8881445 L84.9933,31.2731445 L79.3972,31.2731445 L79.3972,13.5063445 L84.3753,13.5063445 C84.4213,14.6518445 84.5243,15.5682445 84.6843,16.2555445 C85.8283,14.1020445 87.7053,13.0252445 90.3143,13.0252445 Z"
          id="路径" fill="#000000" fill-rule="nonzero"></path>
        <path
          d="M58.3353,13.0768445 C60.8986,13.0768445 62.8781,13.7984445 64.2742,15.2417445 C65.6704,16.6621445 66.3683,18.6781445 66.3683,21.2901445 L66.3683,31.3241445 L61.6652,31.3241445 C61.5508,30.3621445 61.4706,29.7201445 61.4249,29.4001445 C60.8756,30.2021445 60.212,30.7971445 59.4338,31.1871445 C58.6556,31.5761445 57.6716,31.7711445 56.4815,31.7711445 C55.2227,31.7711445 54.067,31.5531445 53.0142,31.1181445 C51.9843,30.6601445 51.1604,30.0181445 50.5425,29.1941445 C49.9475,28.3461445 49.6499,27.3491445 49.6499,26.2041445 C49.6499,25.0131445 49.9819,23.9701445 50.6455,23.0771445 C51.3321,22.1601445 52.2476,21.4621445 53.3918,20.9801445 C54.5361,20.4991445 55.7835,20.2591445 57.1337,20.2591445 C58.3925,20.2591445 59.6284,20.4761445 60.8413,20.9121445 C60.681,18.6671445 59.6627,17.5441445 57.786,17.5441445 C56.2068,17.5441445 55.0626,18.2773445 54.3531,19.7431445 L50.4052,17.4411445 C51.0688,16.0894445 52.0873,15.0241445 53.4605,14.2452445 C54.8566,13.4662445 56.4815,13.0768445 58.3353,13.0768445 Z M60.8413,24.3831445 C59.9487,24.1531445 59.1019,24.0391445 58.3009,24.0391445 C57.3627,24.0391445 56.6188,24.2111445 56.0695,24.5541445 C55.5203,24.8981445 55.2456,25.3561445 55.2456,25.9291445 C55.2456,26.4561445 55.4516,26.8681445 55.8635,27.1661445 C56.2755,27.4641445 56.8018,27.6131445 57.4427,27.6131445 C58.3123,27.6131445 59.0905,27.3611445 59.7771,26.8571445 C60.4866,26.3531445 60.8413,25.6771445 60.8413,24.8291445 L60.8413,24.3831445 Z"
          id="形状" fill="#000000" fill-rule="nonzero"></path>
        <path
          d="M72.4189,11.6163445 C71.5263,11.6163445 70.7597,11.2956445 70.1188,10.6541445 C69.478,9.98974454 69.1576,9.21084454 69.1576,8.31734454 C69.1576,7.40094454 69.4666,6.62204454 70.0845,5.98054454 C70.7254,5.31614454 71.5034,4.98394454 72.4189,4.98394454 C73.2885,4.98394454 74.0438,5.31614454 74.6847,5.98054454 C75.3483,6.64494454 75.6802,7.42384454 75.6802,8.31734454 C75.6802,9.21084454 75.3599,9.98974454 74.719,10.6541445 C74.0781,11.2956445 73.3115,11.6163445 72.4189,11.6163445 Z M75.2339,31.2731445 L69.6382,31.2731445 L69.6382,13.5063445 L75.2339,13.5063445 L75.2339,31.2731445 Z"
          id="形状" fill="#000000" fill-rule="nonzero"></path>
        <path
          d="M44.8415,13.0252445 C45.574,13.0252445 46.2606,13.1398445 46.9013,13.3689445 C47.5651,13.5980445 48.0571,13.8958445 48.3774,14.2623445 L46.2147,18.5231445 C45.4824,18.0424445 44.7501,17.8019445 44.0176,17.8019445 C42.8047,17.8019445 41.8435,18.3059445 41.1339,19.3141445 C40.4246,20.3221445 40.0697,21.6851445 40.0697,23.4031445 L40.0697,31.2731445 L34.474,31.2731445 L34.474,13.5063445 L39.4518,13.5063445 C39.4977,14.6289445 39.6007,15.5453445 39.7607,16.2555445 C40.2873,15.2016445 40.9852,14.3998445 41.8548,13.8500445 C42.7474,13.3001445 43.743,13.0252445 44.8415,13.0252445 Z"
          id="路径" fill="#000000" fill-rule="nonzero"></path>
      </g>
    </g>
  </g>
</svg>