<svg width="146" height="36" viewBox="0 0 146 36" fill="none" xmlns="http://www.w3.org/2000/svg">
<g clip-path="url(#clip0_1112_6871)">
<circle cx="18.2534" cy="18" r="18" fill="white"/>
<path d="M17.378 18.2918C19.0321 18.3891 19.0321 18.3891 18.8375 20.1404C18.8375 20.4323 18.7402 20.7242 18.7402 21.0161C18.7402 21.5999 18.2537 21.5999 17.8645 21.5999C16.6969 21.5999 15.5294 21.8918 14.3618 21.8918C13.2915 21.8918 13.1942 22.1837 13.5834 23.1566C14.2645 24.8107 15.5294 25.6864 17.2807 25.7837C17.6699 25.7837 18.1564 25.6864 18.5456 26.1729C18.4483 27.1458 18.4483 28.1188 18.351 29.0918C18.351 29.7729 18.0591 30.1621 17.2807 30.0648C12.124 29.8702 7.06451 25.1999 6.48073 20.0431C6.28613 19.5567 6.48073 19.0702 6.28613 18.5837C6.28613 18.2918 6.28613 18.0972 6.28613 17.8053C6.86992 17.9026 6.96721 18.3891 7.25911 18.7783C8.62127 20.9188 9.59424 21.4053 12.124 20.9188C13.9726 20.5296 15.6267 19.9458 16.8915 18.4864C16.9888 18.3891 17.1834 18.2918 17.378 18.2918Z" fill="#F7B93A"/>
<path d="M17.3784 18.2916C15.7244 20.5294 13.2919 21.3078 10.6649 21.5024C9.10815 21.5997 8.13517 20.724 7.35679 19.4591C7.0649 18.9727 6.67571 18.3889 6.38382 17.8051C6.38382 16.6375 6.09193 15.3727 7.0649 14.3997C7.45409 13.524 8.23247 13.2321 9.01085 12.9402C11.7352 11.9673 14.6541 11.7727 17.4757 11.3835C17.6703 11.3835 17.9622 11.3835 18.1568 11.5781C20.9784 11.3835 23.8 10.9943 26.6217 11.4808C26.9136 11.9673 25.2595 11.87 26.4271 12.551C26.1352 12.9402 25.6487 12.8429 25.1622 12.8429C23.4109 12.6483 21.6595 12.6483 19.9081 12.9402C18.4487 13.2321 18.1568 13.7186 18.8379 15.0808C19.9081 17.2213 21.7568 17.8051 23.8973 18.097C24.0919 18.097 24.3838 18.097 24.5784 18.097C27.4 18.097 27.4 18.097 28.4703 15.47C28.5676 15.2754 28.6649 15.0808 28.9568 14.9835C29.1514 15.2754 29.2487 15.47 29.4433 15.7619C29.9298 15.7619 29.8325 16.0537 29.7352 16.3456C29.2487 18.6808 28.4703 19.3619 26.2325 19.5564C23.2163 19.8483 20.3946 19.4591 18.1568 17.0267C17.6703 17.3186 17.6703 17.8051 17.3784 18.2916Z" fill="#01C0AD"/>
<path d="M28.9556 15.081C28.9556 15.081 28.9556 15.1783 28.8583 15.1783C28.0799 18.5837 27.788 18.7783 24.2853 18.4864C21.6583 18.2918 19.3232 17.6107 18.2529 14.8864C17.7664 13.6215 18.1556 12.9405 19.5178 12.7459C21.561 12.454 23.7016 12.454 25.8421 12.6486C26.0367 12.6486 26.2313 12.6486 26.4259 12.6486C27.8853 12.8432 28.8583 13.4269 28.9556 15.081Z" fill="black"/>
<path d="M18.2536 11.5784C15.6266 12.0649 12.9023 12.1622 10.3726 12.8433C9.1077 13.1352 8.03743 13.6216 7.06445 14.4C7.94013 10.4108 12.5131 6.71354 16.8915 6.32435C18.9347 6.12975 18.9347 6.12975 18.6428 8.27029C18.4482 9.34056 18.3509 10.4108 18.2536 11.5784Z" fill="#F7B93A"/>
<path d="M18.5458 26.0756C16.1134 26.1729 14.1675 25.3946 13.1945 23.0594C12.708 21.7946 12.9026 21.5027 14.2648 21.4054C15.6269 21.3081 16.8918 21.2108 18.254 21.1135C18.4485 21.1135 18.6431 20.9189 18.7404 20.9189C19.908 21.1135 21.0756 20.9189 22.1458 20.8216C22.9242 20.7243 23.1188 21.0162 23.1188 21.6973C23.2161 23.3513 20.9783 26.1729 18.5458 26.0756Z" fill="#FD9F53"/>
<path d="M19.7127 0.194343C20.0265 1.26127 19.9759 2.3282 19.9266 3.36902C19.8995 3.94178 19.8727 4.50662 19.9073 5.05921C19.9073 5.53057 19.5901 5.49448 19.3143 5.4631C19.2485 5.45561 19.1851 5.4484 19.1289 5.4484C18.6424 5.4484 18.2532 5.3511 18.2532 4.67002V0.0970459C18.7397 0.194343 19.2262 0.194343 19.7127 0.194343Z" fill="url(#paint0_linear_1112_6871)"/>
<path d="M0.447754 17.3187C1.37511 17.0714 2.34176 17.0991 3.32273 17.1272C3.88558 17.1433 4.45316 17.1596 5.02073 17.1241C5.62517 17.1241 5.61655 17.5074 5.60696 17.9337C5.60574 17.9877 5.60451 18.0424 5.60451 18.0971C5.60451 18.5836 5.40992 18.7782 4.92343 18.7782H0.447754V17.3187Z" fill="url(#paint1_linear_1112_6871)"/>
<path fill-rule="evenodd" clip-rule="evenodd" d="M16.6211 34.6521C16.6427 33.7765 16.6639 32.9149 16.5993 32.0105C16.502 30.8429 16.8912 30.4537 18.0587 30.6483C18.0658 30.6862 18.0726 30.7241 18.0792 30.762C18.386 31.1068 18.3395 31.5323 18.2907 31.98C18.2721 32.1502 18.2532 32.3236 18.2532 32.4971V35.9998L16.5993 35.9997C16.5993 35.5422 16.6103 35.095 16.6211 34.6521ZM17.1109 35.9696C17.2546 35.9305 17.3807 35.8821 17.4901 35.8234C17.3457 35.8367 17.2074 35.8654 17.1109 35.9696Z" fill="url(#paint2_linear_1112_6871)"/>
<path d="M18.9344 35.9998V31.4268C18.9344 31.3776 18.9328 31.3277 18.9313 31.2793C18.9207 30.945 18.9112 30.6484 19.4209 30.6484C20.0047 30.6484 20.0047 31.0376 19.9074 31.3295C19.8749 31.8484 19.8965 32.3673 19.9182 32.8863C19.9614 33.9241 20.0047 34.9619 19.6155 35.9998H18.9344Z" fill="url(#paint3_linear_1112_6871)"/>
<path d="M17.2802 0.194319C17.5929 1.25764 17.5438 2.32096 17.4946 3.38428C17.4673 3.97501 17.44 4.56575 17.4748 5.15648C17.4748 5.54567 17.1829 5.64297 16.891 5.54567C16.5018 5.54567 16.5018 5.25378 16.5018 4.96189V0.194319H17.2802Z" fill="url(#paint4_linear_1112_6871)"/>
<path d="M0.447754 16.0538C0.545051 15.9889 0.620727 15.9133 0.692798 15.8412C0.836943 15.6971 0.966673 15.5673 1.22613 15.5673H5.21532C5.25791 15.5673 5.30049 15.5653 5.34217 15.5632C5.58617 15.5514 5.79911 15.541 5.79911 15.9565C5.79911 16.3457 5.40992 16.3457 5.21532 16.3457H0.545051C0.447754 16.2484 0.447754 16.1511 0.447754 16.0538Z" fill="url(#paint5_linear_1112_6871)"/>
<path d="M15.3343 35.5132C14.8478 35.6105 14.5559 35.4159 14.6532 34.8322V32.9835C14.6532 32.9064 14.6608 32.8256 14.6685 32.7439C14.6998 32.4131 14.7322 32.0693 14.264 31.9132C13.7547 31.7677 13.6262 32.1119 13.5125 32.4169C13.4741 32.5197 13.4374 32.618 13.3883 32.6916C13.2424 32.9349 13.0965 33.2024 12.9505 33.47C12.8046 33.7376 12.6586 34.0051 12.5127 34.2484C12.4154 34.443 12.2208 34.6376 11.9289 34.5403C11.7343 34.443 11.7343 34.2484 11.8316 34.0538C11.9289 33.6646 12.0505 33.2755 12.1721 32.8863C12.2937 32.4971 12.4154 32.1078 12.5127 31.7186L12.5312 31.664C12.6204 31.4019 12.6824 31.2198 12.3181 31.0376C12.0262 30.843 11.8316 31.0376 11.637 31.2322C11.4424 31.4268 11.2478 31.6105 11.0532 31.7943C10.664 32.1619 10.2748 32.5295 9.88564 32.9835C9.39915 33.5673 8.91267 33.2754 8.52348 32.9835C7.92418 32.5554 8.37956 32.278 8.69642 32.085C8.73961 32.0587 8.78036 32.0339 8.81537 32.0105C9.09214 31.7338 9.36103 31.4177 9.63101 31.1003C10.31 30.302 10.9963 29.495 11.8316 29.2862C12.587 29.0802 13.5364 29.5528 14.4744 30.0198C14.8652 30.2144 15.2541 30.408 15.6262 30.5511C15.6264 30.5523 15.6266 30.5535 15.6268 30.5546C15.6264 30.5208 15.6262 30.4872 15.6262 30.4538C15.9389 31.5171 15.8898 32.5804 15.8406 33.6437C15.8133 34.2345 15.786 34.8252 15.8208 35.4159C15.7235 35.7078 15.5289 35.7078 15.3343 35.5132C15.3343 35.5133 15.3343 35.5132 15.3343 35.5132Z" fill="url(#paint6_linear_1112_6871)"/>
<path d="M20.9776 30.4538C21.2628 30.3501 21.555 30.2533 21.8486 30.156C22.6564 29.8883 23.4748 29.6171 24.1884 29.189C24.5776 28.9944 24.8695 28.9944 25.2586 29.3836C25.8459 30.0361 26.4772 30.6451 27.0933 31.2395C27.3958 31.5313 27.6947 31.8196 27.983 32.1079C28.0146 32.1395 28.0513 32.1711 28.0889 32.2035C28.2834 32.3708 28.5036 32.5602 28.1776 32.8863C28.131 32.9173 28.0845 32.9533 28.0372 32.9898C27.7877 33.1827 27.5162 33.3925 27.1073 32.9836L25.3559 31.2322C25.1613 31.0376 24.9668 30.843 24.6749 31.0376C24.383 31.2322 24.383 31.5241 24.4803 31.816C24.6749 32.4971 24.8695 33.1782 25.1614 33.8593C25.2586 34.1511 25.3559 34.5403 24.9668 34.7349C24.5377 34.9066 24.4114 34.6241 24.3208 34.4215C24.3086 34.3944 24.2972 34.3687 24.2857 34.3457C24.1719 34.1181 24.0433 33.8905 23.9114 33.6572C23.7051 33.292 23.4908 32.9126 23.3127 32.4971C23.1181 32.0106 22.8262 31.9133 22.3397 32.0106C22.0921 32.5059 22.1202 33.0013 22.1483 33.4966C22.1644 33.7796 22.1805 34.0627 22.1451 34.3457C22.1036 34.512 22.1153 34.6961 22.1272 34.8827C22.1431 35.1329 22.1593 35.3877 22.0478 35.6106C21.7559 35.7079 21.4641 35.8052 21.0749 35.7079C21.0394 35.4835 21.0069 35.2606 20.9775 35.0391V35.5132C20.5883 33.8592 20.5884 32.1079 20.9776 30.4538Z" fill="url(#paint7_linear_1112_6871)"/>
<path d="M6.091 21.697C6.28559 22.7673 6.86938 23.643 7.45316 24.4213C8.13424 25.3943 7.84235 25.9781 7.06397 26.5619C6.86938 26.7565 6.67478 26.9511 6.38289 27.1457C6.35087 27.1457 6.31926 27.1452 6.28811 27.1443C6.07645 27.3611 5.8648 27.5939 5.65314 27.8267C5.40989 28.0943 5.16665 28.3619 4.92341 28.6051C4.63152 28.897 4.33962 29.0916 4.04773 28.6051C3.75584 28.3132 3.56124 27.924 3.95043 27.5349C4.2835 27.335 4.57097 27.0896 4.87527 26.8297C5.01542 26.7101 5.15921 26.5873 5.3126 26.4646C5.32704 26.4754 5.34161 26.4857 5.3563 26.4955C5.45488 26.3576 5.59502 26.227 5.73228 26.0991C6.0488 25.8041 6.35001 25.5235 6.091 25.1997C5.74735 24.6499 5.25806 24.8768 4.7946 25.0918C4.60195 25.1812 4.41376 25.2684 4.24235 25.297C3.73272 25.297 3.29724 25.4453 2.80645 25.6124L2.8046 25.6131L2.80359 25.6134C2.7331 25.6374 2.66146 25.6618 2.58829 25.6862C2.2964 25.7835 2.10181 25.5889 2.00451 25.3943C1.90721 25.1024 2.10181 25.0051 2.2964 24.9078C2.97748 24.5186 3.65857 24.1294 4.43694 23.8375C5.02073 23.643 5.11802 23.2538 5.11802 22.7673C5.02075 22.7284 4.92347 22.6963 4.82619 22.6699C3.89046 22.6692 2.95473 22.6617 2.01899 22.5825C1.87365 22.5953 1.72161 22.6143 1.57573 22.5966C1.28706 22.6208 1.03171 22.6065 1.03163 22.1837C1.0316 22.1836 1.03167 22.1837 1.03163 22.1837C1.03163 22.0864 1.00721 22.0132 0.982889 21.9403C0.958568 21.8673 0.934247 21.7943 0.93424 21.697C1.28195 21.2625 1.78501 21.3714 2.2352 21.469C2.63737 21.5561 3.07666 21.4742 3.48245 21.4383C4.37786 21.3591 5.25917 21.2811 6.091 21.697C6.09103 21.697 6.09097 21.697 6.091 21.697Z" fill="url(#paint8_linear_1112_6871)"/>
<path d="M6.57744 4.86464C6.62609 4.91329 6.69906 4.96193 6.77203 5.01058C6.84501 5.05923 6.91798 5.10788 6.96663 5.15653L9.88555 8.07545C10.2747 8.46464 10.0801 8.65923 9.78825 8.95112C9.6721 9.0092 9.57329 9.10194 9.47887 9.19054C9.25692 9.39884 9.05928 9.58432 8.71798 9.24302L5.70176 6.2268C5.50717 6.0322 5.31257 5.83761 5.60447 5.54572C5.65401 5.49618 5.70085 5.44652 5.74669 5.39793C5.97088 5.16029 6.17359 4.94541 6.57744 4.86464Z" fill="url(#paint9_linear_1112_6871)"/>
<path d="M9.78836 27.0484C9.62546 27.4557 9.39437 27.6584 9.26634 27.7707C9.24143 27.7925 9.22043 27.811 9.20458 27.8268C8.98414 28.0473 8.7637 28.2615 8.54481 28.4743C7.89421 29.1067 7.25726 29.7258 6.67485 30.4538C6.18836 31.0376 5.89647 30.7457 5.50728 30.3565C5.11809 29.9674 4.9235 29.7728 5.40999 29.2863C6.05862 28.7025 6.62077 28.1187 7.18292 27.535C7.464 27.2431 7.74512 26.9511 8.03701 26.6592C8.06453 26.6317 8.09205 26.6023 8.11985 26.5725C8.2886 26.3918 8.46748 26.2003 8.71809 26.3674C8.91268 26.4646 9.08294 26.5863 9.2532 26.7079C9.42347 26.8295 9.59377 26.9511 9.78836 27.0484Z" fill="url(#paint10_linear_1112_6871)"/>
<path d="M35.2803 20.6268H31.7776C31.7076 20.6268 31.6281 20.6362 31.5454 20.6461C31.1685 20.6909 30.7248 20.7436 30.8046 19.9457C30.8122 19.9001 30.8193 19.8547 30.8261 19.8105C30.9073 19.2893 30.9705 18.8831 31.7776 18.9727C32.556 19.0376 33.3343 19.016 34.1127 18.9944C34.5019 18.9835 34.8911 18.9727 35.2803 18.9727C35.7668 18.9727 36.0587 19.07 36.0587 19.6538C36.0587 20.2376 35.9614 20.6268 35.2803 20.6268Z" fill="url(#paint11_linear_1112_6871)"/>
<path d="M26.7181 27.5348C26.9127 27.6321 27.1073 27.7294 27.2046 27.924L29.8316 30.5511C30.2208 30.9402 30.3181 31.2321 29.8316 31.6213C29.7791 31.6607 29.7284 31.7018 29.6788 31.7421C29.3602 32.0005 29.0849 32.2237 28.664 31.7186C28.2749 31.2808 27.8371 30.843 27.3993 30.4052C26.9614 29.9674 26.5235 29.5294 26.1343 29.0916C26.0915 29.0489 26.0347 29.0061 25.9752 28.9613C25.7635 28.8021 25.5173 28.6169 25.7451 28.3132C25.9761 28.0822 26.207 27.9122 26.4862 27.7066L26.4872 27.7059C26.5605 27.652 26.6372 27.5955 26.7181 27.5348Z" fill="url(#paint12_linear_1112_6871)"/>
<path d="M29.1505 26.0753C28.664 25.7834 28.4695 25.4916 28.8587 25.0051C29.0526 24.7143 29.2222 24.3992 29.3918 24.084L29.3938 24.0808C29.564 23.7646 29.7343 23.4484 29.9289 23.1565C30.1235 21.7944 30.8046 21.2106 32.264 21.4052C32.8445 21.4697 33.4678 21.4487 34.1055 21.4272C34.4297 21.4163 34.7577 21.4052 35.0856 21.4052C35.1352 21.4052 35.1848 21.4024 35.2334 21.3996C35.4711 21.3862 35.686 21.374 35.7667 21.6971C35.7667 22.0863 35.5721 22.3782 35.1829 22.3782H32.3613C31.6803 22.3782 31.2912 22.5728 31.3884 23.351C31.7371 23.5448 32.0858 23.7231 32.4283 23.8982C32.946 24.1629 33.4497 24.4204 33.9181 24.7132L33.9644 24.7285C34.2489 24.8217 34.5891 24.9331 34.4046 25.3943C34.2649 25.8135 34.0248 25.731 33.7925 25.6512C33.7012 25.6198 33.6112 25.5889 33.5289 25.5889C32.7505 25.3943 32.0695 25.1997 31.2911 24.9078C30.6159 24.7149 30.3232 24.9045 30.2234 25.5713C30.2549 25.5767 30.2865 25.5826 30.318 25.5889C30.7072 25.9294 31.0721 26.27 31.437 26.6105C31.8018 26.9511 32.1667 27.2916 32.5559 27.6321C33.1396 28.1186 32.8478 28.4105 32.4586 28.7997C32.0685 29.2678 31.8661 28.9852 31.7008 28.7545C31.66 28.6975 31.6214 28.6437 31.5829 28.6051C30.8045 27.7294 30.0262 26.951 29.1505 26.0753Z" fill="url(#paint13_linear_1112_6871)"/>
<path d="M29.0501 9.62613C28.9032 9.97305 28.7693 10.2891 28.664 10.6052C27.691 10.0214 27.4964 9.53488 28.3721 8.7565C28.9559 8.30245 29.4532 7.76191 29.9505 7.22137C30.1991 6.9511 30.4478 6.68083 30.7072 6.42137C31.0964 6.03218 31.3883 5.83758 31.7775 6.32407C32.1667 6.71326 32.4586 7.10245 31.8748 7.58894C31.5462 7.8518 31.262 8.15905 30.9922 8.45073C30.8626 8.59088 30.7362 8.7275 30.6099 8.8538C30.5805 8.8891 30.5514 8.92439 30.5227 8.95925C30.0769 9.50084 29.7165 9.93863 29.4423 8.65921C29.3085 9.01611 29.1746 9.33229 29.0501 9.62613Z" fill="url(#paint14_linear_1112_6871)"/>
<path d="M22.1451 5.83761C22.6315 5.83761 22.7802 5.49977 22.9288 5.16194C22.9586 5.09437 22.9883 5.0268 23.0207 4.96193C23.264 4.47545 23.5315 3.98896 23.7991 3.50247C24.0667 3.01599 24.3342 2.5295 24.5775 2.04302L24.592 1.99904C24.6854 1.71426 24.7962 1.37639 25.2586 1.65383C25.6164 1.83273 25.4807 2.09402 25.3809 2.28619C25.3721 2.30299 25.3637 2.31926 25.3559 2.33491C25.2811 2.57785 25.2062 2.81782 25.1321 3.05496C24.8206 4.05226 24.5214 5.01049 24.2856 6.0322C24.091 6.71328 23.7991 6.71329 23.2153 6.42139C22.8536 6.24055 22.4079 6.0597 21.9562 5.95695C21.9219 5.97562 21.8875 5.99785 21.8531 6.03223C20.8801 6.03223 20.5882 5.54574 20.5882 4.57277C20.6528 3.79806 20.6317 3.06619 20.6102 2.32031C20.5993 1.94207 20.5882 1.56022 20.5882 1.16736C20.5882 0.778175 20.5882 0.388985 21.0747 0.388985C21.5612 0.388985 21.6585 0.680877 21.6585 1.07007V4.47547C21.7257 4.67704 21.7581 4.85541 21.7877 5.01859C21.8439 5.32797 21.8903 5.58283 22.1451 5.83761Z" fill="url(#paint15_linear_1112_6871)"/>
<path d="M14.5559 1.65383V6.0322C15.5288 6.0322 15.8207 5.54572 15.6261 4.57274C15.6261 4.24842 15.6369 3.9241 15.6478 3.59977C15.6694 2.95113 15.691 2.30247 15.6261 1.65383C15.6261 1.56784 15.6451 1.46286 15.6653 1.35147C15.7364 0.958687 15.8219 0.486259 15.1397 0.486259C14.4889 0.486259 14.5182 0.962289 14.5453 1.40267C14.5506 1.48905 14.5559 1.57405 14.5559 1.65383Z" fill="url(#paint16_linear_1112_6871)"/>
<path d="M31.8749 15.0809C31.4857 15.0809 30.9992 15.0809 30.9019 14.5944C31.55 13.8743 32.4645 13.4739 33.3694 13.0777C33.6872 12.9387 34.0037 12.8001 34.3072 12.6484C34.3892 12.5937 34.4942 12.5544 34.5985 12.5153C34.8656 12.4154 35.1282 12.3171 34.9883 11.9673C34.823 11.5542 34.4471 11.7024 34.1588 11.8161C34.1076 11.8362 34.0593 11.8553 34.0153 11.87C33.6261 12.0159 33.2126 12.1862 32.7991 12.3565C32.3856 12.5267 31.9721 12.697 31.5829 12.8429C30.1491 13.3806 30.0358 13.4231 30.559 14.7187C30.5249 14.7945 30.5731 14.8883 30.6532 14.9497L30.7003 15.0641C30.6324 15.978 31.0265 16.343 31.9722 16.2484C32.293 16.2484 32.6244 16.259 32.9594 16.2697C33.6404 16.2914 34.3363 16.3136 34.9884 16.2484C35.0768 16.2484 35.1801 16.2685 35.2872 16.2892C35.6517 16.3599 36.0587 16.4389 36.0587 15.7619C36.0587 15.0598 35.5044 15.0702 35.0388 15.079C34.9882 15.0799 34.9388 15.0809 34.8911 15.0809H31.8749Z" fill="url(#paint17_linear_1112_6871)"/>
<path d="M3.95043 8.22134C3.85313 8.14837 3.75584 8.0754 3.65855 7.9781C3.54456 8.09209 3.46395 8.20609 3.39718 8.30052C3.34996 8.36729 3.30966 8.42429 3.26936 8.46459C3.07476 8.85378 3.26936 9.14567 3.46395 9.34027L6.09098 11.9673C6.13576 12.0121 6.18055 12.0826 6.22889 12.1588C6.3906 12.4135 6.59213 12.731 6.96666 12.3565C7.35584 11.9673 7.35584 11.4808 6.86936 11.0916L4.24233 8.46459C4.14503 8.36729 4.04772 8.29431 3.95043 8.22134Z" fill="url(#paint18_linear_1112_6871)"/>
<path d="M8.52354 4.08619C8.32894 3.89159 8.13435 3.697 7.84246 3.697C7.79685 3.7274 7.74413 3.7578 7.68947 3.78931C7.39428 3.95952 7.04278 4.16219 7.45327 4.57267C8.10543 5.29006 8.80133 5.96375 9.48233 6.62301C9.8173 6.94729 10.1487 7.26809 10.4695 7.58889C10.8587 7.97808 11.1506 7.88078 11.4425 7.58889C11.8353 7.27465 11.5937 7.08727 11.3837 6.92433C11.3336 6.88546 11.2853 6.84799 11.2479 6.81051L8.52354 4.08619Z" fill="url(#paint19_linear_1112_6871)"/>
<path d="M25.8199 6.03214C25.4533 6.40988 25.0756 6.79907 24.6749 7.19972C25.1974 7.56546 25.4393 7.73479 25.6568 7.70773C25.8443 7.6844 26.0136 7.51506 26.329 7.19972L28.7614 4.76729C28.804 4.7247 28.8487 4.68418 28.8924 4.64453C29.1482 4.4124 29.3715 4.20982 28.956 3.79431C28.4695 3.40512 28.1776 3.69702 27.8857 3.98891C27.1827 4.62801 26.5217 5.30908 25.8199 6.03214Z" fill="url(#paint20_linear_1112_6871)"/>
<path d="M33.5289 17.0268H35.4748C35.864 17.0268 36.0586 17.2214 36.0586 17.6106C36.0586 17.9998 35.864 18.1944 35.4748 18.1944H31.4856C31.0964 18.1944 30.9019 17.9025 30.9019 17.6106C30.9019 17.2214 31.0965 17.1241 31.3883 17.1241C32.1667 17.0268 32.8478 17.0268 33.5289 17.0268Z" fill="url(#paint21_linear_1112_6871)"/>
<path d="M30.519 5.55814C30.5511 5.51624 30.5806 5.47786 30.6101 5.4484C30.6101 5.12599 30.4765 5.0039 30.3201 4.86086C30.2877 4.83123 30.2543 4.80071 30.2209 4.76732C29.9725 4.60176 29.8651 4.71791 29.7187 4.8761C29.693 4.90384 29.6661 4.93288 29.6371 4.96192L26.8155 7.78354C26.7839 7.81512 26.7472 7.84669 26.7095 7.8791C26.5151 8.04641 26.2948 8.23588 26.6209 8.56192C26.9128 8.85381 27.2047 8.95111 27.4966 8.56192C27.7849 8.27354 28.0839 7.98516 28.3864 7.69331C29.0025 7.09898 29.6336 6.49009 30.2209 5.83759C30.3566 5.76975 30.4449 5.65462 30.519 5.55814Z" fill="url(#paint22_linear_1112_6871)"/>
<path d="M5.11806 6.76189C5.02076 6.68891 4.92347 6.61594 4.82617 6.51864C4.63158 6.71324 4.53428 6.81054 4.33968 6.90783C4.14509 7.29702 4.43698 7.49162 4.63158 7.58891C4.91995 7.87729 5.20833 8.17622 5.50017 8.47874C6.09455 9.09487 6.70334 9.72594 7.3559 10.3132C7.40312 10.3605 7.4446 10.4306 7.48731 10.5028C7.62062 10.7281 7.76583 10.9736 8.13428 10.6051C8.52347 10.2159 8.42617 9.92405 8.03698 9.63216L5.40995 7.00513C5.31266 6.90783 5.21536 6.83486 5.11806 6.76189Z" fill="url(#paint23_linear_1112_6871)"/>
<path d="M7.06409 31.9133C7.16139 31.9863 7.25869 32.0592 7.35599 32.1079C7.55058 32.0106 7.64788 31.9133 7.64788 31.9133L10.6641 28.8971C10.956 28.7025 10.956 28.4106 10.6641 28.216C10.3722 28.0214 10.1776 27.9241 9.88571 28.216L6.8695 31.2322C6.7722 31.3295 6.57761 31.5241 6.7722 31.7187C6.8695 31.7673 6.96679 31.8403 7.06409 31.9133Z" fill="url(#paint24_linear_1112_6871)"/>
<path d="M12.1726 3.0405C11.935 2.58622 11.6938 2.12507 11.4424 1.65378C11.3451 1.70243 11.2721 1.72675 11.1992 1.75108C11.1262 1.7754 11.0532 1.79972 10.9559 1.84837C11.4424 3.30783 11.9289 4.86459 12.3181 6.32405C12.4811 6.8131 12.7807 6.68762 13.0452 6.57681C13.0964 6.55535 13.1464 6.53443 13.1937 6.51864C13.2399 6.50326 13.2909 6.49032 13.3429 6.47711C13.62 6.40676 13.926 6.32907 13.6802 5.83756C13.1532 4.91528 12.6708 3.99297 12.1726 3.0405Z" fill="url(#paint25_linear_1112_6871)"/>
<path d="M31.3884 30.1132C31.4614 30.0403 31.5344 29.9673 31.583 29.87C31.5546 29.8133 31.5346 29.7648 31.5179 29.7246C31.4776 29.6273 31.4572 29.5781 31.3884 29.5781C30.671 28.9259 29.9974 28.23 29.3381 27.549C29.0138 27.2141 28.693 26.8827 28.3722 26.5619C28.1776 26.27 27.8857 26.27 27.6911 26.5619C27.4965 26.8538 27.3992 27.0484 27.6911 27.3403L30.61 30.2592C30.7073 30.4538 30.9019 30.5511 31.1938 30.3565C31.2425 30.2592 31.3154 30.1862 31.3884 30.1132Z" fill="url(#paint26_linear_1112_6871)"/>
<path d="M6.18829 13.3294C5.40992 13.0862 4.65586 12.8673 3.90181 12.6483C3.14782 12.4294 2.39364 12.2105 1.61532 11.9673C1.57266 12.0099 1.54871 12.0713 1.52705 12.1268C1.49932 12.1978 1.47536 12.2592 1.42073 12.2592C2.15046 12.6483 2.85586 13.0375 3.56127 13.4267C4.26667 13.8159 4.97208 14.2051 5.70181 14.5943C6.08874 14.8265 6.16792 14.5662 6.23308 14.3521C6.24984 14.297 6.26568 14.2449 6.28559 14.2051C6.3067 14.1418 6.34156 14.0738 6.37724 14.0043C6.50598 13.7535 6.6454 13.4818 6.18829 13.3294Z" fill="url(#paint27_linear_1112_6871)"/>
<path d="M5.69752 19.744C5.47201 19.3745 5.18909 19.4063 4.89317 19.4396C4.8067 19.4493 4.71912 19.4592 4.63154 19.4592H0.447754V20.4322H0.642348C0.699685 20.4003 0.739693 20.3527 0.739693 20.4322C1.87188 20.786 3.00407 20.7281 4.13626 20.6702C4.56082 20.6485 4.98539 20.6268 5.40996 20.6268C5.93022 20.6268 5.88275 20.3429 5.83133 20.0354C5.81543 19.9403 5.79915 19.843 5.79915 19.7511L5.69752 19.744Z" fill="url(#paint28_linear_1112_6871)"/>
<path d="M30.7073 11.3836C30.3181 11.189 29.9289 10.7998 30.3181 10.4106C30.9992 9.63221 31.7776 8.85383 32.4587 8.17274C32.6533 7.97815 32.8479 7.97815 32.9452 8.17274C33.1398 8.27004 33.3343 8.46464 33.3343 8.65923C33.4316 8.95112 31.0965 11.3836 30.7073 11.3836Z" fill="url(#paint29_linear_1112_6871)"/>
<path d="M9.39925 3.79439L10.8587 5.54574C10.956 5.44845 11.0533 5.35115 11.1506 5.35115C10.956 4.57277 10.7614 3.89169 10.4695 3.11331C10.4445 3.03832 10.4324 2.94406 10.4199 2.84703C10.3837 2.56641 10.3445 2.26263 9.98304 2.33493C9.59385 2.43223 9.10736 2.72412 8.91277 3.01601C8.69385 3.30791 8.96749 3.49034 9.2001 3.64541C9.27763 3.69709 9.3506 3.74574 9.39925 3.79439Z" fill="url(#paint30_linear_1112_6871)"/>
<path d="M12.9992 2.91871C13.1938 3.28357 13.3884 3.64843 13.583 3.98897C13.6803 3.89167 13.7775 3.89167 13.8748 3.89167V1.45924C13.8748 0.875455 13.3884 0.972752 12.9992 1.07005C12.9503 1.08633 12.8906 1.09988 12.8268 1.11435C12.5094 1.18641 12.0913 1.28128 12.4154 1.84843C12.61 2.18897 12.8046 2.55384 12.9992 2.91871Z" fill="url(#paint31_linear_1112_6871)"/>
<path d="M3.38641 11.6603C3.74969 11.7934 4.13005 11.9327 4.63159 11.87C4.37094 11.2835 3.93571 10.8716 3.53052 10.4881C3.33071 10.299 3.13821 10.1168 2.97754 9.92403C2.68565 9.72944 2.49105 9.72944 2.39376 10.0213C2.35778 10.0843 2.32098 10.1464 2.2848 10.2075C1.92961 10.807 1.63503 11.3042 2.78294 11.4808C2.99057 11.5154 3.18589 11.5869 3.38641 11.6603Z" fill="url(#paint32_linear_1112_6871)"/>
<path d="M1.71265 14.7889H3.6586C3.7559 14.6916 3.7559 14.6916 3.6586 14.4971C3.07482 14.1079 2.58833 13.816 2.00455 13.5241C1.921 13.4962 1.82948 13.4365 1.73455 13.3745C1.49783 13.22 1.23992 13.0517 1.03157 13.3295C0.836978 13.6214 0.642384 14.1079 0.739681 14.4971C0.817024 14.8838 1.20177 14.8401 1.50295 14.8059C1.58065 14.7971 1.65279 14.7889 1.71265 14.7889Z" fill="url(#paint33_linear_1112_6871)"/>
<path d="M25.745 3.98891C25.6477 4.30512 25.5504 4.62133 25.4531 4.96186L25.6477 5.15646C25.8788 4.87912 26.1099 4.62375 26.3306 4.3799C26.5745 4.11045 26.8056 3.85508 27.0099 3.5997C27.0585 3.55105 27.1315 3.5024 27.209 3.45071C27.4416 3.29565 27.7153 3.11321 27.4964 2.82132C27.3018 2.52943 26.9126 2.23754 26.5234 2.23754C26.2201 2.23754 26.1531 2.53304 26.0923 2.80161C26.0751 2.8776 26.0584 2.95155 26.0369 3.01592C25.9396 3.35646 25.8423 3.67269 25.745 3.98891Z" fill="url(#paint34_linear_1112_6871)"/>
<path d="M22.6315 1.55647V3.59971C22.7288 3.59971 22.7288 3.59971 22.9234 3.50241C23.2153 3.01592 23.5072 2.43214 23.7991 1.84836C23.8223 1.802 23.8676 1.75012 23.9165 1.69403C24.073 1.51468 24.267 1.29233 23.8964 1.06998C23.8619 1.05849 23.8248 1.04565 23.7855 1.0321C23.4924 0.930811 23.0836 0.789572 22.8261 0.875385C22.5364 0.875385 22.5702 1.09114 22.6064 1.32185C22.6188 1.401 22.6315 1.48191 22.6315 1.55647Z" fill="url(#paint35_linear_1112_6871)"/>
<path d="M34.5991 13.2322C34.0153 13.5241 33.5288 13.816 33.0424 14.1079C33.0424 14.1565 33.0667 14.2051 33.091 14.2538C33.1153 14.3024 33.1396 14.3511 33.1396 14.3997H34.7937C34.8919 14.367 35.001 14.3783 35.1064 14.3892C35.3144 14.4107 35.5075 14.4307 35.5721 14.1079C35.5721 13.7187 35.5721 13.3295 35.3775 13.1349C35.2391 12.8582 35.0516 12.9749 34.8499 13.1005C34.7679 13.1515 34.6835 13.204 34.5991 13.2322Z" fill="url(#paint36_linear_1112_6871)"/>
<path d="M33.0335 10.3957C32.7174 10.6752 32.3868 10.9674 32.1668 11.4808C32.4251 11.3947 32.6835 11.3276 32.9334 11.2627C33.2482 11.181 33.5496 11.1028 33.8208 10.9943C33.8779 10.9658 33.96 10.954 34.0451 10.9418C34.2505 10.9123 34.4734 10.8802 34.4046 10.6051C34.3941 10.5735 34.3835 10.5406 34.3727 10.5071C34.2839 10.2311 34.1783 9.90293 33.9181 9.72945C33.7722 9.5835 33.6262 9.76593 33.4803 9.94836C33.4316 10.0092 33.383 10.07 33.3343 10.1186C33.2385 10.2145 33.1368 10.3044 33.0335 10.3957Z" fill="url(#paint37_linear_1112_6871)"/>
<path d="M2.58626 23.7525C2.70981 23.644 2.8354 23.5337 2.97763 23.4484C2.84388 23.4484 2.70279 23.419 2.55636 23.3885C2.17015 23.3079 1.74686 23.2197 1.32357 23.643C1.32357 23.643 1.42087 24.1295 1.51817 24.1295C2.00013 24.2672 2.2872 24.0151 2.58626 23.7525Z" fill="url(#paint38_linear_1112_6871)"/>
<path d="M35.1828 23.5457C34.867 23.1509 34.423 23.2687 34.0069 23.3791C33.9102 23.4048 33.815 23.43 33.7234 23.4484C33.813 23.5156 33.8975 23.5931 33.9815 23.6703C34.2625 23.9282 34.5389 24.1819 34.9882 24.0322C35.0855 24.0322 35.2801 23.643 35.1828 23.5457Z" fill="url(#paint39_linear_1112_6871)"/>
<path d="M32.5531 26.1216C32.4198 26.1071 32.2886 26.0928 32.1668 26.0754C32.4587 26.3673 32.556 26.4646 32.8479 26.6592C32.9101 26.7007 32.9856 26.7731 33.0669 26.8511C33.3666 27.1388 33.7443 27.5012 33.8208 26.6592C33.8208 26.2597 33.1649 26.1882 32.5531 26.1216Z" fill="url(#paint40_linear_1112_6871)"/>
<path d="M25.6595 32.73C25.5938 32.6872 25.5249 32.6422 25.4531 32.5944C25.5646 32.8545 25.6051 33.0863 25.6397 33.2842C25.6957 33.6045 25.7362 33.8363 26.0369 33.9565C26.1342 33.9565 26.5234 33.7619 26.5234 33.6646C26.4381 33.238 26.1282 33.0358 25.6595 32.73Z" fill="url(#paint41_linear_1112_6871)"/>
<path d="M2.78303 26.6592C2.78303 26.9511 2.88033 27.1457 3.17222 27.243C3.39329 27.1693 3.55855 26.984 3.71026 26.8139C3.75887 26.7594 3.80609 26.7064 3.8533 26.6592C3.9506 26.3673 3.756 26.27 3.56141 26.27C3.26952 26.27 2.88033 26.27 2.78303 26.6592Z" fill="url(#paint42_linear_1112_6871)"/>
<path d="M10.7614 34.1511C11.1506 33.9565 11.2478 33.5673 11.0533 33.0809C10.6641 33.2754 10.3722 33.47 10.2749 33.8592C10.2749 33.9565 10.6641 34.1511 10.7614 34.1511Z" fill="url(#paint43_linear_1112_6871)"/>
<path d="M13.7929 34.1307L13.7774 34.0538C13.2909 34.3457 13.0963 34.6376 13.2909 34.9295C13.2909 35.1241 13.4855 35.2214 13.6801 35.1241C13.9565 34.9399 13.884 34.5812 13.7929 34.1307Z" fill="url(#paint44_linear_1112_6871)"/>
<path d="M23.4099 35.1241C23.5072 34.6376 23.2153 34.3457 22.9234 34.0538C22.9234 34.1587 22.9022 34.2706 22.8808 34.3839C22.8226 34.691 22.7626 35.0081 23.118 35.2214C23.2153 35.3187 23.4099 35.2214 23.4099 35.1241Z" fill="url(#paint45_linear_1112_6871)"/>
<path d="M29.7348 16.3457C29.6375 16.1511 29.6375 15.8592 29.4429 15.7619C29.5402 15.4701 29.6375 15.1782 29.8321 14.8863C30.3185 14.789 30.124 15.0809 30.0267 15.3728C29.9294 15.6647 30.0267 16.0538 29.7348 16.3457Z" fill="#2ECBBC"/>
<path d="M6.38324 18.4865C6.77243 18.9729 6.57784 19.4594 6.57784 19.9459C6.28595 19.5567 6.38324 18.9729 6.38324 18.4865Z" fill="#E0C35F"/>
<path d="M30.0257 15.3729C29.9284 15.1783 29.8311 15.081 29.8311 14.8864C29.8311 14.6918 30.0257 14.3999 30.1229 14.4972C30.3175 14.7891 30.2202 15.081 30.0257 15.3729Z" fill="#9BE6DE"/>
<path d="M95.5076 9.72965C98.913 9.72965 101.054 11.2864 101.637 13.8161C101.832 14.5945 101.54 14.7891 100.859 14.6918C100.47 14.6918 100.081 14.6918 99.6914 14.6918C99.1076 14.6918 98.7184 14.6918 98.5238 13.9134C98.0373 11.8702 94.2427 11.9675 93.2697 13.1351C92.4914 14.0107 92.7833 15.2756 93.9508 15.6648C95.5076 16.1513 97.0643 16.4432 98.6211 16.9296C101.929 17.9026 103.194 20.7242 101.54 23.4486C101.248 23.9351 100.762 24.4215 100.275 24.8107C97.94 26.6594 92.9779 26.3675 90.8373 24.3242C90.5454 24.0323 90.2535 23.7405 90.0589 23.3513C89.6698 22.6702 89.086 21.5999 89.5725 21.1134C90.1562 20.4324 91.3238 20.9188 92.1995 20.9188C92.5887 20.9188 92.4914 21.308 92.5887 21.5999C93.367 23.5459 97.0643 24.2269 98.5238 22.5729C99.3022 21.6972 99.0103 20.5296 98.0373 20.0432C96.967 19.5567 95.7995 19.4594 94.6319 19.0702C94.0481 18.8756 93.367 18.7783 92.7833 18.5837C90.74 17.9026 89.767 16.7351 89.767 14.8864C89.6697 12.8432 90.74 11.0918 92.5887 10.3134C93.5616 9.82694 94.5346 9.63235 95.5076 9.72965Z" fill="#333333"/>
<path d="M55.1292 9.72965C58.1454 9.72965 60.3833 11.0918 60.967 13.3296C61.3562 14.6918 61.2589 14.6918 59.8968 14.7891C58.9238 14.7891 58.1454 14.7891 57.6589 13.6215C57.0752 12.1621 53.767 11.9675 52.6968 13.2323C51.9184 14.108 52.2103 15.3729 53.4752 15.7621C55.1292 16.2486 56.9779 16.6378 58.6319 17.1242C61.0643 17.9026 62.1346 19.8486 61.4535 22.3783C61.1616 23.6432 60.3833 24.6161 59.2157 25.1026C56.5887 26.3675 53.8643 26.3675 51.2373 25.0053C49.8752 24.3242 49.1941 23.1567 48.9995 21.5999C48.9022 21.0161 49.0968 20.7242 49.6806 20.8215C50.167 20.8215 50.5562 20.8215 51.0427 20.8215C51.7238 20.7242 52.113 20.9188 52.2103 21.6972C52.3076 22.3783 52.8914 22.8648 53.5725 23.1567C54.8373 23.6432 56.0049 23.5459 57.2697 23.1567C58.0481 22.8648 58.4373 22.281 58.4373 21.5026C58.4373 20.7242 57.9508 20.2378 57.2697 20.0432C55.5184 19.5567 53.767 19.1675 52.0157 18.5837C48.9995 17.5134 48.2211 13.9134 50.3616 11.5783C51.7238 10.0215 53.3779 9.72965 55.1292 9.72965Z" fill="#333333"/>
<path d="M110.978 17.9026C110.491 20.1405 109.908 22.3783 109.518 24.6161C109.324 25.3945 109.032 25.5891 108.351 25.5891C106.21 25.5891 106.21 25.5891 105.627 23.5459C104.848 20.7242 104.07 17.9026 103.194 14.9837C102.999 14.3026 103.097 14.108 103.875 14.108C106.21 14.108 106.21 14.0107 106.697 16.3459C107.086 18.0972 107.475 19.8486 108.059 21.5999C108.545 19.4594 109.032 17.3188 109.324 15.1783C109.421 14.3026 109.81 14.0107 110.686 14.108C111.075 14.2053 111.464 14.108 111.756 14.108C112.437 14.0107 112.632 14.3026 112.826 14.9837C113.216 16.9296 113.605 18.8756 113.994 20.8215C114.091 21.2107 114.189 21.5999 114.383 22.1837C114.967 19.7513 115.454 17.5134 115.843 15.2756C116.037 14.3026 116.427 14.108 117.302 14.2053C119.248 14.2053 119.248 14.2053 118.664 16.054C117.886 18.8756 117.01 21.6972 116.232 24.5188C116.037 25.2972 115.745 25.7837 114.87 25.5891C114.481 25.4918 114.091 25.4918 113.799 25.5891C113.021 25.6864 112.729 25.2972 112.632 24.6161C112.243 22.5729 111.756 20.6269 111.367 18.5837C111.367 18.2918 111.367 17.9026 110.978 17.9026Z" fill="#333333"/>
<path d="M79.8427 15.5675C80.913 14.3026 82.0806 13.8161 83.54 13.9134C85.6806 14.108 87.0427 15.2756 87.14 17.4161C87.2373 19.9459 87.14 22.4756 87.14 24.908C87.14 25.3945 86.9454 25.4918 86.5562 25.5891C84.1238 25.881 84.1238 25.881 84.1238 23.3513C84.1238 21.6972 84.1238 20.1405 84.1238 18.4864C84.1238 17.0269 83.54 16.3459 82.3725 16.3459C81.1076 16.2486 80.1346 17.0269 80.0373 18.2918C79.94 19.5567 79.94 20.9188 79.94 22.1837C79.94 22.7675 79.94 23.3513 79.94 23.8378C79.94 25.4918 79.94 25.4918 78.1887 25.5891C77.2157 25.5891 76.8265 25.3945 76.9238 24.3242C77.0211 21.308 77.0211 18.2918 76.9238 15.1783C76.9238 14.3999 77.1184 13.9134 77.9941 14.108C78.1887 14.108 78.286 14.108 78.4806 14.108C79.4535 14.0107 80.0373 14.2053 79.8427 15.5675Z" fill="#333333"/>
<path d="M71.086 24.1296C69.9184 25.2972 68.6535 25.881 67.0968 25.7837C65.2481 25.5891 64.1779 24.7134 63.886 22.8648C63.4968 20.1405 63.7887 17.3188 63.6914 14.5945C63.6914 14.108 63.886 14.108 64.2752 14.0107C66.7076 13.7188 66.7076 13.8161 66.7076 16.2486C66.7076 17.9026 66.7076 19.654 66.7076 21.308C66.7076 22.281 66.9995 23.0594 68.167 23.1567C69.2373 23.254 70.2103 22.9621 70.5995 21.7945C70.8914 21.1134 70.8914 20.3351 70.8914 19.654C70.8914 18.0972 70.8914 16.4432 70.8914 14.8864C70.8914 14.2053 70.9887 13.9134 71.767 13.9134C73.9076 13.9134 73.9076 13.9134 73.9076 15.9567C73.9076 18.7783 73.9076 21.5026 73.9076 24.3242C73.9076 25.1026 73.6157 25.3945 72.8373 25.2972C72.6427 25.2972 72.4481 25.2972 72.2535 25.2972C71.4751 25.6864 70.9887 25.3945 71.086 24.1296Z" fill="#333333"/>
<path fill-rule="evenodd" clip-rule="evenodd" d="M135.691 29.0918V24.2269C137.637 26.7567 142.016 26.2702 143.086 23.0594C143.767 21.2107 143.864 19.2648 143.281 17.3188C142.697 15.1783 140.751 13.8161 138.708 13.9134C137.443 14.0107 136.47 14.5945 135.594 15.5675C135.4 14.108 135.302 14.108 133.356 14.2053C132.312 14.2799 132.468 14.8688 132.598 15.3588C132.638 15.5082 132.675 15.6484 132.675 15.7621V28.1188C132.675 29.076 132.675 29.5623 132.918 29.8095C133.17 30.0648 133.68 30.0648 134.718 30.0648C135.497 30.0648 135.691 29.8702 135.691 29.0918ZM137.929 23.3513C139.583 23.4486 140.556 22.281 140.654 20.0432C140.751 18.0972 139.973 16.7351 138.61 16.5405C136.956 16.2486 135.983 17.1243 135.691 18.8756C135.4 21.5026 136.081 23.1567 137.735 23.3513H137.929Z" fill="#333333"/>
<path fill-rule="evenodd" clip-rule="evenodd" d="M129.527 25.5207C129.98 25.4401 130.431 25.3601 130.826 25.4918C130.145 24.7134 130.145 23.8377 130.243 23.1566C130.243 22.5979 130.232 22.0502 130.221 21.5099C130.199 20.4508 130.178 19.42 130.243 18.3891C130.34 15.6648 129.854 14.4972 126.254 14.0107C125.281 13.8161 124.308 13.9134 123.335 14.2053C122.167 14.4972 121.291 15.1783 120.902 16.3458C120.87 16.4269 120.832 16.508 120.794 16.5891C120.605 16.9945 120.416 17.3999 120.902 17.8053C121.291 18.1945 123.432 17.8053 123.529 17.4161C123.918 16.4431 124.697 16.3458 125.572 16.3458C126.351 16.3458 127.129 16.4431 127.227 17.4161C127.322 18.3758 126.567 18.4836 125.892 18.5797L125.864 18.5837C125.544 18.633 125.217 18.6698 124.889 18.7068C123.922 18.8158 122.941 18.9262 122.07 19.3621C120.708 20.0431 119.929 21.5026 120.221 23.1566C120.416 24.6161 121.486 25.5891 123.043 25.881C124.697 26.0756 126.059 25.3945 127.227 24.4215C127.741 25.8376 128.64 25.6781 129.527 25.5207ZM124.891 23.6431C126.643 23.5458 127.324 22.4756 127.129 20.1404C126.156 20.4323 125.183 20.6269 124.21 20.8215C123.432 21.1134 122.945 21.6972 123.14 22.5729C123.335 23.5458 124.016 23.7404 124.891 23.6431Z" fill="#333333"/>
<path d="M11.4432 20.1405C9.20539 20.1405 7.16215 17.7081 7.55133 15.8595C7.64863 15.2757 8.13512 14.8865 8.62161 14.5946C10.9567 13.3297 13.4865 13.1351 16.0162 13.0378C16.8919 13.0378 17.1838 13.7189 17.2811 14.4C17.3784 15.9568 16.7946 17.3189 15.627 18.3892C14.2648 19.6541 12.7081 20.0432 11.4432 20.1405Z" fill="black"/>
<path d="M19.7135 23.0593C19.8108 23.7404 20.2973 23.2539 20.5892 23.3512C20.9784 23.4485 21.3676 23.3512 21.8541 23.3512C21.7568 24.2269 21.0757 24.4215 20.5892 24.8107C18.4487 26.3674 15.1405 25.4918 13.973 23.1566C13.6811 22.4755 13.4865 21.9891 14.5568 21.9891C16.9892 21.7945 19.5189 21.5999 21.9514 21.4053C23.5081 21.308 22.146 22.3782 22.4378 22.7674C21.4649 23.2539 20.5892 22.7674 19.7135 23.0593Z" fill="#FEFEFD"/>
<path d="M19.7129 23.0595C20.5886 22.6703 21.5615 23.0595 22.4372 22.7676C21.5615 23.4487 20.5886 22.9622 19.7129 23.0595Z" fill="#FDA768"/>
</g>
<defs>
<linearGradient id="paint0_linear_1112_6871" x1="18.2532" y1="0.0970459" x2="18.2532" y2="35.9998" gradientUnits="userSpaceOnUse">
<stop stop-color="#F5B645"/>
<stop offset="1" stop-color="#FC8B47"/>
</linearGradient>
<linearGradient id="paint1_linear_1112_6871" x1="18.2532" y1="0.0970459" x2="18.2532" y2="35.9998" gradientUnits="userSpaceOnUse">
<stop stop-color="#F5B645"/>
<stop offset="1" stop-color="#FC8B47"/>
</linearGradient>
<linearGradient id="paint2_linear_1112_6871" x1="18.2532" y1="0.0970459" x2="18.2532" y2="35.9998" gradientUnits="userSpaceOnUse">
<stop stop-color="#F5B645"/>
<stop offset="1" stop-color="#FC8B47"/>
</linearGradient>
<linearGradient id="paint3_linear_1112_6871" x1="18.2532" y1="0.0970459" x2="18.2532" y2="35.9998" gradientUnits="userSpaceOnUse">
<stop stop-color="#F5B645"/>
<stop offset="1" stop-color="#FC8B47"/>
</linearGradient>
<linearGradient id="paint4_linear_1112_6871" x1="18.2532" y1="0.0970459" x2="18.2532" y2="35.9998" gradientUnits="userSpaceOnUse">
<stop stop-color="#F5B645"/>
<stop offset="1" stop-color="#FC8B47"/>
</linearGradient>
<linearGradient id="paint5_linear_1112_6871" x1="18.2532" y1="0.0970459" x2="18.2532" y2="35.9998" gradientUnits="userSpaceOnUse">
<stop stop-color="#F5B645"/>
<stop offset="1" stop-color="#FC8B47"/>
</linearGradient>
<linearGradient id="paint6_linear_1112_6871" x1="18.2532" y1="0.0970459" x2="18.2532" y2="35.9998" gradientUnits="userSpaceOnUse">
<stop stop-color="#F5B645"/>
<stop offset="1" stop-color="#FC8B47"/>
</linearGradient>
<linearGradient id="paint7_linear_1112_6871" x1="18.2532" y1="0.0970459" x2="18.2532" y2="35.9998" gradientUnits="userSpaceOnUse">
<stop stop-color="#F5B645"/>
<stop offset="1" stop-color="#FC8B47"/>
</linearGradient>
<linearGradient id="paint8_linear_1112_6871" x1="18.2532" y1="0.0970459" x2="18.2532" y2="35.9998" gradientUnits="userSpaceOnUse">
<stop stop-color="#F5B645"/>
<stop offset="1" stop-color="#FC8B47"/>
</linearGradient>
<linearGradient id="paint9_linear_1112_6871" x1="18.2532" y1="0.0970459" x2="18.2532" y2="35.9998" gradientUnits="userSpaceOnUse">
<stop stop-color="#F5B645"/>
<stop offset="1" stop-color="#FC8B47"/>
</linearGradient>
<linearGradient id="paint10_linear_1112_6871" x1="18.2532" y1="0.0970459" x2="18.2532" y2="35.9998" gradientUnits="userSpaceOnUse">
<stop stop-color="#F5B645"/>
<stop offset="1" stop-color="#FC8B47"/>
</linearGradient>
<linearGradient id="paint11_linear_1112_6871" x1="18.2532" y1="0.0970459" x2="18.2532" y2="35.9998" gradientUnits="userSpaceOnUse">
<stop stop-color="#F5B645"/>
<stop offset="1" stop-color="#FC8B47"/>
</linearGradient>
<linearGradient id="paint12_linear_1112_6871" x1="18.2532" y1="0.0970459" x2="18.2532" y2="35.9998" gradientUnits="userSpaceOnUse">
<stop stop-color="#F5B645"/>
<stop offset="1" stop-color="#FC8B47"/>
</linearGradient>
<linearGradient id="paint13_linear_1112_6871" x1="18.2532" y1="0.0970459" x2="18.2532" y2="35.9998" gradientUnits="userSpaceOnUse">
<stop stop-color="#F5B645"/>
<stop offset="1" stop-color="#FC8B47"/>
</linearGradient>
<linearGradient id="paint14_linear_1112_6871" x1="18.2532" y1="0.0970459" x2="18.2532" y2="35.9998" gradientUnits="userSpaceOnUse">
<stop stop-color="#F5B645"/>
<stop offset="1" stop-color="#FC8B47"/>
</linearGradient>
<linearGradient id="paint15_linear_1112_6871" x1="18.2532" y1="0.0970459" x2="18.2532" y2="35.9998" gradientUnits="userSpaceOnUse">
<stop stop-color="#F5B645"/>
<stop offset="1" stop-color="#FC8B47"/>
</linearGradient>
<linearGradient id="paint16_linear_1112_6871" x1="18.2532" y1="0.0970459" x2="18.2532" y2="35.9998" gradientUnits="userSpaceOnUse">
<stop stop-color="#F5B645"/>
<stop offset="1" stop-color="#FC8B47"/>
</linearGradient>
<linearGradient id="paint17_linear_1112_6871" x1="18.2532" y1="0.0970459" x2="18.2532" y2="35.9998" gradientUnits="userSpaceOnUse">
<stop stop-color="#F5B645"/>
<stop offset="1" stop-color="#FC8B47"/>
</linearGradient>
<linearGradient id="paint18_linear_1112_6871" x1="18.2532" y1="0.0970459" x2="18.2532" y2="35.9998" gradientUnits="userSpaceOnUse">
<stop stop-color="#F5B645"/>
<stop offset="1" stop-color="#FC8B47"/>
</linearGradient>
<linearGradient id="paint19_linear_1112_6871" x1="18.2532" y1="0.0970459" x2="18.2532" y2="35.9998" gradientUnits="userSpaceOnUse">
<stop stop-color="#F5B645"/>
<stop offset="1" stop-color="#FC8B47"/>
</linearGradient>
<linearGradient id="paint20_linear_1112_6871" x1="18.2532" y1="0.0970459" x2="18.2532" y2="35.9998" gradientUnits="userSpaceOnUse">
<stop stop-color="#F5B645"/>
<stop offset="1" stop-color="#FC8B47"/>
</linearGradient>
<linearGradient id="paint21_linear_1112_6871" x1="18.2532" y1="0.0970459" x2="18.2532" y2="35.9998" gradientUnits="userSpaceOnUse">
<stop stop-color="#F5B645"/>
<stop offset="1" stop-color="#FC8B47"/>
</linearGradient>
<linearGradient id="paint22_linear_1112_6871" x1="18.2532" y1="0.0970459" x2="18.2532" y2="35.9998" gradientUnits="userSpaceOnUse">
<stop stop-color="#F5B645"/>
<stop offset="1" stop-color="#FC8B47"/>
</linearGradient>
<linearGradient id="paint23_linear_1112_6871" x1="18.2532" y1="0.0970459" x2="18.2532" y2="35.9998" gradientUnits="userSpaceOnUse">
<stop stop-color="#F5B645"/>
<stop offset="1" stop-color="#FC8B47"/>
</linearGradient>
<linearGradient id="paint24_linear_1112_6871" x1="18.2532" y1="0.0970459" x2="18.2532" y2="35.9998" gradientUnits="userSpaceOnUse">
<stop stop-color="#F5B645"/>
<stop offset="1" stop-color="#FC8B47"/>
</linearGradient>
<linearGradient id="paint25_linear_1112_6871" x1="18.2532" y1="0.0970459" x2="18.2532" y2="35.9998" gradientUnits="userSpaceOnUse">
<stop stop-color="#F5B645"/>
<stop offset="1" stop-color="#FC8B47"/>
</linearGradient>
<linearGradient id="paint26_linear_1112_6871" x1="18.2532" y1="0.0970459" x2="18.2532" y2="35.9998" gradientUnits="userSpaceOnUse">
<stop stop-color="#F5B645"/>
<stop offset="1" stop-color="#FC8B47"/>
</linearGradient>
<linearGradient id="paint27_linear_1112_6871" x1="18.2532" y1="0.0970459" x2="18.2532" y2="35.9998" gradientUnits="userSpaceOnUse">
<stop stop-color="#F5B645"/>
<stop offset="1" stop-color="#FC8B47"/>
</linearGradient>
<linearGradient id="paint28_linear_1112_6871" x1="18.2532" y1="0.0970459" x2="18.2532" y2="35.9998" gradientUnits="userSpaceOnUse">
<stop stop-color="#F5B645"/>
<stop offset="1" stop-color="#FC8B47"/>
</linearGradient>
<linearGradient id="paint29_linear_1112_6871" x1="18.2532" y1="0.0970459" x2="18.2532" y2="35.9998" gradientUnits="userSpaceOnUse">
<stop stop-color="#F5B645"/>
<stop offset="1" stop-color="#FC8B47"/>
</linearGradient>
<linearGradient id="paint30_linear_1112_6871" x1="18.2532" y1="0.0970459" x2="18.2532" y2="35.9998" gradientUnits="userSpaceOnUse">
<stop stop-color="#F5B645"/>
<stop offset="1" stop-color="#FC8B47"/>
</linearGradient>
<linearGradient id="paint31_linear_1112_6871" x1="18.2532" y1="0.0970459" x2="18.2532" y2="35.9998" gradientUnits="userSpaceOnUse">
<stop stop-color="#F5B645"/>
<stop offset="1" stop-color="#FC8B47"/>
</linearGradient>
<linearGradient id="paint32_linear_1112_6871" x1="18.2532" y1="0.0970459" x2="18.2532" y2="35.9998" gradientUnits="userSpaceOnUse">
<stop stop-color="#F5B645"/>
<stop offset="1" stop-color="#FC8B47"/>
</linearGradient>
<linearGradient id="paint33_linear_1112_6871" x1="18.2532" y1="0.0970459" x2="18.2532" y2="35.9998" gradientUnits="userSpaceOnUse">
<stop stop-color="#F5B645"/>
<stop offset="1" stop-color="#FC8B47"/>
</linearGradient>
<linearGradient id="paint34_linear_1112_6871" x1="18.2532" y1="0.0970459" x2="18.2532" y2="35.9998" gradientUnits="userSpaceOnUse">
<stop stop-color="#F5B645"/>
<stop offset="1" stop-color="#FC8B47"/>
</linearGradient>
<linearGradient id="paint35_linear_1112_6871" x1="18.2532" y1="0.0970459" x2="18.2532" y2="35.9998" gradientUnits="userSpaceOnUse">
<stop stop-color="#F5B645"/>
<stop offset="1" stop-color="#FC8B47"/>
</linearGradient>
<linearGradient id="paint36_linear_1112_6871" x1="18.2532" y1="0.0970459" x2="18.2532" y2="35.9998" gradientUnits="userSpaceOnUse">
<stop stop-color="#F5B645"/>
<stop offset="1" stop-color="#FC8B47"/>
</linearGradient>
<linearGradient id="paint37_linear_1112_6871" x1="18.2532" y1="0.0970459" x2="18.2532" y2="35.9998" gradientUnits="userSpaceOnUse">
<stop stop-color="#F5B645"/>
<stop offset="1" stop-color="#FC8B47"/>
</linearGradient>
<linearGradient id="paint38_linear_1112_6871" x1="18.2532" y1="0.0970459" x2="18.2532" y2="35.9998" gradientUnits="userSpaceOnUse">
<stop stop-color="#F5B645"/>
<stop offset="1" stop-color="#FC8B47"/>
</linearGradient>
<linearGradient id="paint39_linear_1112_6871" x1="18.2532" y1="0.0970459" x2="18.2532" y2="35.9998" gradientUnits="userSpaceOnUse">
<stop stop-color="#F5B645"/>
<stop offset="1" stop-color="#FC8B47"/>
</linearGradient>
<linearGradient id="paint40_linear_1112_6871" x1="18.2532" y1="0.0970459" x2="18.2532" y2="35.9998" gradientUnits="userSpaceOnUse">
<stop stop-color="#F5B645"/>
<stop offset="1" stop-color="#FC8B47"/>
</linearGradient>
<linearGradient id="paint41_linear_1112_6871" x1="18.2532" y1="0.0970459" x2="18.2532" y2="35.9998" gradientUnits="userSpaceOnUse">
<stop stop-color="#F5B645"/>
<stop offset="1" stop-color="#FC8B47"/>
</linearGradient>
<linearGradient id="paint42_linear_1112_6871" x1="18.2532" y1="0.0970459" x2="18.2532" y2="35.9998" gradientUnits="userSpaceOnUse">
<stop stop-color="#F5B645"/>
<stop offset="1" stop-color="#FC8B47"/>
</linearGradient>
<linearGradient id="paint43_linear_1112_6871" x1="18.2532" y1="0.0970459" x2="18.2532" y2="35.9998" gradientUnits="userSpaceOnUse">
<stop stop-color="#F5B645"/>
<stop offset="1" stop-color="#FC8B47"/>
</linearGradient>
<linearGradient id="paint44_linear_1112_6871" x1="18.2532" y1="0.0970459" x2="18.2532" y2="35.9998" gradientUnits="userSpaceOnUse">
<stop stop-color="#F5B645"/>
<stop offset="1" stop-color="#FC8B47"/>
</linearGradient>
<linearGradient id="paint45_linear_1112_6871" x1="18.2532" y1="0.0970459" x2="18.2532" y2="35.9998" gradientUnits="userSpaceOnUse">
<stop stop-color="#F5B645"/>
<stop offset="1" stop-color="#FC8B47"/>
</linearGradient>
<clipPath id="clip0_1112_6871">
<rect width="145.265" height="36" fill="white" transform="translate(0.253418)"/>
</clipPath>
</defs>
</svg>
