<?xml version="1.0" encoding="UTF-8"?>
<svg width="156px" height="43px" viewBox="0 0 156 43" version="1.1" xmlns="http://www.w3.org/2000/svg"
  xmlns:xlink="http://www.w3.org/1999/xlink">
  <title>SwapX</title>
  <g id="页面-1" stroke="none" stroke-width="1" fill="none" fill-rule="evenodd">
    <g id="画板" transform="translate(-911.000000, -862.000000)" fill-rule="nonzero">
      <g id="SwapX" transform="translate(911.000000, 862.000000)">
        <path
          d="M38.2724,41.4852769 C38.2724,42.1892769 37.7,42.7642769 36.9962,42.7292769 C27.3019,42.2562769 19.1335,36.4212769 16.0696,28.6482769 L2.1717,42.3582769 C1.3655,43.1532769 7.10542736e-15,42.5822769 7.10542736e-15,41.4502769 L7.10542736e-15,31.6842769 C7.10542736e-15,31.3172769 0.158,30.9672769 0.4336,30.7252769 L4.7553,26.9282769 L11.1503,21.1922769 L14.2658,18.4064769 C12.8052,13.2586769 7.5961,9.33567689 1.2747,8.86657689 C0.572,8.81447689 7.10542736e-15,8.24837689 7.10542736e-15,7.54377689 L7.10542736e-15,1.24607689 C7.10542736e-15,0.541476894 0.572,-0.0330231056 1.2757,0.00147689438 C13.6413,0.606076894 23.5305,9.94677689 23.5305,21.3562769 C23.5305,27.8742769 29.4728,33.3072769 36.9969,33.8642769 C37.6995,33.9162769 38.2724,34.4832769 38.2724,35.1872769 L38.2724,41.4852769 Z"
          id="路径" fill="#FF1818"></path>
        <path
          d="M25.6578,21.5152769 C25.6578,18.1562769 24.8381,14.8787769 23.5262,11.9289769 L36.133,0.341876894 C36.9508,-0.409923106 38.272,0.170276894 38.272,1.28107689 L38.272,11.1556769 C38.272,11.5435769 38.0955,11.9104769 37.7924,12.1525769 L25.6578,21.8432769 L25.6578,21.5152769 Z"
          id="路径" fill="#FF1818"></path>
        <path
          d="M61.9405,31.7242769 C60.4918,31.7242769 59.182,31.4762769 58.0112,30.9802769 C56.8602,30.4842769 55.9473,29.7692769 55.2726,28.8372769 C54.5978,27.9042769 54.2506,26.8032769 54.2307,25.5332769 L58.6958,25.5332769 C58.7554,26.3862769 59.053,27.0612769 59.5889,27.5572769 C60.1445,28.0532769 60.8986,28.3012769 61.8512,28.3012769 C62.8236,28.3012769 63.5876,28.0732769 64.1433,27.6162769 C64.6989,27.1402769 64.9768,26.5252769 64.9768,25.7712769 C64.9768,25.1562769 64.7882,24.6492769 64.4112,24.2532769 C64.0341,23.8562769 63.5578,23.5482769 62.9823,23.3302769 C62.4267,23.0922769 61.6527,22.8342769 60.6605,22.5562769 C59.311,22.1592769 58.2096,21.7722769 57.3563,21.3952769 C56.5228,20.9982769 55.7985,20.4128769 55.1833,19.6388769 C54.5879,18.8450769 54.2902,17.7933769 54.2902,16.4835769 C54.2902,15.2531769 54.5978,14.1815769 55.213,13.2686769 C55.8282,12.3557769 56.6915,11.6612769 57.8028,11.1849769 C58.9141,10.6888769 60.1842,10.4407769 61.613,10.4407769 C63.7563,10.4407769 65.4927,10.9666769 66.8223,12.0184769 C68.1718,13.0503769 68.916,14.4990769 69.0549,16.3644769 L64.4707,16.3644769 C64.431,15.6500769 64.1234,15.0646769 63.5479,14.6081769 C62.9923,14.1319769 62.2481,13.8937769 61.3154,13.8937769 C60.5017,13.8937769 59.8468,14.1021769 59.3507,14.5188769 C58.8744,14.9356769 58.6363,15.5409769 58.6363,16.3347769 C58.6363,16.8903769 58.8149,17.3567769 59.1721,17.7337769 C59.5492,18.0909769 60.0056,18.3886769 60.5414,18.6268769 C61.0971,18.8450769 61.871,19.1030769 62.8633,19.4007769 C64.2127,19.7976769 65.3141,20.1945769 66.1675,20.5914769 C67.0208,20.9883769 67.7551,21.5832769 68.3702,22.3772769 C68.9854,23.1712769 69.293,24.2132769 69.293,25.5032769 C69.293,26.6142769 69.0053,27.6462769 68.4298,28.5992769 C67.8543,29.5512769 67.0109,30.3152769 65.8995,30.8912769 C64.7882,31.4462769 63.4685,31.7242769 61.9405,31.7242769 Z M95.7674,15.0249769 L90.9454,31.5162769 L86.4504,31.5162769 L83.4434,19.9961769 L80.4374,31.5162769 L75.9126,31.5162769 L71.0605,15.0249769 L75.2875,15.0249769 L78.2044,27.5872769 L81.3604,15.0249769 L85.7654,15.0249769 L88.8614,27.5572769 L91.7784,15.0249769 L95.7674,15.0249769 Z M96.9504,23.2112769 C96.9504,21.5442769 97.2784,20.0655769 97.9334,18.7756769 C98.6074,17.4857769 99.5104,16.4934769 100.6414,15.7988769 C101.7924,15.1043769 103.0724,14.7570769 104.4814,14.7570769 C105.7124,14.7570769 106.7834,15.0050769 107.6964,15.5012769 C108.6294,15.9973769 109.3734,16.6224769 109.9294,17.3765769 L109.9294,15.0249769 L114.1264,15.0249769 L114.1264,31.5162769 L109.9294,31.5162769 L109.9294,29.1052769 C109.3934,29.8792769 108.6494,30.5242769 107.6964,31.0402769 C106.7644,31.5362769 105.6824,31.7842769 104.4524,31.7842769 C103.0634,31.7842769 101.7924,31.4272769 100.6414,30.7122769 C99.5104,29.9982769 98.6074,28.9962769 97.9334,27.7062769 C97.2784,26.3962769 96.9504,24.8982769 96.9504,23.2112769 Z M109.9294,23.2702769 C109.9294,22.2582769 109.7304,21.3952769 109.3344,20.6807769 C108.9374,19.9464769 108.4014,19.3908769 107.7264,19.0137769 C107.0514,18.6168769 106.3274,18.4184769 105.5534,18.4184769 C104.7794,18.4184769 104.0654,18.6069769 103.4104,18.9840769 C102.7554,19.3610769 102.2194,19.9167769 101.8024,20.6509769 C101.4064,21.3652769 101.2074,22.2182769 101.2074,23.2112769 C101.2074,24.2032769 101.4064,25.0762769 101.8024,25.8302769 C102.2194,26.5652769 102.7554,27.1302769 103.4104,27.5272769 C104.0854,27.9242769 104.7994,28.1222769 105.5534,28.1222769 C106.3274,28.1222769 107.0514,27.9342769 107.7264,27.5572769 C108.4014,27.1602769 108.9374,26.6042769 109.3344,25.8902769 C109.7304,25.1562769 109.9294,24.2822769 109.9294,23.2702769 Z M122.3644,17.4063769 C122.9004,16.6522769 123.6344,16.0271769 124.5674,15.5309769 C125.5194,15.0150769 126.6014,14.7570769 127.8114,14.7570769 C129.2204,14.7570769 130.4904,15.1043769 131.6214,15.7988769 C132.7724,16.4934769 133.6754,17.4857769 134.3304,18.7756769 C135.0054,20.0457769 135.3424,21.5242769 135.3424,23.2112769 C135.3424,24.8982769 135.0054,26.3962769 134.3304,27.7062769 C133.6754,28.9962769 132.7724,29.9982769 131.6214,30.7122769 C130.4904,31.4272769 129.2204,31.7842769 127.8114,31.7842769 C126.6014,31.7842769 125.5294,31.5362769 124.5964,31.0402769 C123.6834,30.5432769 122.9394,29.9182769 122.3644,29.1642769 L122.3644,39.3742769 L118.1964,39.3742769 L118.1964,15.0249769 L122.3644,15.0249769 L122.3644,17.4063769 Z M131.0864,23.2112769 C131.0864,22.2182769 130.8774,21.3652769 130.4614,20.6509769 C130.0644,19.9167769 129.5284,19.3610769 128.8534,18.9840769 C128.1984,18.6069769 127.4844,18.4184769 126.7104,18.4184769 C125.9564,18.4184769 125.2414,18.6168769 124.5674,19.0137769 C123.9124,19.3908769 123.3764,19.9464769 122.9594,20.6807769 C122.5624,21.4152769 122.3644,22.2782769 122.3644,23.2702769 C122.3644,24.2632769 122.5624,25.1262769 122.9594,25.8602769 C123.3764,26.5942769 123.9124,27.1602769 124.5674,27.5572769 C125.2414,27.9342769 125.9564,28.1222769 126.7104,28.1222769 C127.4844,28.1222769 128.1984,27.9242769 128.8534,27.5272769 C129.5284,27.1302769 130.0644,26.5652769 130.4614,25.8302769 C130.8774,25.0962769 131.0864,24.2232769 131.0864,23.2112769 Z M150.8144,31.5162769 L146.3194,24.5212769 L142.2414,31.5162769 L137.5374,31.5162769 L144.0864,21.0379769 L137.4484,10.7384769 L142.2414,10.7384769 L146.7354,17.7040769 L150.7844,10.7384769 L155.4874,10.7384769 L148.9684,21.1872769 L155.6064,31.5162769 L150.8144,31.5162769 Z"
          id="形状" fill="#0F0F0F"></path>
      </g>
    </g>
  </g>
</svg>