<svg width="95" height="22" viewBox="0 0 95 22" fill="none" xmlns="http://www.w3.org/2000/svg">
<g clip-path="url(#clip0_1112_6947)">
<path d="M13.928 1.68443C14.8549 1.68443 15.6028 1.39998 16.0393 0.963501H16.3237L17.4296 6.80446L16.9907 6.90745C15.3184 4.38667 13.6975 2.84183 12.2042 2.84183C11.1767 2.84183 10.7623 3.30528 10.7623 4.02621V18.2068C10.7623 19.3128 11.3557 20.1122 12.5131 20.5241V20.9851H5.14204V20.5241C6.36811 20.1122 6.94436 19.3128 6.94436 18.2068V4.02621C6.94436 3.30528 6.50788 2.84183 5.50251 2.84183C4.03123 2.84183 2.39076 4.38667 0.742931 6.90745L0.237793 6.80446L1.3952 0.963501H1.67964C2.17007 1.39998 2.83705 1.68443 3.81544 1.68443H13.928Z" fill="#002D24"/>
<path d="M19.6514 18.3098V5.33804C19.6514 4.07765 19.1119 3.28071 18.082 2.96929V2.47886C19.8073 2.27063 21.4403 1.58534 22.7975 0.5L23.2364 0.5V8.78818C23.2364 9.35217 23.2094 10.0142 23.1849 10.3306L23.2364 10.3821C24.5483 9.07018 27.1745 7.34633 29.1043 7.34633C30.8208 7.34633 31.8311 8.53071 31.8311 10.306V18.3098C31.8311 19.3397 32.2945 20.1636 33.1185 20.5167V20.9777H26.7209V20.5241C27.7017 19.9576 28.2142 19.3397 28.2142 18.3613V11.6179C28.2142 10.3919 27.7777 9.76413 26.8508 9.73961C25.9999 9.71263 24.6635 10.3306 23.2217 11.2844V18.3613C23.2217 19.3421 23.8126 19.9821 24.715 20.5241V20.9851H18.2095V20.5241C18.6442 20.3443 19.0145 20.0374 19.2718 19.6436C19.5291 19.2498 19.6614 18.7874 19.6514 18.3171" fill="#002D24"/>
<path d="M43.2336 18.3098H43.1821C41.8972 19.6266 39.4255 21.3431 37.4687 21.3431C35.7203 21.3431 34.7934 20.1612 34.7934 18.4006V12.1329C34.7934 10.8456 34.4575 9.99713 33.3516 9.63666V9.17321C35.0381 8.97039 36.6294 8.28207 37.9321 7.19189H38.3196V17.074C38.3196 18.3613 38.7561 19.0038 39.7344 19.0357C40.5829 19.0872 41.7158 18.4422 43.1821 17.4393V12.2899C43.1821 10.9265 42.8732 9.94808 41.6912 9.63912V9.17321C43.4012 8.94241 45.0183 8.25832 46.3748 7.19189H46.7868V17.2039C46.7868 18.6752 47.1717 19.3642 48.258 19.7002V20.1636C46.6634 20.3308 45.1118 20.7834 43.6775 21.5H43.187V19.9062C43.187 19.3127 43.2385 18.6433 43.2385 18.3098" fill="#002D24"/>
<path d="M50.5253 18.2068V12.025C50.5253 10.6102 50.1134 9.94073 48.9805 9.63176V9.17321C50.6941 8.95294 52.3146 8.26773 53.6665 7.19189H54.1299V8.66317C54.1363 9.19638 54.1101 9.72948 54.0515 10.2595L54.1299 10.284C55.4148 8.97214 57.9896 7.34147 59.9709 7.34147C61.7462 7.34147 62.7001 8.5234 62.7001 10.3012V18.2068C62.7001 19.3397 63.1905 20.1685 64.0365 20.5216V20.9851H57.661V20.5216C58.6149 19.9577 59.1543 19.3397 59.1543 18.2068V11.618C59.1543 10.3919 58.7424 9.76417 57.764 9.73965C56.8641 9.71268 55.6282 10.2301 54.1373 11.1815V18.2068C54.1373 19.3397 54.7283 19.9577 55.6282 20.5216V20.9851H48.9805V20.5216C49.448 20.3463 49.8486 20.0285 50.1258 19.6131C50.403 19.1978 50.5427 18.7059 50.5253 18.2068Z" fill="#002D24"/>
<path d="M70.6481 21.3726C67.5339 21.3726 64.3682 19.1338 64.3682 14.7519C64.3682 10.6863 67.2004 7.34155 71.0355 7.34155C74.1227 7.34155 76.4645 9.52885 76.4645 12.7706V13.4719H67.6883C67.7668 17.2285 69.7481 18.9793 72.2174 18.9793C72.9539 18.9805 73.679 18.7973 74.3265 18.4466C74.9741 18.0958 75.5236 17.5885 75.925 16.971L76.337 17.2163C75.5646 19.867 73.1492 21.3849 70.6481 21.3849M67.7398 12.312H72.7839C72.7839 10.0732 71.8839 8.63382 70.4176 8.63382C69.1302 8.63382 67.9654 9.7667 67.7398 12.312Z" fill="#002D24"/>
<path d="M82.59 21.3431C80.7585 21.318 78.9407 21.023 77.1953 20.4677L78.8946 16.5443H79.1962C79.6867 18.9645 81.6655 20.0459 83.5954 20.0459C85.1917 20.0459 86.1456 19.3103 86.1456 18.2951C86.1456 17.1353 84.8827 16.5198 83.3134 16.0048C80.9716 15.2054 78.1394 14.357 78.1394 11.6302C78.1394 9.17811 80.4051 7.33167 83.8528 7.33167C85.2285 7.33214 86.5975 7.52276 87.9209 7.89811L86.7071 11.3875H86.3491C86.1873 10.5811 85.7488 9.85671 85.1093 9.33953C84.4699 8.82234 83.6698 8.54492 82.8475 8.55527C81.5356 8.55527 80.7117 9.22471 80.7117 10.1246C80.7117 11.515 82.6415 12.0545 84.5713 12.7509C86.6556 13.4718 88.7154 14.4673 88.7154 16.8435C88.7154 19.4918 86.1676 21.3456 82.5851 21.3456" fill="#002D24"/>
<path d="M89.9317 18.8762C89.93 18.5552 89.9925 18.2371 90.1155 17.9406C90.2386 17.6441 90.4196 17.3752 90.6481 17.1497C90.8766 16.9243 91.1478 16.7467 91.4459 16.6276C91.744 16.5084 92.0628 16.4501 92.3838 16.456C92.6981 16.456 93.0093 16.5179 93.2997 16.6381C93.59 16.7584 93.8539 16.9347 94.0761 17.1569C94.2983 17.3792 94.4746 17.643 94.5949 17.9334C94.7152 18.2237 94.7771 18.535 94.7771 18.8492C94.7771 19.1635 94.7152 19.4747 94.5949 19.7651C94.4746 20.0555 94.2983 20.3193 94.0761 20.5415C93.8539 20.7638 93.59 20.9401 93.2997 21.0603C93.0093 21.1806 92.6981 21.2425 92.3838 21.2425C92.0669 21.25 91.7517 21.1945 91.4565 21.0793C91.1612 20.9641 90.8917 20.7915 90.6636 20.5714C90.4356 20.3513 90.2534 20.0881 90.1278 19.7972C90.0021 19.5062 89.9355 19.1931 89.9317 18.8762Z" fill="#46E696"/>
</g>
<defs>
<clipPath id="clip0_1112_6947">
<rect width="94.5589" height="21" fill="white" transform="translate(0.237793 0.5)"/>
</clipPath>
</defs>
</svg>
