<?xml version="1.0" encoding="UTF-8"?>
<svg width="159px" height="36px" viewBox="0 0 159 36" version="1.1" xmlns="http://www.w3.org/2000/svg"
  xmlns:xlink="http://www.w3.org/1999/xlink">
  <title>TokenUp</title>
  <defs>
    <linearGradient x1="7.37119603%" y1="40.7594888%" x2="95.5122946%" y2="51.1587318%" id="linearGradient-1">
      <stop stop-color="#FF1413" offset="0%"></stop>
      <stop stop-color="#FF7301" offset="100%"></stop>
    </linearGradient>
  </defs>
  <g id="页面-1" stroke="none" stroke-width="1" fill="none" fill-rule="evenodd">
    <g id="画板" transform="translate(-1007.000000, -744.000000)">
      <g id="TokenUp" transform="translate(1007.000000, 744.000000)">
        <path
          d="M15.8254,11.937206 C15.2708,12.150906 14.6744,11.741606 14.6744,11.147206 L14.6744,7.90690596 C14.6744,7.31130596 14.0757,6.90190596 13.5207,7.11800596 L1.1537,11.931806 C0.5987,12.147806 3.55271368e-15,11.738406 3.55271368e-15,11.142806 L3.55271368e-15,7.26230596 C3.55271368e-15,6.91220596 0.2156,6.59820596 0.5423,6.47230596 L17.192,0.057405957 C17.7466,-0.156294043 18.3429,0.253105957 18.3429,0.847405957 L18.3429,4.03620596 C18.3429,4.63070596 18.9396,5.04010596 19.4942,4.82610596 L28.1974,1.46900596 C28.7521,1.25510596 29.3487,1.66440596 29.3487,2.25890596 L29.3487,6.14360596 C29.3487,6.49370596 29.1332,6.80760596 28.8066,6.93350596 L15.8254,11.937206 Z M5.644,30.938006 C5.644,31.406006 6.023,31.785006 6.4906,31.785006 L10.4414,31.785006 C10.909,31.785006 11.288,31.406006 11.288,30.938006 L11.288,12.700206 C11.288,12.105806 10.6914,11.696406 10.1367,11.910406 L0.8242,15.502506 C0.4976,15.628506 0.2822,15.942406 0.2822,16.292406 L0.2822,20.177006 C0.2822,20.772006 0.8788,21.181006 1.4335,20.967006 L4.4928,19.787006 C5.0474,19.573006 5.644,19.983006 5.644,20.577006 L5.644,30.938006 Z M20.8606,19.589006 C20.5339,19.715006 20.3183,20.029006 20.3183,20.379006 L20.3183,30.938006 C20.3183,31.406006 19.9393,31.785006 19.4717,31.785006 L15.5209,31.785006 C15.0534,31.785006 14.6743,31.406006 14.6743,30.938006 L14.6743,16.856906 C14.6743,16.506906 14.8898,16.192906 15.2165,16.067006 L28.1976,11.063406 C28.7522,10.849606 29.3487,11.258906 29.3487,11.853306 L29.3487,15.738206 C29.3487,16.088406 29.1331,16.402406 28.8064,16.528206 L20.8606,19.589006 Z"
          id="形状" fill="url(#linearGradient-1)"></path>
        <path
          d="M147.2429,15.758206 C147.6909,15.059306 148.3089,14.494806 149.0969,14.064706 C149.8859,13.634606 150.8089,13.419606 151.8659,13.419606 C153.1029,13.419606 154.2229,13.733206 155.2259,14.360406 C156.2299,14.987606 157.0179,15.883706 157.5919,17.048506 C158.1829,18.213006 158.4789,19.566006 158.4789,21.108006 C158.4789,22.649006 158.1829,24.011006 157.5919,25.193006 C157.0179,26.358006 156.2299,27.263006 155.2259,27.908006 C154.2229,28.536006 153.1029,28.849006 151.8659,28.849006 C150.8269,28.849006 149.9039,28.634006 149.0969,28.204006 C148.3089,27.774006 147.6909,27.219006 147.2429,26.538006 L147.2429,35.785006 L142.6459,35.785006 L142.6459,13.634606 L147.2429,13.634606 L147.2429,15.758206 Z M153.8019,21.108006 C153.8019,19.961006 153.4789,19.065006 152.8339,18.419006 C152.2069,17.756406 151.4269,17.424806 150.4949,17.424806 C149.5809,17.424806 148.8019,17.756406 148.1569,18.419006 C147.5289,19.082006 147.2159,19.987006 147.2159,21.134006 C147.2159,22.281006 147.5289,23.186006 148.1569,23.849006 C148.8019,24.512006 149.5809,24.844006 150.4949,24.844006 C151.4089,24.844006 152.1889,24.512006 152.8339,23.849006 C153.4789,23.168006 153.8019,22.254006 153.8019,21.108006 Z"
          id="形状" fill="#0A0A0A" fill-rule="nonzero"></path>
        <path
          d="M128.2089,9.76370596 L128.2089,21.054006 C128.2089,22.183006 128.4869,23.052006 129.0419,23.661006 C129.5979,24.271006 130.4129,24.575006 131.4879,24.575006 C132.5629,24.575006 133.3879,24.271006 133.9609,23.661006 C134.5349,23.052006 134.8209,22.183006 134.8209,21.054006 L134.8209,9.76370596 L139.4179,9.76370596 L139.4179,21.027006 C139.4179,22.711006 139.0599,24.136006 138.3429,25.301006 C137.6259,26.466006 136.6579,27.344006 135.4399,27.935006 C134.2389,28.527006 132.8949,28.822006 131.4079,28.822006 C129.9199,28.822006 128.5849,28.536006 127.4019,27.962006 C126.2369,27.371006 125.3149,26.493006 124.6339,25.328006 C123.9529,24.145006 123.6119,22.711006 123.6119,21.027006 L123.6119,9.76370596 L128.2089,9.76370596 Z"
          id="路径" fill="#0A0A0A" fill-rule="nonzero"></path>
        <path
          d="M114.7189,13.473306 C116.4749,13.473306 117.8729,14.046806 118.9129,15.193706 C119.9699,16.322706 120.4989,17.881806 120.4989,19.871006 L120.4989,28.634006 L115.9289,28.634006 L115.9289,20.489006 C115.9289,19.486006 115.6689,18.706006 115.1489,18.151006 C114.6289,17.595106 113.9309,17.317306 113.0519,17.317306 C112.1739,17.317306 111.4749,17.595106 110.9559,18.151006 C110.4359,18.706006 110.1759,19.486006 110.1759,20.489006 L110.1759,28.634006 L105.5799,28.634006 L105.5799,13.634606 L110.1759,13.634606 L110.1759,15.623806 C110.6419,14.960706 111.2689,14.441006 112.0579,14.064706 C112.8459,13.670406 113.7329,13.473306 114.7189,13.473306 Z"
          id="路径" fill="#0A0A0A" fill-rule="nonzero"></path>
        <path
          d="M103.1549,20.892006 C103.1549,21.323006 103.1279,21.771006 103.0739,22.237006 L92.6709,22.237006 C92.7429,23.168006 93.0379,23.885006 93.5579,24.387006 C94.0959,24.871006 94.7499,25.113006 95.5199,25.113006 C96.6669,25.113006 97.4649,24.629006 97.9129,23.661006 L102.8049,23.661006 C102.5539,24.647006 102.0969,25.534006 101.4339,26.322006 C100.7889,27.111006 99.9739,27.729006 98.9879,28.177006 C98.0019,28.625006 96.8999,28.849006 95.6819,28.849006 C94.2119,28.849006 92.9039,28.536006 91.7569,27.908006 C90.6099,27.281006 89.7139,26.385006 89.0689,25.220006 C88.4239,24.055006 88.1009,22.694006 88.1009,21.134006 C88.1009,19.575006 88.4149,18.213006 89.0419,17.048506 C89.6869,15.883706 90.5829,14.987606 91.7299,14.360406 C92.8769,13.733206 94.1939,13.419606 95.6819,13.419606 C97.1329,13.419606 98.4229,13.724206 99.5519,14.333506 C100.6809,14.942806 101.5599,15.812006 102.1869,16.941006 C102.8319,18.070006 103.1549,19.387006 103.1549,20.892006 Z M98.4499,19.683006 C98.4499,18.894006 98.1819,18.267006 97.6439,17.801206 C97.1059,17.335206 96.4339,17.102306 95.6279,17.102306 C94.8569,17.102306 94.2029,17.326306 93.6659,17.774306 C93.1459,18.222006 92.8229,18.858006 92.6979,19.683006 L98.4499,19.683006 Z"
          id="形状" fill="#0A0A0A" fill-rule="nonzero"></path>
        <polygon id="路径" fill="#0A0A0A" fill-rule="nonzero"
          points="81.5649 28.634006 76.9948 22.344006 76.9948 28.634006 72.3981 28.634006 72.3981 8.74230596 76.9948 8.74230596 76.9948 19.737006 81.5379 13.634606 87.2099 13.634606 80.9729 21.161006 87.2629 28.634006">
        </polygon>
        <path
          d="M62.1102,28.849006 C60.6407,28.849006 59.3146,28.536006 58.1318,27.908006 C56.967,27.281006 56.0441,26.385006 55.3631,25.220006 C54.7,24.055006 54.3685,22.694006 54.3685,21.134006 C54.3685,19.593006 54.709,18.240006 55.39,17.075406 C56.0709,15.892606 57.0028,14.987606 58.1856,14.360406 C59.3683,13.733206 60.6945,13.419606 62.164,13.419606 C63.6335,13.419606 64.9596,13.733206 66.1424,14.360406 C67.3251,14.987606 68.257,15.892606 68.938,17.075406 C69.619,18.240006 69.9595,19.593006 69.9595,21.134006 C69.9595,22.676006 69.61,24.038006 68.9111,25.220006 C68.2301,26.385006 67.2893,27.281006 66.0886,27.908006 C64.9058,28.536006 63.5797,28.849006 62.1102,28.849006 Z M62.1102,24.871006 C62.9883,24.871006 63.732,24.548006 64.3413,23.903006 C64.9686,23.258006 65.2822,22.335006 65.2822,21.134006 C65.2822,19.934006 64.9775,19.011006 64.3682,18.366006 C63.7768,17.720506 63.0421,17.398006 62.164,17.398006 C61.2679,17.398006 60.5242,17.720506 59.9329,18.366006 C59.3415,18.993006 59.0458,19.916006 59.0458,21.134006 C59.0458,22.335006 59.3325,23.258006 59.906,23.903006 C60.4974,24.548006 61.2321,24.871006 62.1102,24.871006 Z"
          id="形状" fill="#0A0A0A" fill-rule="nonzero"></path>
        <polygon id="路径" fill="#0A0A0A" fill-rule="nonzero"
          points="52.9755 9.76370596 52.9755 13.446406 47.9756 13.446406 47.9756 28.634006 43.3789 28.634006 43.3789 13.446406 38.3791 13.446406 38.3791 9.76370596">
        </polygon>
      </g>
    </g>
  </g>
</svg>