<svg width="101" height="30" viewBox="0 0 101 30" fill="none" xmlns="http://www.w3.org/2000/svg">
<path d="M40.4935 11.8708H38.8218V22.7858H40.4935V11.8708Z" fill="#262729"/>
<path d="M47.9826 7.24756H34.3569V8.91925H47.9826V7.24756Z" fill="#262729"/>
<path d="M43.5135 11.8708H41.8418V22.7858H43.5135V11.8708Z" fill="#262729"/>
<path d="M89.6958 22.7974H91.3825V16.2236L89.6958 14.3486V22.7974Z" fill="#262729"/>
<path d="M98.5779 7.24772V19.4352L86.6465 6.17468V22.7974H88.3295V10.6062L100.268 23.8705V7.24772H98.5779Z" fill="#262729"/>
<path d="M75.7231 7.24023C71.4347 7.24023 67.9482 10.7267 67.9482 15.0151C67.9482 19.3035 71.4347 22.7899 75.7231 22.7899C80.0114 22.7899 83.4979 19.3035 83.4979 15.0151C83.4979 10.7304 80.0114 7.24023 75.7231 7.24023ZM75.7231 21.1145C72.3609 21.1145 69.6237 18.381 69.6237 15.0151C69.6237 11.6491 72.3571 8.91569 75.7231 8.91569C79.0852 8.91569 81.8224 11.6491 81.8224 15.0151C81.8224 18.3773 79.0852 21.1145 75.7231 21.1145Z" fill="#262729"/>
<path d="M75.7232 13.8969C75.1057 13.8969 74.605 14.3976 74.605 15.0151C74.605 15.6325 75.1057 16.1333 75.7232 16.1333C76.3407 16.1333 76.8414 15.6325 76.8414 15.0151C76.8414 14.3976 76.3407 13.8969 75.7232 13.8969Z" fill="#262729"/>
<path d="M65.0227 12.0179C65.0227 9.3899 62.8992 7.25134 60.29 7.25134H51.397V22.801H53.0574V8.93809H60.29C61.9654 8.93809 63.3284 10.3199 63.3284 12.0179C63.3284 13.7084 61.9843 15.0827 60.3239 15.1015L54.4241 15.0977V22.801H56.0844V16.7845H59.9737L63.1514 22.7973H65.0829L61.7659 16.5473C63.6823 15.911 65.0227 14.0586 65.0227 12.0179Z" fill="#262729"/>
<path d="M22.8621 4.16792L0.204102 0L12.128 30L28.7394 9.75904L22.8621 4.16792ZM22.5007 6.00527L25.9683 9.2997L16.4879 11.0166L22.5007 6.00527ZM14.4284 10.6739L4.43601 2.38705L20.765 5.39157L14.4284 10.6739ZM13.7131 12.1423L12.0866 25.6099L3.30273 3.50151L13.7131 12.1423ZM15.2191 12.8539L25.716 10.9526L13.6792 25.6212L15.2191 12.8539Z" fill="#EB0029"/>
</svg>
