<svg width="55" height="54" viewBox="0 0 55 54" fill="none" xmlns="http://www.w3.org/2000/svg">
<rect x="0.5" width="54" height="54" rx="27" fill="#FFE3E3"/>
<path d="M27.5 17.1538C26.8203 17.1538 26.2692 17.7049 26.2692 18.3846V20.8462C26.2692 21.5259 26.8203 22.0769 27.5 22.0769C28.1797 22.0769 28.7308 21.5259 28.7308 20.8462V18.3846C28.7308 17.7049 28.1797 17.1538 27.5 17.1538Z" fill="#ED0000"/>
<path d="M27.5 31.9231C26.8203 31.9231 26.2692 32.4741 26.2692 33.1538V35.6154C26.2692 36.2951 26.8203 36.8462 27.5 36.8462C28.1797 36.8462 28.7308 36.2951 28.7308 35.6154V33.1538C28.7308 32.4741 28.1797 31.9231 27.5 31.9231Z" fill="#ED0000"/>
<path fill-rule="evenodd" clip-rule="evenodd" d="M27.5 11C27.5 11 30.7544 11 33.7283 12.2579C33.7283 12.2579 36.5998 13.4724 38.8137 15.6863C38.8137 15.6863 41.0276 17.9002 42.2421 20.7717C42.2421 20.7717 43.5 23.7456 43.5 27C43.5 27 43.5 30.2544 42.2421 33.2283C42.2421 33.2283 41.0276 36.0998 38.8137 38.3137C38.8137 38.3137 36.5998 40.5276 33.7283 41.7421C33.7283 41.7421 30.7544 43 27.5 43C27.5 43 24.2456 43 21.2717 41.7421C21.2717 41.7421 18.4002 40.5276 16.1863 38.3137C16.1863 38.3137 13.9724 36.0998 12.7579 33.2283C12.7579 33.2283 11.5 30.2544 11.5 27C11.5 27 11.5 23.7456 12.7579 20.7717C12.7579 20.7717 13.9724 17.9002 16.1863 15.6863C16.1863 15.6863 18.4002 13.4724 21.2717 12.2579C21.2717 12.2579 24.2456 11 27.5 11ZM27.5 13.4615C27.5 13.4615 24.7448 13.4615 22.2306 14.525C22.2306 14.525 19.8012 15.5525 17.9269 17.4269C17.9269 17.4269 16.0525 19.3012 15.025 21.7306C15.025 21.7306 13.9615 24.2448 13.9615 27C13.9615 27 13.9615 29.7552 15.025 32.2694C15.025 32.2694 16.0525 34.6988 17.9269 36.5731C17.9269 36.5731 19.8012 38.4475 22.2306 39.475C22.2306 39.475 24.7448 40.5385 27.5 40.5385C27.5 40.5385 30.2552 40.5385 32.7694 39.475C32.7694 39.475 35.1988 38.4475 37.0731 36.5731C37.0731 36.5731 38.9475 34.6988 39.975 32.2694C39.975 32.2694 41.0385 29.7552 41.0385 27C41.0385 27 41.0385 24.2448 39.975 21.7306C39.975 21.7306 38.9475 19.3012 37.0731 17.4269C37.0731 17.4269 35.1988 15.5525 32.7694 14.525C32.7694 14.525 30.2552 13.4615 27.5 13.4615Z" fill="#ED0000"/>
<path d="M25.6538 22.0769H31.1923C31.872 22.0769 32.4231 21.5259 32.4231 20.8462C32.4231 20.1664 31.872 19.6154 31.1923 19.6154H25.6538C23.8695 19.6154 22.6078 20.8771 22.6078 20.8771C21.3462 22.1388 21.3462 23.9231 21.3462 23.9231C21.3462 25.7074 22.6078 26.9691 22.6078 26.9691C23.8695 28.2308 25.6538 28.2308 25.6538 28.2308H29.3462C30.1109 28.2308 30.6516 28.7715 30.6516 28.7715C31.1923 29.3122 31.1923 30.0769 31.1923 30.0769C31.1923 30.8416 30.6516 31.3824 30.6516 31.3824C30.1109 31.9231 29.3462 31.9231 29.3462 31.9231H23.8077C23.128 31.9231 22.5769 32.4741 22.5769 33.1538C22.5769 33.8336 23.128 34.3846 23.8077 34.3846H29.3462C31.1305 34.3846 32.3922 33.1229 32.3922 33.1229C33.6538 31.8612 33.6538 30.0769 33.6538 30.0769C33.6538 28.2926 32.3922 27.0309 32.3922 27.0309C31.1305 25.7692 29.3462 25.7692 29.3462 25.7692H25.6538C24.8891 25.7692 24.3484 25.2285 24.3484 25.2285C23.8077 24.6878 23.8077 23.9231 23.8077 23.9231C23.8077 23.1584 24.3484 22.6177 24.3484 22.6177C24.8891 22.0769 25.6538 22.0769 25.6538 22.0769Z" fill="#ED0000"/>
</svg>
