<svg width="49" height="48" viewBox="0 0 49 48" fill="none" xmlns="http://www.w3.org/2000/svg">
<rect x="0.5" width="48" height="48" rx="24" fill="#FFE3E3"/>
<path fill-rule="evenodd" clip-rule="evenodd" d="M20.9231 20.4545C20.9231 20.4545 23.3924 20.4545 25.1385 22.1853C25.1385 22.1853 26.8846 23.916 26.8846 26.3636C26.8846 26.3636 26.8846 28.8113 25.1385 30.542C25.1385 30.542 23.3924 32.2727 20.9231 32.2727C20.9231 32.2727 18.4537 32.2727 16.7076 30.542C16.7076 30.542 14.9615 28.8113 14.9615 26.3636C14.9615 26.3636 14.9615 23.916 16.7076 22.1853C16.7076 22.1853 18.4537 20.4545 20.9231 20.4545ZM20.9231 22.8182C20.9231 22.8182 19.4415 22.8182 18.3938 23.8566C18.3938 23.8566 17.3462 24.8951 17.3462 26.3636C17.3462 26.3636 17.3462 27.8322 18.3938 28.8707C18.3938 28.8707 19.4415 29.9091 20.9231 29.9091C20.9231 29.9091 22.4047 29.9091 23.4523 28.8707C23.4523 28.8707 24.5 27.8322 24.5 26.3636C24.5 26.3636 24.5 24.8951 23.4523 23.8566C23.4523 23.8566 22.4047 22.8182 20.9231 22.8182Z" fill="#ED0000"/>
<path fill-rule="evenodd" clip-rule="evenodd" d="M11.3846 37C11.3846 37 10.3969 37 9.69844 36.3077C9.69844 36.3077 9 35.6154 9 34.6364V13.3636C9 13.3636 9 12.3846 9.69844 11.6923C9.69844 11.6923 10.3969 11 11.3846 11H37.6154C37.6154 11 38.6031 11 39.3016 11.6923C39.3016 11.6923 40 12.3846 40 13.3636V34.6364C40 34.6364 40 35.6154 39.3016 36.3077C39.3016 36.3077 38.6031 37 37.6154 37H28.4644C28.0038 37 27.5844 36.737 27.3871 36.3245C27.3871 36.3245 26.4991 34.4682 24.7474 33.3699C24.7474 33.3699 22.9958 32.2727 20.9231 32.2727C20.9231 32.2727 18.8504 32.2716 17.0987 33.3699C17.0987 33.3699 15.3471 34.4682 14.4591 36.3245C14.2617 36.737 13.8423 37 13.3817 37H11.3846ZM11.3846 34.6364H12.6598C12.6598 34.6364 13.8165 32.631 15.824 31.3724C15.824 31.3724 18.1595 29.9091 20.9231 29.9091C20.9231 29.9091 23.6867 29.908 26.0222 31.3724C26.0222 31.3724 28.0296 32.631 29.1864 34.6364H37.6154V13.3636H11.3846V34.6364Z" fill="#ED0000"/>
<path d="M14.9615 15.7273C14.303 15.7273 13.7692 16.2564 13.7692 16.9091V19.2727C13.7692 19.9254 14.303 20.4545 14.9615 20.4545C15.62 20.4545 16.1538 19.9254 16.1538 19.2727V18.0909H32.8462V29.9091H31.6538C30.9954 29.9091 30.4615 30.4382 30.4615 31.0909C30.4615 31.7436 30.9954 32.2727 31.6538 32.2727H34.0385C34.697 32.2727 35.2308 31.7436 35.2308 31.0909V16.9091C35.2308 16.2564 34.697 15.7273 34.0385 15.7273H14.9615Z" fill="#ED0000"/>
</svg>
