<svg width="55" height="54" viewBox="0 0 55 54" fill="none" xmlns="http://www.w3.org/2000/svg">
<rect x="0.5" width="54" height="54" rx="27" fill="#FFE3E3"/>
<path fill-rule="evenodd" clip-rule="evenodd" d="M28 11C28 11 31.2544 11 34.2283 12.2579C34.2283 12.2579 37.0998 13.4724 39.3137 15.6863C39.3137 15.6863 41.5276 17.9002 42.7421 20.7717C42.7421 20.7717 44 23.7456 44 27C44 27 44 30.2544 42.7421 33.2283C42.7421 33.2283 41.5276 36.0998 39.3137 38.3137C39.3137 38.3137 37.0998 40.5276 34.2283 41.7421C34.2283 41.7421 31.2544 43 28 43C28 43 24.7456 43 21.7717 41.7421C21.7717 41.7421 18.9002 40.5276 16.6863 38.3137C16.6863 38.3137 14.4724 36.0998 13.2579 33.2283C13.2579 33.2283 12 30.2544 12 27C12 27 12 23.7456 13.2579 20.7717C13.2579 20.7717 14.4724 17.9002 16.6863 15.6863C16.6863 15.6863 18.9002 13.4724 21.7717 12.2579C21.7717 12.2579 24.7456 11 28 11ZM28 13.4615C28 13.4615 25.2448 13.4615 22.7306 14.525C22.7306 14.525 20.3012 15.5525 18.4269 17.4269C18.4269 17.4269 16.5525 19.3012 15.525 21.7306C15.525 21.7306 14.4615 24.2448 14.4615 27C14.4615 27 14.4615 29.7552 15.525 32.2694C15.525 32.2694 16.5525 34.6988 18.4269 36.5731C18.4269 36.5731 20.3012 38.4475 22.7306 39.475C22.7306 39.475 25.2448 40.5385 28 40.5385C28 40.5385 30.7552 40.5385 33.2694 39.475C33.2694 39.475 35.6988 38.4475 37.5731 36.5731C37.5731 36.5731 39.4475 34.6988 40.475 32.2694C40.475 32.2694 41.5385 29.7552 41.5385 27C41.5385 27 41.5385 24.2448 40.475 21.7306C40.475 21.7306 39.4475 19.3012 37.5731 17.4269C37.5731 17.4269 35.6988 15.5525 33.2694 14.525C33.2694 14.525 30.7552 13.4615 28 13.4615Z" fill="#ED0000"/>
<path d="M13.2308 28.2308H42.7692C43.449 28.2308 44 27.6797 44 27C44 26.3203 43.449 25.7692 42.7692 25.7692H13.2308C12.551 25.7692 12 26.3203 12 27C12 27.6797 12.551 28.2308 13.2308 28.2308Z" fill="#ED0000"/>
<path fill-rule="evenodd" clip-rule="evenodd" d="M28 11.3999C28 11.3999 29.7573 11.3999 31.2602 12.8842C31.2602 12.8842 32.5361 14.1444 33.4828 16.3548C33.4828 16.3548 35.3846 20.7956 35.3846 26.9999C35.3846 26.9999 35.3846 33.2043 33.4828 37.6451C33.4828 37.6451 32.5361 39.8555 31.2602 41.1157C31.2602 41.1157 29.7573 42.5999 28 42.5999C28 42.5999 26.2427 42.5999 24.7398 41.1157C24.7398 41.1157 23.4639 39.8555 22.5172 37.6451C22.5172 37.6451 20.6154 33.2043 20.6154 26.9999C20.6154 26.9999 20.6154 20.7956 22.5172 16.3548C22.5172 16.3548 23.4639 14.1444 24.7398 12.8842C24.7398 12.8842 26.2427 11.3999 28 11.3999ZM28 13.8615C28 13.8615 27.2533 13.8615 26.4695 14.6356C26.4695 14.6356 25.5367 15.5568 24.78 17.3239C24.78 17.3239 23.0769 21.3005 23.0769 26.9999C23.0769 26.9999 23.0769 32.6994 24.78 36.676C24.78 36.676 25.5367 38.4431 26.4695 39.3643C26.4695 39.3643 27.2533 40.1384 28 40.1384C28 40.1384 28.7467 40.1384 29.5305 39.3643C29.5305 39.3643 30.4633 38.4431 31.22 36.676C31.22 36.676 32.9231 32.6994 32.9231 26.9999C32.9231 26.9999 32.9231 21.3005 31.22 17.3239C31.22 17.3239 30.4633 15.5568 29.5305 14.6356C29.5305 14.6356 28.7467 13.8615 28 13.8615Z" fill="#ED0000"/>
<rect x="16" y="21" width="24" height="12" rx="2" fill="#ED0000"/>
<path d="M18.79 22.92H21.17C21.51 22.92 21.8367 22.9533 22.15 23.02C22.47 23.0867 22.75 23.2 22.99 23.36C23.23 23.5133 23.42 23.7233 23.56 23.99C23.7067 24.25 23.78 24.5767 23.78 24.97C23.78 25.4167 23.7033 25.7767 23.55 26.05C23.3967 26.3233 23.19 26.5367 22.93 26.69C22.67 26.8367 22.3667 26.9367 22.02 26.99C21.68 27.0433 21.3233 27.07 20.95 27.07H20.05V30H18.79V22.92ZM20.81 25.99C20.99 25.99 21.1767 25.9833 21.37 25.97C21.5633 25.9567 21.74 25.9167 21.9 25.85C22.0667 25.7833 22.2 25.6833 22.3 25.55C22.4067 25.4167 22.46 25.23 22.46 24.99C22.46 24.77 22.4133 24.5967 22.32 24.47C22.2267 24.3367 22.1067 24.2367 21.96 24.17C21.8133 24.0967 21.65 24.05 21.47 24.03C21.29 24.01 21.1167 24 20.95 24H20.05V25.99H20.81ZM24.9033 22.92H27.3633C27.7033 22.92 28.0299 22.9533 28.3433 23.02C28.6633 23.08 28.9466 23.1867 29.1933 23.34C29.4399 23.4933 29.6366 23.7 29.7833 23.96C29.9299 24.22 30.0033 24.55 30.0033 24.95C30.0033 25.4633 29.8599 25.8933 29.5733 26.24C29.2933 26.5867 28.8899 26.7967 28.3633 26.87L30.2433 30H28.7233L27.0833 27H26.1633V30H24.9033V22.92ZM27.1433 25.92C27.3233 25.92 27.5033 25.9133 27.6833 25.9C27.8633 25.88 28.0266 25.84 28.1733 25.78C28.3266 25.7133 28.4499 25.6167 28.5433 25.49C28.6366 25.3567 28.6833 25.1733 28.6833 24.94C28.6833 24.7333 28.6399 24.5667 28.5533 24.44C28.4666 24.3133 28.3533 24.22 28.2133 24.16C28.0733 24.0933 27.9166 24.05 27.7433 24.03C27.5766 24.01 27.4133 24 27.2533 24H26.1633V25.92H27.1433ZM36.0621 24.58C35.8021 24.3 35.5488 24.1133 35.3021 24.02C35.0621 23.9267 34.8188 23.88 34.5721 23.88C34.2054 23.88 33.8721 23.9467 33.5721 24.08C33.2788 24.2067 33.0254 24.3867 32.8121 24.62C32.5988 24.8467 32.4321 25.1133 32.3121 25.42C32.1988 25.7267 32.1421 26.0567 32.1421 26.41C32.1421 26.79 32.1988 27.14 32.3121 27.46C32.4321 27.78 32.5988 28.0567 32.8121 28.29C33.0254 28.5233 33.2788 28.7067 33.5721 28.84C33.8721 28.9733 34.2054 29.04 34.5721 29.04C34.8588 29.04 35.1354 28.9733 35.4021 28.84C35.6754 28.7 35.9288 28.48 36.1621 28.18L37.2021 28.92C36.8821 29.36 36.4921 29.68 36.0321 29.88C35.5721 30.08 35.0821 30.18 34.5621 30.18C34.0154 30.18 33.5121 30.0933 33.0521 29.92C32.5988 29.74 32.2054 29.49 31.8721 29.17C31.5454 28.8433 31.2888 28.4533 31.1021 28C30.9154 27.5467 30.8221 27.0433 30.8221 26.49C30.8221 25.9233 30.9154 25.41 31.1021 24.95C31.2888 24.4833 31.5454 24.0867 31.8721 23.76C32.2054 23.4333 32.5988 23.1833 33.0521 23.01C33.5121 22.83 34.0154 22.74 34.5621 22.74C35.0421 22.74 35.4854 22.8267 35.8921 23C36.3054 23.1667 36.6888 23.4533 37.0421 23.86L36.0621 24.58Z" fill="white"/>
</svg>
